<?xml version="1.0" encoding="UTF-8" standalone="no"?><svg xmlns="http://www.w3.org/2000/svg" xmlns:xlink="http://www.w3.org/1999/xlink" fill="#545454" height="36" preserveAspectRatio="xMidYMid meet" version="1" viewBox="4.0 6.0 42.1 36.0" width="42.1" zoomAndPan="magnify"><g><path d="M0,0H48V48H0Z" fill="none"/><g id="change1_1"><path d="M18.587,42h-.206C11.435,42,4,37.8,4,26a2,2,0,0,1,2-2H33.086c-.3-2.334,1.143-4.395,2.212-5.922a2.028,2.028,0,0,1,1.842-.856,2,2,0,0,1,1.643,1.17c1.369,3.1,2.623,4.156,5.592,4.724A2,2,0,0,1,45.65,26.21c-2.106,3.076-4.211,4.942-6.274,5.566C35.255,38.472,28.091,42,18.587,42ZM8.09,28c.842,8.978,7.382,10,10.3,10,5.858.067,13.783-1.5,17.962-8.976a2,2,0,0,1,1.57-1.016,5.223,5.223,0,0,0,2.7-1.862,9.014,9.014,0,0,1-3.571-2.8.9.9,0,0,0,.02.224c.014.064.024.128.032.193a5.062,5.062,0,0,1-1.243,3.34A2.47,2.47,0,0,1,33.983,28Zm25.881-4h0Z"/></g><g id="change1_2"><path d="M16,28H10a2,2,0,0,1-2-2V20a2,2,0,0,1,2-2h6a2,2,0,0,1,2,2v6A2,2,0,0,1,16,28Zm-4-4h2V22H12Z"/></g><g id="change1_3"><path d="M22,28H16a2,2,0,0,1-2-2V20a2,2,0,0,1,2-2h6a2,2,0,0,1,2,2v6A2,2,0,0,1,22,28Zm-4-4h2V22H18Z"/></g><g id="change1_4"><path d="M28,28H22a2,2,0,0,1-2-2V20a2,2,0,0,1,2-2h6a2,2,0,0,1,2,2v6A2,2,0,0,1,28,28Zm-4-4h2V22H24Z"/></g><g id="change1_5"><path d="M22,22H16a2,2,0,0,1-2-2V14a2,2,0,0,1,2-2h6a2,2,0,0,1,2,2v6A2,2,0,0,1,22,22Zm-4-4h2V16H18Z"/></g><g id="change1_6"><path d="M28,22H22a2,2,0,0,1-2-2V14a2,2,0,0,1,2-2h6a2,2,0,0,1,2,2v6A2,2,0,0,1,28,22Zm-4-4h2V16H24Z"/></g><g id="change1_7"><path d="M28,16H22a2,2,0,0,1-2-2V8a2,2,0,0,1,2-2h6a2,2,0,0,1,2,2v6A2,2,0,0,1,28,16Zm-4-4h2V10H24Z"/></g><g id="change1_8"><path d="M9.142,38a2,2,0,1,1,0-4c2.828,0,3.4-.139,4.691-1.141a2,2,0,1,1,2.45,3.162C13.971,37.813,12.332,38,9.142,38Z"/></g><g id="change1_9"><path d="M20,34.02A2.005,2.005,0,1,1,22,32v.02A2,2,0,0,1,20,34.02Z"/></g></g></svg>