<?xml version="1.0" encoding="UTF-8" standalone="no"?><svg xmlns="http://www.w3.org/2000/svg" xmlns:xlink="http://www.w3.org/1999/xlink" fill="#000000" height="270.7" preserveAspectRatio="xMidYMid" version="1.1" viewBox="0.0 -7.1 263.1 270.7" width="263.1" zoomAndPan="magnify">
 <g fill="none">
  <polygon fill="#2a2c3e" points="45.985 256.46 0 258.05 23.573 234.08 45.987 256.46"/>
  <path d="m254.58 137.58c-8.54 66.61-69.47 113.68-136.08 105.12-66.611-8.54-113.67-69.47-105.13-136.08 8.549-66.612 69.468-113.68 136.09-105.13 66.61 8.546 113.68 69.482 105.12 136.09" fill="#2a2c3e"/>
  <path d="m164.98 87.532c7.99 8.494 0.11 28.578 0.11 28.578s-7.8 28.39-52.42 65.21l-8.34-8.17 56.66-57.9 1.09-1.48c1.51-2.46 2.75-26.403 2.9-26.238" fill="#999999"/>
  <path d="m164.98 87.532c7.99 8.494 0.11 28.578 0.11 28.578s-7.8 28.39-52.42 65.21l-8.34-8.17 56.66-57.9 1.09-1.48c1.51-2.46 2.75-26.403 2.9-26.238v0z" stroke="#ffffff" stroke-linecap="round" stroke-linejoin="round" stroke-width="1.918"/>
  <path d="m92.099 161.11l72.761-73.787c3.7 4.385 4.48 9.11 3.41 15.847-0.72 4.66-8.78 13.98-8.78 13.98l-55.16 56" fill="#666666"/>
  <path d="m92.099 161.11l72.761-73.787c3.7 4.385 4.48 9.11 3.41 15.847-0.72 4.66-8.78 13.98-8.78 13.98l-55.16 56" stroke="#ffffff" stroke-linecap="round" stroke-linejoin="round" stroke-width="1.201"/>
  <path d="m164.98 87.583l-72.881 73.527 0.147-0.14-0.027 0.01-18.083-17.82c37.704-46.905 62.084-55.65 62.084-55.65s15.88-6.196 27.2-1.388c0.87 0.466 1.25 0.734 1.56 1.463" fill="#d9d9d9"/>
  <path d="m164.98 87.583l-72.881 73.527 0.147-0.14-0.027 0.01-18.083-17.82c37.704-46.905 62.084-55.65 62.084-55.65s15.88-6.196 27.2-1.388c0.87 0.466 1.25 0.734 1.56 1.463v-0.002z" stroke="#ffffff" stroke-linecap="round" stroke-linejoin="round" stroke-width="1.918"/>
  <path d="m112.67 181.32c-17.393 14.32-39.646 36.82-69.894 52.51l6.728 28.76-28.516-28.09 71.109-73.39" fill="#999999"/>
  <path d="m112.67 181.32c-17.393 14.32-39.646 36.82-69.894 52.51l6.728 28.76-28.516-28.09 71.109-73.39" stroke="#ffffff" stroke-linecap="round" stroke-linejoin="round" stroke-width="1.918"/>
  <polygon fill="#2a2c3e" points="74.623 143.4 92.288 161 51.478 169.84 74.232 143.08 74.625 143.4"/>
  <polygon points="74.623 143.4 92.288 161 51.478 169.84 74.232 143.08 74.625 143.4" stroke="#ffffff" stroke-linecap="round" stroke-linejoin="round" stroke-width="1.918"/>
  <path d="m158.02 66.246c-1.73 15.641 9.53 29.721 25.17 31.465 15.63 1.737 29.72-9.533 31.47-25.168 1.74-15.635-9.54-29.73-25.18-31.468-15.64-1.728-29.72 9.527-31.46 25.171" fill="#999999"/>
  <path d="m158.02 66.246c-1.73 15.641 9.53 29.721 25.17 31.465 15.63 1.737 29.72-9.533 31.47-25.168 1.74-15.635-9.54-29.73-25.18-31.468-15.64-1.728-29.72 9.527-31.46 25.171v0z" stroke="#ffffff" stroke-linecap="round" stroke-linejoin="round" stroke-width="1.918"/>
  <path d="m210.57 85.138c5.25-7.679 4.98-19.167 3.92-22.57-1.29-4.168-4.19-10.945-9.24-14.468l-26.71 24.606s20.53 22.059 21.06 22.132c0.22 0.026 6.17-2.698 10.97-9.7" fill="#666666"/>
  <path d="m210.57 85.138c5.25-7.679 4.98-19.167 3.92-22.57-1.29-4.168-4.19-10.945-9.24-14.468l-26.71 24.606s20.53 22.059 21.06 22.132c0.22 0.026 6.17-2.698 10.97-9.7v0zm-5.39-19.275s2.56 6.307-0.69 11.214l0.69-11.214z" stroke="#ffffff" stroke-linecap="round" stroke-linejoin="round" stroke-width="1.918"/>
  <polyline fill="#666666" points="104.96 173.16 75.482 178.4 93.278 159.91"/>
  <path d="m104.96 173.16l-29.478 5.24 17.796-18.49m-17.97-16.38l37.482 35.27" stroke="#ffffff" stroke-linecap="round" stroke-linejoin="round" stroke-width="1.918"/>
 </g>
</svg>