<?xml version="1.0" encoding="UTF-8" standalone="no"?><!-- Generator: Adobe Illustrator 21.0.2, SVG Export Plug-In . SVG Version: 6.00 Build 0)  --><svg xmlns="http://www.w3.org/2000/svg" enable-background="new 0 0 150 176.5" fill="#000000" id="Layer_1" version="1.1" viewBox="0 0 150 176.5" x="0px" xml:space="preserve" y="0px">
<g id="change1_1"><path d="m115.3 67.1l25.9-26.3v-40.8h-131.4v51.4h51.2l-17 17.4v40.8h26.6c14.3 0 14.3 4.5 14.3 6.2 0 7.2-13.5 7.6-16.2 7.6-14 0-29-4.1-41.2-11.2l-4.8-2.8-22.7 49.5 4 2.3c17.1 9.6 42 15.3 66.6 15.3 25.2 0 45.9-6.5 60-18.7 12.6-10.8 19.4-25.8 19.4-42.1 0-22.8-12.8-40.4-34.7-48.6z" fill="#273339"/></g>
</svg>