<?xml version="1.0" encoding="UTF-8" standalone="no"?><svg xmlns="http://www.w3.org/2000/svg" xmlns:xlink="http://www.w3.org/1999/xlink" fill="#000000" height="351.6" preserveAspectRatio="xMidYMid meet" version="1" viewBox="24.7 36.9 375.8 351.6" width="375.8" zoomAndPan="magnify"><g fill="#ffffff" id="change1_1"><path d="M 207.695312 113.570312 L 208.023438 112.414062 C 206.835938 112.074219 205.632812 111.914062 204.449219 111.914062 C 200.695312 111.914062 197.148438 113.535156 194.683594 116.28125 C 194.355469 116.644531 194.285156 117.179688 194.5 117.621094 C 194.699219 118.019531 194.851562 118.636719 194.878906 119.472656 C 194.894531 119.96875 195.210938 120.398438 195.679688 120.566406 C 197.476562 121.203125 199.226562 122.042969 200.90625 123.105469 L 200.902344 123.101562 C 202.859375 124.34375 205.964844 126.609375 209.714844 129.570312 C 213.464844 132.53125 217.875 136.195312 222.492188 140.269531 C 222.703125 140.453125 222.964844 140.558594 223.242188 140.570312 C 224.519531 140.621094 225.785156 140.652344 227.023438 140.652344 C 230.664062 140.648438 234.03125 140.40625 236.703125 139.734375 C 238.042969 139.398438 239.214844 138.957031 240.179688 138.328125 C 241.136719 137.707031 241.917969 136.84375 242.230469 135.734375 L 242.230469 135.730469 C 242.332031 135.375 242.382812 135.007812 242.378906 134.644531 C 242.371094 133.339844 241.800781 132.132812 240.960938 130.980469 C 239.46875 128.960938 237.039062 126.980469 234.121094 125.011719 C 229.746094 122.074219 224.269531 119.234375 219.363281 116.964844 C 216.914062 115.832031 214.605469 114.847656 212.652344 114.066406 C 210.695312 113.289062 209.101562 112.71875 208.027344 112.414062 L 207.695312 113.570312 L 207.367188 114.730469 C 208.789062 115.132812 211.636719 116.199219 215.027344 117.664062 C 220.121094 119.867188 226.5 122.988281 231.546875 126.207031 C 234.066406 127.816406 236.253906 129.453125 237.757812 130.960938 C 238.507812 131.710938 239.085938 132.429688 239.453125 133.066406 C 239.820312 133.703125 239.972656 134.234375 239.972656 134.644531 C 239.96875 134.796875 239.949219 134.941406 239.910156 135.078125 L 239.914062 135.074219 C 239.792969 135.488281 239.5 135.890625 238.859375 136.3125 C 237.914062 136.941406 236.265625 137.464844 234.203125 137.78125 C 232.140625 138.101562 229.667969 138.242188 227.023438 138.242188 C 225.824219 138.242188 224.589844 138.214844 223.339844 138.160156 L 223.289062 139.367188 L 224.089844 138.460938 C 219.433594 134.359375 214.996094 130.667969 211.207031 127.679688 C 207.414062 124.683594 204.28125 122.394531 202.195312 121.066406 L 202.191406 121.066406 C 200.359375 119.910156 198.445312 118.992188 196.484375 118.296875 L 196.082031 119.429688 L 197.285156 119.386719 C 197.246094 118.324219 197.066406 117.378906 196.660156 116.550781 L 195.582031 117.085938 L 196.480469 117.890625 C 198.488281 115.648438 201.394531 114.324219 204.449219 114.324219 C 205.414062 114.324219 206.394531 114.457031 207.367188 114.730469 L 207.695312 113.570312" fill="inherit"/><path d="M 204.878906 115.148438 L 205.207031 113.988281 C 204.222656 113.710938 203.226562 113.574219 202.25 113.574219 C 199.488281 113.574219 196.863281 114.636719 194.890625 116.472656 C 194.523438 116.8125 194.40625 117.335938 194.589844 117.796875 C 194.742188 118.1875 194.855469 118.753906 194.878906 119.472656 C 194.894531 119.964844 195.210938 120.398438 195.679688 120.566406 C 197.476562 121.203125 199.226562 122.042969 200.90625 123.105469 L 200.902344 123.101562 C 202.585938 124.171875 205.125 125.996094 208.183594 128.371094 C 211.246094 130.746094 214.84375 133.675781 218.691406 136.964844 C 218.902344 137.144531 219.175781 137.25 219.457031 137.253906 C 219.816406 137.261719 220.171875 137.261719 220.523438 137.261719 C 223.472656 137.261719 226.199219 137.0625 228.386719 136.515625 C 229.484375 136.238281 230.449219 135.875 231.261719 135.347656 C 232.066406 134.824219 232.742188 134.085938 233.015625 133.121094 L 233.015625 133.117188 C 233.101562 132.804688 233.144531 132.484375 233.144531 132.175781 C 233.136719 131.046875 232.644531 130.03125 231.949219 129.074219 C 230.714844 127.40625 228.734375 125.796875 226.363281 124.199219 C 222.8125 121.8125 218.378906 119.511719 214.40625 117.679688 C 212.421875 116.761719 210.550781 115.960938 208.96875 115.332031 C 207.382812 114.699219 206.09375 114.242188 205.207031 113.988281 L 204.550781 116.308594 C 205.679688 116.625 207.980469 117.484375 210.710938 118.664062 C 214.820312 120.4375 219.96875 122.960938 224.03125 125.550781 C 226.058594 126.84375 227.816406 128.160156 229.011719 129.359375 C 229.609375 129.957031 230.0625 130.523438 230.347656 131.015625 C 230.632812 131.503906 230.734375 131.898438 230.734375 132.175781 C 230.734375 132.28125 230.722656 132.375 230.695312 132.464844 L 230.695312 132.460938 C 230.617188 132.726562 230.425781 133.007812 229.941406 133.328125 C 229.226562 133.808594 227.921875 134.230469 226.277344 134.480469 C 224.632812 134.738281 222.648438 134.851562 220.523438 134.851562 C 220.183594 134.851562 219.839844 134.851562 219.492188 134.84375 L 219.476562 136.050781 L 220.257812 135.132812 C 216.382812 131.820312 212.761719 128.871094 209.660156 126.46875 C 206.5625 124.0625 203.992188 122.210938 202.195312 121.066406 L 202.191406 121.066406 C 200.359375 119.910156 198.445312 118.992188 196.484375 118.296875 L 196.082031 119.429688 L 197.285156 119.390625 C 197.253906 118.480469 197.121094 117.65625 196.828125 116.910156 L 195.710938 117.355469 L 196.527344 118.238281 C 198.0625 116.8125 200.109375 115.984375 202.25 115.984375 C 203.007812 115.984375 203.777344 116.089844 204.550781 116.308594 L 204.878906 115.148438" fill="inherit"/><path d="M 201.746094 116.898438 L 202.074219 115.738281 C 201.324219 115.523438 200.566406 115.421875 199.816406 115.421875 C 198.144531 115.421875 196.535156 115.933594 195.191406 116.835938 C 194.765625 117.125 194.566406 117.652344 194.699219 118.148438 C 194.796875 118.507812 194.859375 118.945312 194.878906 119.472656 C 194.894531 119.96875 195.210938 120.398438 195.679688 120.566406 C 197.476562 121.203125 199.226562 122.042969 200.90625 123.105469 L 200.902344 123.101562 C 203.601562 124.8125 208.445312 128.445312 214.195312 133.1875 C 214.425781 133.375 214.714844 133.472656 215.011719 133.460938 C 216.816406 133.382812 218.445312 133.179688 219.792969 132.75 C 220.464844 132.53125 221.074219 132.257812 221.601562 131.859375 C 222.125 131.464844 222.574219 130.910156 222.765625 130.222656 C 222.839844 129.960938 222.875 129.695312 222.875 129.4375 C 222.867188 128.503906 222.46875 127.699219 221.933594 126.964844 C 220.984375 125.683594 219.503906 124.488281 217.742188 123.296875 C 215.105469 121.527344 211.828125 119.828125 208.894531 118.472656 C 207.425781 117.792969 206.046875 117.203125 204.875 116.734375 C 203.699219 116.269531 202.746094 115.929688 202.074219 115.738281 L 201.417969 118.058594 C 202.21875 118.28125 203.914062 118.910156 205.914062 119.777344 C 208.925781 121.078125 212.710938 122.929688 215.675781 124.824219 C 217.15625 125.769531 218.4375 126.730469 219.289062 127.585938 C 219.714844 128.011719 220.03125 128.414062 220.222656 128.738281 C 220.414062 129.070312 220.464844 129.308594 220.464844 129.4375 L 220.449219 129.5625 C 220.421875 129.652344 220.363281 129.765625 220.140625 129.941406 C 219.816406 130.195312 219.136719 130.484375 218.222656 130.675781 C 217.304688 130.875 216.167969 131 214.910156 131.054688 L 214.960938 132.257812 L 215.726562 131.328125 C 209.921875 126.542969 205.0625 122.890625 202.195312 121.066406 L 202.191406 121.066406 C 200.359375 119.910156 198.445312 118.992188 196.484375 118.296875 L 196.082031 119.429688 L 197.285156 119.386719 C 197.261719 118.722656 197.183594 118.105469 197.027344 117.527344 L 195.863281 117.835938 L 196.539062 118.835938 C 197.492188 118.191406 198.636719 117.832031 199.816406 117.832031 C 200.34375 117.832031 200.878906 117.902344 201.414062 118.054688 L 201.417969 118.058594 L 201.746094 116.898438" fill="inherit"/><path d="M 167.421875 177.109375 L 168.328125 176.320312 C 166.558594 174.289062 165.695312 171.792969 165.695312 169.296875 C 165.695312 167.871094 165.980469 166.449219 166.539062 165.125 L 165.429688 164.65625 L 165.429688 165.859375 L 165.5 165.859375 C 166.390625 165.859375 167.292969 165.617188 168.238281 165.214844 L 167.761719 164.105469 L 166.90625 164.953125 C 168.371094 166.429688 170.015625 167.773438 171.851562 168.933594 L 171.851562 168.929688 C 173.941406 170.257812 177.347656 172.113281 181.671875 174.265625 C 185.992188 176.414062 191.226562 178.855469 196.921875 181.3125 L 197.398438 180.207031 L 196.332031 180.765625 C 197.765625 183.503906 199.03125 186.222656 199.925781 188.660156 C 200.824219 191.09375 201.339844 193.261719 201.335938 194.792969 C 201.335938 195.390625 201.257812 195.886719 201.128906 196.257812 C 200.996094 196.632812 200.828125 196.878906 200.613281 197.070312 L 200.613281 197.066406 C 200.445312 197.214844 200.253906 197.320312 199.996094 197.402344 C 199.742188 197.484375 199.425781 197.53125 199.046875 197.53125 C 198.234375 197.535156 197.148438 197.308594 195.910156 196.855469 C 193.734375 196.070312 191.085938 194.628906 188.328125 192.847656 C 184.191406 190.171875 179.789062 186.738281 176.125 183.617188 C 174.292969 182.058594 172.644531 180.578125 171.300781 179.3125 C 169.957031 178.050781 168.914062 176.992188 168.328125 176.320312 L 167.421875 177.109375 L 166.511719 177.902344 C 167.550781 179.089844 169.507812 181 172.042969 183.257812 C 175.839844 186.640625 180.886719 190.761719 185.796875 194.0625 C 188.253906 195.714844 190.675781 197.160156 192.914062 198.210938 C 195.15625 199.257812 197.199219 199.933594 199.046875 199.941406 C 199.625 199.941406 200.1875 199.871094 200.722656 199.703125 C 201.257812 199.535156 201.765625 199.265625 202.195312 198.886719 L 202.199219 198.882812 C 202.769531 198.386719 203.167969 197.742188 203.40625 197.042969 C 203.648438 196.34375 203.742188 195.589844 203.746094 194.792969 C 203.738281 192.765625 203.132812 190.414062 202.1875 187.828125 C 201.238281 185.246094 199.933594 182.449219 198.464844 179.648438 C 198.335938 179.398438 198.132812 179.210938 197.875 179.101562 C 192.21875 176.660156 187.023438 174.234375 182.746094 172.105469 C 178.46875 169.980469 175.097656 168.136719 173.140625 166.894531 C 171.464844 165.835938 169.957031 164.609375 168.617188 163.257812 C 168.269531 162.90625 167.738281 162.804688 167.285156 163 C 166.542969 163.320312 165.9375 163.453125 165.5 163.449219 L 165.429688 163.449219 C 164.945312 163.449219 164.507812 163.738281 164.320312 164.1875 C 163.632812 165.8125 163.285156 167.550781 163.285156 169.296875 C 163.285156 172.347656 164.351562 175.421875 166.511719 177.902344 L 167.421875 177.109375" fill="inherit"/><path d="M 167.640625 173.890625 L 168.546875 173.097656 C 167.15625 171.5 166.480469 169.535156 166.476562 167.570312 C 166.476562 166.707031 166.609375 165.84375 166.871094 165.019531 L 165.722656 164.65625 L 165.800781 165.855469 C 166.601562 165.804688 167.402344 165.570312 168.238281 165.214844 L 167.761719 164.105469 L 166.90625 164.953125 C 168.371094 166.429688 170.015625 167.773438 171.851562 168.933594 C 173.652344 170.070312 176.421875 171.605469 179.917969 173.382812 C 183.414062 175.160156 187.628906 177.179688 192.28125 179.269531 L 192.773438 178.167969 L 191.691406 178.699219 C 192.621094 180.59375 193.414062 182.429688 193.964844 184.070312 C 194.519531 185.707031 194.824219 187.152344 194.820312 188.179688 C 194.820312 188.644531 194.757812 189.019531 194.664062 189.289062 C 194.570312 189.5625 194.457031 189.722656 194.316406 189.847656 C 194.207031 189.941406 194.082031 190.011719 193.902344 190.070312 C 193.722656 190.128906 193.488281 190.164062 193.199219 190.164062 C 192.585938 190.164062 191.730469 189.988281 190.746094 189.628906 C 189.011719 189.007812 186.882812 187.847656 184.664062 186.414062 C 181.332031 184.261719 177.78125 181.488281 174.824219 178.976562 C 173.347656 177.71875 172.015625 176.523438 170.933594 175.503906 C 169.851562 174.484375 169.011719 173.632812 168.546875 173.097656 L 167.640625 173.890625 L 166.730469 174.683594 C 167.582031 175.65625 169.167969 177.199219 171.222656 179.03125 C 174.296875 181.769531 178.382812 185.105469 182.363281 187.78125 C 184.355469 189.121094 186.320312 190.296875 188.148438 191.152344 C 189.976562 192.003906 191.648438 192.5625 193.199219 192.574219 C 193.6875 192.574219 194.164062 192.515625 194.625 192.367188 C 195.085938 192.226562 195.523438 191.992188 195.898438 191.664062 L 195.902344 191.660156 C 196.394531 191.230469 196.738281 190.671875 196.941406 190.074219 C 197.148438 189.480469 197.226562 188.84375 197.230469 188.179688 C 197.226562 186.71875 196.847656 185.085938 196.25 183.300781 C 195.648438 181.519531 194.816406 179.597656 193.855469 177.636719 C 193.730469 177.386719 193.519531 177.183594 193.265625 177.070312 C 188.648438 174.996094 184.464844 172.992188 181.011719 171.234375 C 177.558594 169.480469 174.824219 167.964844 173.140625 166.894531 C 171.464844 165.835938 169.957031 164.609375 168.617188 163.257812 C 168.269531 162.90625 167.738281 162.804688 167.285156 163 C 166.625 163.285156 166.066406 163.425781 165.644531 163.453125 C 165.152344 163.484375 164.722656 163.816406 164.574219 164.289062 C 164.234375 165.355469 164.066406 166.460938 164.066406 167.570312 C 164.066406 170.089844 164.945312 172.632812 166.730469 174.679688 L 167.640625 173.890625" fill="inherit"/><path d="M 167.890625 170.3125 L 168.796875 169.519531 C 167.824219 168.402344 167.351562 167.03125 167.351562 165.660156 C 167.351562 165.363281 167.371094 165.066406 167.417969 164.773438 L 166.226562 164.589844 L 166.433594 165.777344 C 167.035156 165.671875 167.628906 165.476562 168.238281 165.214844 L 167.761719 164.105469 L 166.90625 164.953125 C 168.371094 166.429688 170.015625 167.773438 171.851562 168.933594 L 171.851562 168.929688 C 174.722656 170.753906 180.101562 173.589844 186.90625 176.800781 L 187.421875 175.710938 L 186.308594 176.175781 C 186.710938 177.128906 187.035156 178.03125 187.253906 178.828125 C 187.472656 179.628906 187.582031 180.324219 187.582031 180.835938 C 187.582031 181.152344 187.539062 181.394531 187.484375 181.550781 C 187.429688 181.707031 187.375 181.773438 187.316406 181.828125 L 187.320312 181.824219 C 187.273438 181.863281 187.222656 181.894531 187.128906 181.925781 C 187.035156 181.953125 186.894531 181.980469 186.707031 181.980469 C 186.3125 181.980469 185.714844 181.863281 185.007812 181.605469 C 183.773438 181.160156 182.21875 180.316406 180.597656 179.269531 C 178.160156 177.695312 175.554688 175.660156 173.386719 173.8125 C 172.300781 172.890625 171.324219 172.015625 170.53125 171.269531 C 169.738281 170.523438 169.125 169.898438 168.796875 169.519531 L 167.890625 170.3125 L 166.980469 171.105469 C 167.625 171.839844 168.796875 172.980469 170.3125 174.335938 C 172.589844 176.359375 175.605469 178.820312 178.554688 180.804688 C 180.03125 181.796875 181.488281 182.671875 182.851562 183.3125 C 184.222656 183.949219 185.484375 184.378906 186.707031 184.386719 C 187.09375 184.386719 187.476562 184.34375 187.851562 184.222656 C 188.226562 184.105469 188.589844 183.914062 188.902344 183.640625 L 188.90625 183.640625 C 189.316406 183.28125 189.597656 182.816406 189.761719 182.335938 C 189.929688 181.851562 189.988281 181.351562 189.992188 180.835938 C 189.988281 180.003906 189.832031 179.128906 189.578125 178.191406 C 189.320312 177.257812 188.960938 176.269531 188.53125 175.242188 C 188.417969 174.96875 188.203125 174.746094 187.933594 174.617188 C 181.191406 171.441406 175.835938 168.609375 173.140625 166.894531 C 171.464844 165.835938 169.957031 164.609375 168.617188 163.257812 C 168.269531 162.90625 167.738281 162.804688 167.285156 163 C 166.800781 163.207031 166.375 163.339844 166.019531 163.402344 C 165.507812 163.492188 165.113281 163.894531 165.035156 164.40625 C 164.972656 164.820312 164.941406 165.242188 164.941406 165.660156 C 164.9375 167.589844 165.613281 169.535156 166.980469 171.101562 L 167.890625 170.3125" fill="inherit"/><path d="M 186.085938 144.382812 L 185.066406 143.738281 C 181.90625 148.726562 178.546875 153.085938 175.421875 156.421875 C 172.304688 159.761719 169.378906 162.074219 167.296875 162.96875 C 166.929688 163.128906 166.667969 163.457031 166.59375 163.847656 C 166.519531 164.238281 166.640625 164.640625 166.921875 164.925781 C 168.390625 166.402344 170.039062 167.738281 171.867188 168.902344 C 174.511719 170.578125 179.265625 173.105469 185.308594 176 C 194.367188 180.332031 206.273438 185.453125 217.988281 189.5 C 223.847656 191.523438 229.65625 193.277344 235.042969 194.53125 C 240.433594 195.78125 245.398438 196.535156 249.613281 196.539062 C 252.25 196.535156 254.597656 196.242188 256.589844 195.546875 C 258.574219 194.851562 260.230469 193.71875 261.28125 192.058594 C 262.128906 190.726562 262.507812 189.175781 262.503906 187.542969 C 262.5 185.066406 261.679688 182.363281 260.296875 179.460938 C 257.875 174.382812 253.6875 168.660156 248.601562 162.769531 C 240.972656 153.941406 231.324219 144.761719 222.609375 137.164062 C 218.25 133.363281 214.128906 129.964844 210.605469 127.203125 C 207.082031 124.4375 204.171875 122.320312 202.195312 121.066406 L 202.191406 121.066406 C 200.359375 119.910156 198.445312 118.992188 196.484375 118.296875 C 196.109375 118.160156 195.695312 118.222656 195.371094 118.457031 C 195.050781 118.691406 194.867188 119.066406 194.878906 119.464844 C 194.878906 119.558594 194.882812 119.652344 194.882812 119.746094 C 194.890625 122.078125 194.003906 125.683594 192.316406 129.863281 C 190.632812 134.054688 188.164062 138.851562 185.066406 143.738281 L 186.085938 144.382812 L 187.101562 145.027344 C 190.269531 140.027344 192.800781 135.117188 194.554688 130.765625 C 196.300781 126.402344 197.28125 122.632812 197.289062 119.746094 C 197.289062 119.628906 197.289062 119.511719 197.285156 119.394531 L 196.082031 119.429688 L 195.679688 120.566406 C 197.476562 121.203125 199.226562 122.042969 200.90625 123.105469 L 200.902344 123.101562 C 203.734375 124.894531 208.921875 128.800781 215.042969 133.886719 C 224.230469 141.519531 235.570312 151.839844 244.578125 161.851562 C 249.078125 166.855469 252.996094 171.785156 255.761719 176.234375 C 258.539062 180.675781 260.109375 184.652344 260.09375 187.542969 C 260.089844 188.820312 259.8125 189.871094 259.246094 190.765625 C 258.542969 191.871094 257.421875 192.695312 255.792969 193.273438 C 254.171875 193.84375 252.070312 194.128906 249.613281 194.128906 C 244.378906 194.132812 237.558594 192.847656 230.171875 190.796875 C 219.089844 187.722656 206.714844 182.9375 196.171875 178.320312 C 190.898438 176.011719 186.082031 173.742188 182.113281 171.753906 C 178.144531 169.765625 175.015625 168.046875 173.160156 166.867188 C 171.484375 165.804688 169.976562 164.578125 168.632812 163.226562 L 167.777344 164.074219 L 168.257812 165.179688 C 170.890625 164.023438 173.917969 161.539062 177.179688 158.070312 C 180.429688 154.597656 183.867188 150.132812 187.101562 145.027344 L 186.085938 144.382812" fill="inherit"/><path d="M 186.085938 144.382812 L 185.066406 143.738281 C 180.414062 151.078125 175.320312 157.058594 171.207031 160.425781 C 170.902344 160.675781 170.742188 161.058594 170.769531 161.449219 C 170.800781 161.84375 171.019531 162.195312 171.359375 162.394531 C 173.90625 163.894531 177.945312 165.980469 182.859375 168.285156 C 190.230469 171.746094 199.5625 175.683594 208.667969 178.765625 C 213.21875 180.308594 217.714844 181.636719 221.890625 182.582031 C 226.066406 183.527344 229.917969 184.097656 233.222656 184.097656 C 235.371094 184.097656 237.292969 183.859375 238.9375 183.285156 C 240.574219 182.710938 241.964844 181.765625 242.847656 180.371094 C 243.558594 179.253906 243.871094 177.953125 243.867188 176.601562 C 243.863281 174.613281 243.230469 172.480469 242.175781 170.203125 C 240.320312 166.222656 237.121094 161.773438 233.214844 157.175781 C 227.359375 150.285156 219.902344 143.085938 212.996094 136.984375 C 206.089844 130.878906 199.757812 125.882812 196.089844 123.382812 C 195.765625 123.160156 195.351562 123.113281 194.984375 123.253906 C 194.613281 123.394531 194.339844 123.703125 194.242188 124.085938 C 192.953125 129.246094 189.722656 136.402344 185.066406 143.738281 L 186.085938 144.382812 L 187.101562 145.027344 C 191.863281 137.515625 195.183594 130.214844 196.582031 124.671875 L 195.410156 124.378906 L 194.734375 125.375 C 197.410156 127.199219 201.71875 130.523438 206.636719 134.671875 C 214.015625 140.898438 222.796875 149.007812 229.695312 156.796875 C 233.144531 160.691406 236.121094 164.507812 238.210938 167.9375 C 240.308594 171.363281 241.476562 174.417969 241.460938 176.601562 C 241.457031 177.597656 241.242188 178.398438 240.8125 179.078125 C 240.277344 179.917969 239.421875 180.554688 238.136719 181.011719 C 236.863281 181.460938 235.1875 181.6875 233.222656 181.6875 C 229.1875 181.691406 223.941406 180.734375 218.25 179.1875 C 209.703125 176.871094 200.117188 173.238281 191.757812 169.640625 C 183.398438 166.046875 176.238281 162.472656 172.585938 160.320312 L 171.972656 161.355469 L 172.734375 162.289062 C 177.152344 158.664062 182.332031 152.542969 187.101562 145.027344 L 186.085938 144.382812" fill="inherit"/><path d="M 186.085938 144.382812 L 185.066406 143.738281 C 182.050781 148.5 178.851562 152.679688 175.851562 155.957031 C 175.59375 156.238281 175.484375 156.621094 175.558594 156.996094 C 175.628906 157.375 175.871094 157.6875 176.21875 157.855469 C 181.605469 160.449219 188.757812 163.539062 195.820312 165.992188 C 199.355469 167.21875 202.863281 168.28125 206.128906 169.046875 C 209.394531 169.808594 212.410156 170.273438 215 170.277344 C 216.609375 170.273438 218.054688 170.097656 219.316406 169.660156 C 220.570312 169.222656 221.664062 168.484375 222.359375 167.382812 C 222.921875 166.503906 223.164062 165.480469 223.164062 164.4375 C 223.160156 163.1875 222.835938 161.890625 222.292969 160.53125 C 221.339844 158.15625 219.695312 155.578125 217.625 152.871094 C 211.414062 144.773438 201.285156 135.582031 194.058594 129.714844 C 193.761719 129.472656 193.371094 129.386719 193 129.480469 C 192.628906 129.578125 192.328125 129.839844 192.183594 130.191406 C 190.5 134.304688 188.082031 138.980469 185.066406 143.738281 L 186.085938 144.382812 L 187.101562 145.027344 C 190.1875 140.15625 192.667969 135.371094 194.414062 131.105469 L 193.300781 130.648438 L 192.539062 131.585938 C 197.96875 135.988281 205.105469 142.351562 210.84375 148.59375 C 213.710938 151.710938 216.230469 154.804688 218.003906 157.574219 C 218.890625 158.960938 219.589844 160.261719 220.054688 161.429688 C 220.523438 162.59375 220.753906 163.621094 220.753906 164.4375 C 220.75 165.125 220.605469 165.648438 220.324219 166.09375 C 219.976562 166.636719 219.414062 167.066406 218.519531 167.386719 C 217.628906 167.699219 216.425781 167.867188 215 167.867188 C 212.699219 167.867188 209.828125 167.4375 206.675781 166.699219 C 197.207031 164.488281 185.226562 159.523438 177.261719 155.683594 L 176.738281 156.769531 L 177.628906 157.585938 C 180.742188 154.1875 184.011719 149.898438 187.101562 145.027344 L 186.085938 144.382812" fill="inherit"/><path d="M 88.796875 41.820312 L 89.4375 40.800781 C 89.3125 40.726562 89.257812 40.707031 89.203125 40.683594 C 89.101562 40.644531 89.035156 40.625 88.949219 40.601562 C 88.640625 40.511719 88.15625 40.402344 87.453125 40.261719 C 82.585938 39.277344 67.617188 36.878906 51.621094 36.875 C 50.214844 36.875 48.796875 36.890625 47.378906 36.933594 C 38.777344 37.183594 33.925781 38.058594 30.929688 39.210938 C 29.433594 39.785156 28.394531 40.445312 27.644531 41.128906 C 26.898438 41.8125 26.460938 42.507812 26.148438 43 C 25.871094 43.4375 25.492188 44.03125 25.203125 44.832031 C 24.910156 45.636719 24.714844 46.636719 24.71875 47.902344 C 24.726562 51.097656 25.878906 56.003906 29.71875 64.792969 C 33.875 74.285156 39.023438 83.214844 43.199219 89.820312 C 45.285156 93.121094 47.132812 95.84375 48.492188 97.769531 C 49.171875 98.730469 49.730469 99.492188 50.144531 100.03125 C 50.351562 100.300781 50.519531 100.515625 50.65625 100.679688 L 50.84375 100.898438 L 50.949219 101.007812 C 50.996094 101.050781 51.035156 101.09375 51.167969 101.179688 C 51.863281 101.621094 52.675781 101.820312 53.496094 101.816406 C 55.210938 101.804688 57.011719 101.058594 58.988281 99.828125 C 61.945312 97.96875 65.296875 94.925781 68.804688 90.980469 C 72.308594 87.039062 75.949219 82.199219 79.402344 76.757812 C 83.230469 70.71875 86.285156 64.785156 88.398438 59.53125 C 90.503906 54.273438 91.683594 49.726562 91.691406 46.296875 C 91.691406 45.101562 91.546875 44.03125 91.203125 43.089844 C 90.859375 42.15625 90.277344 41.332031 89.441406 40.804688 L 89.4375 40.800781 L 88.796875 41.820312 L 88.152344 42.839844 C 88.460938 43.035156 88.726562 43.355469 88.941406 43.929688 C 89.152344 44.496094 89.28125 45.300781 89.28125 46.296875 C 89.289062 49.171875 88.210938 53.554688 86.160156 58.632812 C 84.117188 63.722656 81.121094 69.542969 77.367188 75.46875 C 72.851562 82.585938 68.003906 88.648438 63.671875 92.894531 C 61.507812 95.015625 59.472656 96.679688 57.707031 97.785156 C 55.945312 98.902344 54.445312 99.421875 53.496094 99.40625 C 53.039062 99.40625 52.722656 99.308594 52.457031 99.144531 L 51.929688 99.976562 L 52.609375 99.261719 C 52.59375 99.246094 52.574219 99.222656 52.457031 99.144531 L 51.929688 99.976562 L 52.609375 99.261719 L 52.332031 99.554688 L 52.621094 99.273438 L 52.609375 99.261719 L 52.332031 99.554688 L 52.621094 99.273438 C 52.617188 99.273438 52.515625 99.152344 52.386719 98.988281 C 51.875 98.347656 50.789062 96.878906 49.355469 94.792969 C 45.050781 88.53125 37.539062 76.648438 31.925781 63.828125 C 28.140625 55.1875 27.117188 50.488281 27.128906 47.902344 C 27.128906 46.875 27.277344 46.183594 27.46875 45.652344 C 27.664062 45.117188 27.90625 44.730469 28.183594 44.289062 C 28.496094 43.796875 28.773438 43.367188 29.273438 42.90625 C 30.019531 42.226562 31.339844 41.425781 34.125 40.742188 C 36.90625 40.0625 41.105469 39.523438 47.449219 39.34375 C 48.839844 39.300781 50.234375 39.285156 51.621094 39.285156 C 61.058594 39.285156 70.1875 40.140625 77.007812 41.03125 C 80.414062 41.476562 83.246094 41.933594 85.246094 42.296875 C 86.246094 42.476562 87.039062 42.632812 87.585938 42.75 C 87.859375 42.808594 88.070312 42.859375 88.207031 42.894531 L 88.335938 42.933594 L 88.339844 42.933594 L 88.535156 42.367188 L 88.300781 42.917969 L 88.339844 42.933594 L 88.535156 42.367188 L 88.300781 42.917969 L 88.703125 41.96875 L 88.15625 42.839844 L 88.300781 42.917969 L 88.703125 41.96875 L 88.15625 42.839844 L 88.152344 42.839844 L 88.796875 41.820312" fill="inherit"/><path d="M 178.953125 139.863281 L 177.9375 139.21875 C 174.210938 145.089844 170.210938 150.089844 166.648438 153.582031 C 164.867188 155.324219 163.195312 156.691406 161.753906 157.597656 C 160.316406 158.507812 159.101562 158.917969 158.390625 158.90625 C 158.179688 158.90625 158.007812 158.875 157.871094 158.828125 C 157.292969 158.636719 156.664062 158.902344 156.398438 159.453125 C 156.136719 160.003906 156.328125 160.660156 156.84375 160.988281 L 163.058594 164.929688 L 163.703125 163.914062 L 162.835938 164.75 C 163.019531 164.9375 163.230469 165.117188 163.476562 165.277344 L 163.480469 165.28125 C 164.09375 165.667969 164.808594 165.839844 165.515625 165.839844 C 166.996094 165.824219 168.511719 165.1875 170.164062 164.160156 C 172.632812 162.605469 175.414062 160.082031 178.324219 156.8125 C 181.226562 153.546875 184.242188 149.535156 187.101562 145.027344 C 190.269531 140.027344 192.804688 135.117188 194.554688 130.765625 C 196.300781 126.402344 197.285156 122.632812 197.292969 119.746094 C 197.292969 118.742188 197.175781 117.835938 196.875 117.023438 C 196.578125 116.21875 196.070312 115.492188 195.335938 115.027344 L 188.664062 110.796875 C 188.117188 110.453125 187.398438 110.59375 187.03125 111.121094 L 186.992188 111.179688 C 186.660156 111.648438 186.710938 112.289062 187.109375 112.703125 C 187.269531 112.871094 187.433594 113.144531 187.554688 113.566406 C 187.675781 113.984375 187.746094 114.546875 187.746094 115.222656 C 187.757812 117.550781 186.871094 121.15625 185.183594 125.339844 C 183.5 129.53125 181.03125 134.332031 177.933594 139.21875 L 179.972656 140.507812 C 183.136719 135.507812 185.667969 130.59375 187.417969 126.238281 C 189.164062 121.875 190.148438 118.105469 190.15625 115.222656 C 190.15625 114.378906 190.070312 113.609375 189.871094 112.902344 C 189.671875 112.199219 189.34375 111.554688 188.847656 111.035156 L 187.980469 111.871094 L 188.964844 112.5625 L 189.003906 112.507812 L 188.019531 111.8125 L 187.371094 112.832031 L 194.042969 117.0625 C 194.257812 117.199219 194.449219 117.417969 194.617188 117.863281 C 194.777344 118.300781 194.886719 118.941406 194.882812 119.746094 C 194.894531 122.078125 194.007812 125.683594 192.316406 129.863281 C 190.632812 134.054688 188.164062 138.851562 185.066406 143.738281 C 181.34375 149.613281 177.34375 154.613281 173.777344 158.105469 C 171.996094 159.851562 170.324219 161.214844 168.882812 162.121094 C 167.445312 163.03125 166.230469 163.441406 165.515625 163.429688 C 165.167969 163.425781 164.949219 163.355469 164.769531 163.242188 L 164.773438 163.246094 L 164.574219 163.078125 L 164.351562 162.894531 L 158.132812 158.953125 L 157.488281 159.972656 L 157.105469 161.113281 C 157.519531 161.253906 157.949219 161.3125 158.390625 161.3125 C 159.871094 161.300781 161.382812 160.664062 163.035156 159.636719 C 165.503906 158.082031 168.285156 155.558594 171.191406 152.289062 C 174.097656 149.023438 177.113281 145.015625 179.96875 140.507812 L 178.953125 139.863281" fill="inherit"/><path d="M 178.769531 117.644531 L 179.769531 116.976562 C 179.742188 116.941406 168.96875 100.75 154.972656 87.0625 L 154.128906 87.925781 L 154.648438 89.011719 L 154.65625 89.007812 C 154.808594 88.9375 158.433594 87.242188 164.570312 86.066406 C 165.011719 85.980469 165.371094 85.65625 165.5 85.226562 C 165.625 84.796875 165.503906 84.324219 165.179688 84.015625 C 126.53125 46.902344 89.144531 40.65625 88.992188 40.632812 C 88.425781 40.539062 87.875 40.855469 87.671875 41.390625 C 87.464844 41.929688 87.664062 42.53125 88.152344 42.839844 C 88.460938 43.039062 88.726562 43.355469 88.941406 43.929688 C 89.15625 44.496094 89.285156 45.300781 89.28125 46.292969 C 89.289062 49.171875 88.210938 53.550781 86.160156 58.632812 C 84.117188 63.722656 81.121094 69.542969 77.367188 75.46875 C 72.851562 82.585938 68.003906 88.648438 63.671875 92.894531 C 61.507812 95.011719 59.472656 96.679688 57.707031 97.785156 C 55.945312 98.902344 54.445312 99.421875 53.496094 99.40625 C 53.039062 99.40625 52.71875 99.308594 52.457031 99.144531 C 51.972656 98.839844 51.339844 98.914062 50.941406 99.328125 C 50.546875 99.738281 50.496094 100.378906 50.820312 100.847656 C 50.910156 100.972656 72.507812 132.121094 122.5625 151.238281 C 122.984375 151.398438 123.460938 151.3125 123.796875 151.011719 C 124.132812 150.710938 124.273438 150.246094 124.160156 149.8125 C 122.609375 143.765625 122.589844 139.765625 122.589844 139.574219 L 121.386719 139.574219 L 120.964844 140.703125 C 139.316406 147.523438 158.558594 150.363281 158.601562 150.371094 L 158.777344 149.179688 L 157.636719 148.800781 C 156.449219 152.375 155.867188 156.089844 155.714844 159.804688 C 155.691406 160.390625 156.09375 160.910156 156.667969 161.03125 C 156.859375 161.074219 157.054688 161.113281 157.253906 161.152344 L 157.488281 159.972656 L 157.105469 161.113281 C 157.519531 161.253906 157.949219 161.3125 158.386719 161.3125 C 159.867188 161.300781 161.378906 160.664062 163.03125 159.636719 C 165.5 158.082031 168.28125 155.558594 171.191406 152.289062 C 174.09375 149.023438 177.109375 145.015625 179.96875 140.507812 C 183.140625 135.507812 185.671875 130.59375 187.421875 126.238281 C 189.167969 121.875 190.148438 118.105469 190.15625 115.21875 C 190.15625 114.378906 190.070312 113.605469 189.871094 112.902344 C 189.671875 112.199219 189.34375 111.554688 188.847656 111.035156 L 187.980469 111.871094 L 188.945312 111.148438 C 188.8125 110.976562 188.699219 110.828125 188.601562 110.699219 C 188.25 110.214844 187.597656 110.0625 187.070312 110.339844 C 183.78125 112.0625 180.671875 114.175781 177.9375 116.769531 L 178.769531 117.644531 L 179.769531 116.976562 L 178.769531 117.644531 L 179.597656 118.519531 C 182.140625 116.101562 185.0625 114.109375 188.1875 112.476562 L 187.628906 111.40625 L 186.65625 112.117188 C 186.789062 112.300781 186.910156 112.453125 187.011719 112.589844 L 187.109375 112.707031 C 187.269531 112.871094 187.433594 113.144531 187.554688 113.566406 C 187.675781 113.984375 187.75 114.546875 187.746094 115.21875 C 187.757812 117.550781 186.871094 121.15625 185.183594 125.339844 C 183.5 129.53125 181.03125 134.332031 177.933594 139.21875 C 174.210938 145.089844 170.210938 150.089844 166.644531 153.582031 C 164.863281 155.324219 163.191406 156.691406 161.75 157.597656 C 160.3125 158.507812 159.097656 158.917969 158.386719 158.902344 C 158.175781 158.902344 158.007812 158.875 157.871094 158.828125 L 157.722656 158.789062 C 157.539062 158.753906 157.359375 158.714844 157.171875 158.675781 L 156.921875 159.855469 L 158.125 159.902344 C 158.269531 156.375 158.820312 152.886719 159.921875 149.558594 C 160.035156 149.21875 159.992188 148.851562 159.804688 148.546875 C 159.617188 148.242188 159.308594 148.039062 158.953125 147.984375 C 158.953125 147.984375 158.886719 147.976562 158.742188 147.953125 C 156.613281 147.625 138.726562 144.738281 121.804688 138.445312 C 121.433594 138.304688 121.019531 138.359375 120.695312 138.582031 C 120.371094 138.808594 120.179688 139.179688 120.179688 139.574219 C 120.179688 139.921875 120.210938 144.121094 121.828125 150.410156 L 122.992188 150.113281 L 123.425781 148.984375 C 98.699219 139.546875 81.027344 127.140625 69.539062 117.105469 C 63.796875 112.089844 59.601562 107.664062 56.847656 104.503906 C 55.46875 102.921875 54.453125 101.65625 53.785156 100.792969 C 53.449219 100.359375 53.199219 100.027344 53.039062 99.804688 C 52.957031 99.691406 52.894531 99.609375 52.855469 99.554688 L 52.816406 99.492188 L 52.800781 99.476562 L 51.8125 100.160156 L 51.167969 101.179688 C 51.863281 101.621094 52.675781 101.820312 53.496094 101.816406 C 55.210938 101.804688 57.011719 101.058594 58.988281 99.824219 C 61.945312 97.96875 65.300781 94.925781 68.804688 90.980469 C 72.308594 87.039062 75.949219 82.199219 79.402344 76.757812 C 83.226562 70.71875 86.285156 64.785156 88.398438 59.53125 C 90.503906 54.273438 91.683594 49.726562 91.691406 46.292969 C 91.691406 45.101562 91.546875 44.03125 91.203125 43.089844 C 90.859375 42.15625 90.28125 41.332031 89.441406 40.804688 L 88.796875 41.820312 L 88.597656 43.011719 L 88.691406 43.027344 C 90.753906 43.394531 126.53125 50.238281 163.507812 85.753906 L 164.34375 84.882812 L 164.117188 83.699219 C 157.527344 84.964844 153.679688 86.804688 153.605469 86.839844 C 153.25 87.007812 153.003906 87.339844 152.9375 87.730469 C 152.875 88.117188 153.003906 88.511719 153.285156 88.785156 C 160.171875 95.515625 166.300781 102.90625 170.703125 108.609375 C 172.902344 111.460938 174.671875 113.894531 175.886719 115.605469 C 176.496094 116.464844 176.96875 117.144531 177.285156 117.605469 C 177.441406 117.839844 177.5625 118.015625 177.644531 118.136719 C 177.726562 118.253906 177.765625 118.3125 177.765625 118.3125 C 177.960938 118.609375 178.277344 118.804688 178.632812 118.84375 C 178.988281 118.882812 179.339844 118.765625 179.597656 118.519531 L 178.769531 117.644531" fill="inherit"/><path d="M 178.953125 139.863281 L 177.9375 139.21875 C 174.210938 145.089844 170.210938 150.089844 166.648438 153.582031 C 164.867188 155.324219 163.195312 156.691406 161.753906 157.597656 C 160.316406 158.507812 159.101562 158.917969 158.390625 158.90625 C 158.179688 158.90625 158.007812 158.875 157.871094 158.828125 C 157.292969 158.636719 156.664062 158.902344 156.398438 159.453125 C 156.136719 160.003906 156.328125 160.660156 156.84375 160.988281 L 163.058594 164.929688 L 163.703125 163.914062 L 162.835938 164.75 C 163.019531 164.9375 163.230469 165.117188 163.476562 165.277344 L 163.480469 165.28125 C 164.09375 165.667969 164.808594 165.839844 165.515625 165.839844 C 166.996094 165.824219 168.511719 165.1875 170.164062 164.160156 C 172.632812 162.605469 175.414062 160.082031 178.324219 156.8125 C 181.226562 153.546875 184.242188 149.535156 187.101562 145.027344 C 190.269531 140.027344 192.804688 135.117188 194.554688 130.765625 C 196.300781 126.402344 197.285156 122.632812 197.292969 119.746094 C 197.292969 118.742188 197.175781 117.835938 196.875 117.023438 C 196.578125 116.21875 196.070312 115.492188 195.335938 115.027344 L 188.664062 110.796875 C 188.117188 110.453125 187.398438 110.59375 187.03125 111.121094 L 186.992188 111.179688 C 186.660156 111.648438 186.710938 112.289062 187.109375 112.703125 C 187.269531 112.871094 187.433594 113.144531 187.554688 113.566406 C 187.675781 113.984375 187.746094 114.546875 187.746094 115.222656 C 187.757812 117.550781 186.871094 121.15625 185.183594 125.339844 C 183.5 129.53125 181.03125 134.332031 177.933594 139.21875 L 179.972656 140.507812 C 183.136719 135.507812 185.667969 130.59375 187.417969 126.238281 C 189.164062 121.875 190.148438 118.105469 190.15625 115.222656 C 190.15625 114.378906 190.070312 113.609375 189.871094 112.902344 C 189.671875 112.199219 189.34375 111.554688 188.847656 111.035156 L 187.980469 111.871094 L 188.964844 112.5625 L 189.003906 112.507812 L 188.019531 111.8125 L 187.371094 112.832031 L 194.042969 117.0625 C 194.257812 117.199219 194.449219 117.417969 194.617188 117.863281 C 194.777344 118.300781 194.886719 118.941406 194.882812 119.746094 C 194.894531 122.078125 194.007812 125.683594 192.316406 129.863281 C 190.632812 134.054688 188.164062 138.851562 185.066406 143.738281 C 181.34375 149.613281 177.34375 154.613281 173.777344 158.105469 C 171.996094 159.851562 170.324219 161.214844 168.882812 162.121094 C 167.445312 163.03125 166.230469 163.441406 165.515625 163.429688 C 165.167969 163.425781 164.949219 163.355469 164.769531 163.242188 L 164.773438 163.246094 L 164.574219 163.078125 L 164.351562 162.894531 L 158.132812 158.953125 L 157.488281 159.972656 L 157.105469 161.113281 C 157.519531 161.253906 157.949219 161.3125 158.390625 161.3125 C 159.871094 161.300781 161.382812 160.664062 163.035156 159.636719 C 165.503906 158.082031 168.285156 155.558594 171.191406 152.289062 C 174.097656 149.023438 177.113281 145.015625 179.96875 140.507812 L 178.953125 139.863281" fill="inherit"/><path d="M 125.695312 70.21875 L 125.050781 71.234375 C 133.796875 76.777344 138.574219 86.203125 138.574219 95.84375 C 138.574219 101.171875 137.113281 106.558594 134.046875 111.398438 C 128.507812 120.144531 119.082031 124.921875 109.441406 124.925781 C 104.109375 124.925781 98.722656 123.464844 93.886719 120.398438 C 85.140625 114.855469 80.359375 105.429688 80.359375 95.789062 C 80.359375 90.460938 81.820312 85.070312 84.886719 80.234375 C 90.429688 71.488281 99.855469 66.710938 109.496094 66.710938 C 114.824219 66.710938 120.210938 68.167969 125.050781 71.234375 L 125.695312 70.21875 L 126.339844 69.199219 C 121.109375 65.882812 115.265625 64.296875 109.496094 64.300781 C 99.0625 64.296875 88.851562 69.480469 82.851562 78.945312 C 79.535156 84.175781 77.949219 90.019531 77.949219 95.789062 C 77.949219 106.21875 83.128906 116.433594 92.59375 122.433594 C 97.824219 125.75 103.671875 127.335938 109.441406 127.335938 C 119.871094 127.335938 130.085938 122.15625 136.085938 112.691406 C 139.398438 107.457031 140.984375 101.613281 140.984375 95.84375 C 140.988281 85.410156 135.804688 75.199219 126.339844 69.199219 L 125.695312 70.21875" fill="inherit"/><path d="M 121.863281 76.261719 L 121.21875 77.277344 C 127.8125 81.457031 131.421875 88.566406 131.421875 95.839844 C 131.421875 99.859375 130.320312 103.921875 128.007812 107.574219 C 123.828125 114.167969 116.722656 117.769531 109.445312 117.773438 C 105.425781 117.769531 101.363281 116.671875 97.714844 114.355469 C 91.117188 110.175781 87.515625 103.0625 87.511719 95.789062 C 87.511719 91.769531 88.609375 87.710938 90.921875 84.0625 C 95.105469 77.46875 102.214844 73.863281 109.488281 73.863281 C 113.507812 73.863281 117.566406 74.964844 121.21875 77.277344 L 121.863281 76.261719 L 122.507812 75.242188 C 118.464844 72.679688 113.945312 71.453125 109.488281 71.453125 C 101.425781 71.449219 93.527344 75.460938 88.890625 82.769531 C 86.324219 86.8125 85.101562 91.332031 85.101562 95.789062 C 85.101562 103.855469 89.109375 111.753906 96.421875 116.390625 C 100.464844 118.957031 104.984375 120.183594 109.445312 120.183594 C 117.511719 120.183594 125.40625 116.175781 130.042969 108.863281 C 132.605469 104.816406 133.832031 100.300781 133.832031 95.839844 C 133.832031 87.773438 129.824219 79.878906 122.507812 75.242188 L 121.863281 76.261719" fill="inherit"/><path d="M 93.042969 102.929688 L 94.320312 87.4375 C 94.375 86.777344 93.882812 86.195312 93.21875 86.140625 C 92.554688 86.085938 91.972656 86.578125 91.917969 87.242188 L 90.644531 102.730469 C 90.589844 103.394531 91.082031 103.976562 91.746094 104.03125 C 92.40625 104.085938 92.988281 103.589844 93.042969 102.929688" fill="inherit"/><path d="M 96.675781 109.625 L 99.023438 81.074219 C 99.078125 80.410156 98.585938 79.828125 97.921875 79.773438 C 97.257812 79.71875 96.675781 80.210938 96.621094 80.875 L 94.277344 109.425781 C 94.21875 110.089844 94.714844 110.671875 95.378906 110.726562 C 96.039062 110.78125 96.621094 110.289062 96.675781 109.625" fill="inherit"/><path d="M 101.359375 113.136719 L 104.195312 78.597656 C 104.25 77.9375 103.757812 77.355469 103.09375 77.300781 C 102.429688 77.246094 101.847656 77.738281 101.792969 78.402344 L 98.957031 112.9375 C 98.902344 113.601562 99.394531 114.183594 100.058594 114.238281 C 100.722656 114.292969 101.304688 113.800781 101.359375 113.136719" fill="inherit"/><path d="M 88.160156 79.480469 L 87.515625 80.496094 C 87.871094 80.722656 88.0625 81.101562 88.0625 81.496094 C 88.0625 81.714844 88.007812 81.929688 87.878906 82.136719 L 87.882812 82.128906 C 87.65625 82.488281 87.273438 82.679688 86.875 82.679688 C 86.65625 82.679688 86.441406 82.621094 86.246094 82.496094 L 86.246094 82.5 C 85.886719 82.269531 85.691406 81.886719 85.691406 81.488281 C 85.691406 81.269531 85.746094 81.058594 85.871094 80.863281 L 85.875 80.863281 C 86.101562 80.503906 86.484375 80.3125 86.878906 80.3125 C 87.097656 80.3125 87.3125 80.367188 87.511719 80.496094 L 87.515625 80.496094 L 88.160156 79.480469 L 88.808594 78.464844 C 88.210938 78.082031 87.535156 77.898438 86.878906 77.902344 C 85.695312 77.898438 84.527344 78.492188 83.839844 79.566406 L 83.84375 79.566406 C 83.460938 80.160156 83.28125 80.835938 83.28125 81.488281 C 83.28125 82.679688 83.878906 83.847656 84.957031 84.535156 C 85.546875 84.910156 86.21875 85.089844 86.875 85.089844 C 88.058594 85.09375 89.230469 84.5 89.914062 83.421875 L 89.917969 83.417969 C 90.292969 82.824219 90.472656 82.15625 90.472656 81.496094 C 90.476562 80.3125 89.882812 79.144531 88.804688 78.460938 L 88.808594 78.464844 L 88.160156 79.480469" fill="inherit"/><path d="M 87.183594 83.273438 L 88.617188 81.007812 C 88.972656 80.445312 88.804688 79.703125 88.242188 79.347656 C 87.679688 78.988281 86.933594 79.15625 86.578125 79.71875 L 85.144531 81.984375 C 84.789062 82.546875 84.957031 83.289062 85.519531 83.648438 C 86.082031 84.003906 86.828125 83.835938 87.183594 83.273438" fill="inherit"/><path d="M 85.097656 81.796875 L 87.367188 83.234375 C 87.925781 83.589844 88.671875 83.425781 89.027344 82.863281 C 89.386719 82.300781 89.21875 81.554688 88.65625 81.199219 L 86.390625 79.761719 C 85.828125 79.402344 85.082031 79.570312 84.726562 80.132812 C 84.371094 80.695312 84.535156 81.4375 85.097656 81.796875" fill="inherit"/><path d="M 133.335938 108.117188 L 132.691406 109.136719 C 133.046875 109.363281 133.238281 109.742188 133.238281 110.140625 C 133.238281 110.355469 133.183594 110.570312 133.054688 110.773438 L 133.058594 110.769531 C 132.828125 111.128906 132.449219 111.320312 132.050781 111.324219 C 131.835938 111.320312 131.621094 111.265625 131.421875 111.140625 C 131.066406 110.914062 130.875 110.535156 130.871094 110.136719 C 130.871094 109.917969 130.929688 109.707031 131.054688 109.511719 L 131.058594 109.503906 C 131.285156 109.144531 131.667969 108.953125 132.058594 108.949219 C 132.277344 108.953125 132.488281 109.007812 132.6875 109.136719 L 132.691406 109.136719 L 133.335938 108.117188 L 133.984375 107.101562 C 133.390625 106.722656 132.714844 106.539062 132.058594 106.539062 C 130.871094 106.539062 129.703125 107.136719 129.019531 108.21875 L 129.027344 108.207031 C 128.644531 108.804688 128.460938 109.480469 128.460938 110.136719 C 128.460938 111.324219 129.054688 112.492188 130.132812 113.175781 C 130.722656 113.550781 131.394531 113.734375 132.050781 113.730469 C 133.238281 113.734375 134.40625 113.140625 135.089844 112.0625 L 135.09375 112.058594 C 135.46875 111.464844 135.648438 110.796875 135.648438 110.140625 C 135.652344 108.953125 135.058594 107.785156 133.980469 107.101562 L 133.984375 107.101562 L 133.335938 108.117188" fill="inherit"/><path d="M 132.359375 111.914062 L 133.792969 109.644531 C 134.148438 109.082031 133.980469 108.339844 133.417969 107.984375 C 132.855469 107.628906 132.109375 107.796875 131.753906 108.359375 L 130.320312 110.625 C 129.964844 111.1875 130.132812 111.933594 130.695312 112.289062 C 131.257812 112.644531 132.003906 112.476562 132.359375 111.914062" fill="inherit"/><path d="M 130.28125 110.4375 L 132.542969 111.875 C 133.105469 112.230469 133.847656 112.0625 134.203125 111.503906 C 134.5625 110.941406 134.394531 110.195312 133.832031 109.839844 L 131.570312 108.402344 C 131.007812 108.046875 130.265625 108.214844 129.90625 108.773438 C 129.550781 109.335938 129.71875 110.082031 130.28125 110.4375" fill="inherit"/><path d="M 125.808594 74.507812 L 124.789062 73.863281 C 124.5625 74.21875 124.183594 74.410156 123.785156 74.414062 C 123.566406 74.410156 123.355469 74.355469 123.160156 74.230469 L 123.15625 74.226562 C 122.796875 74 122.605469 73.617188 122.601562 73.222656 C 122.601562 73.003906 122.660156 72.789062 122.78125 72.597656 L 122.785156 72.59375 C 123.011719 72.234375 123.390625 72.046875 123.789062 72.042969 C 124.007812 72.042969 124.222656 72.101562 124.425781 72.226562 C 124.78125 72.453125 124.972656 72.832031 124.972656 73.230469 C 124.972656 73.445312 124.914062 73.660156 124.785156 73.867188 L 125.808594 74.507812 L 126.824219 75.152344 C 127.199219 74.558594 127.382812 73.886719 127.382812 73.230469 C 127.386719 72.042969 126.792969 70.875 125.714844 70.191406 C 125.117188 69.8125 124.445312 69.632812 123.789062 69.632812 C 122.601562 69.632812 121.433594 70.226562 120.75 71.300781 L 120.753906 71.300781 C 120.371094 71.894531 120.191406 72.566406 120.191406 73.222656 C 120.191406 74.410156 120.789062 75.578125 121.867188 76.265625 L 121.863281 76.261719 C 122.457031 76.640625 123.128906 76.824219 123.785156 76.824219 C 124.972656 76.824219 126.140625 76.234375 126.824219 75.152344 L 125.808594 74.507812" fill="inherit"/><path d="M 122.007812 73.527344 L 124.277344 74.960938 C 124.839844 75.316406 125.585938 75.152344 125.941406 74.589844 C 126.296875 74.027344 126.128906 73.28125 125.566406 72.925781 L 123.300781 71.488281 C 122.734375 71.132812 121.992188 71.300781 121.636719 71.863281 C 121.28125 72.425781 121.445312 73.171875 122.007812 73.527344" fill="inherit"/><path d="M 123.492188 71.449219 L 122.050781 73.710938 C 121.695312 74.273438 121.859375 75.019531 122.421875 75.375 C 122.984375 75.730469 123.726562 75.566406 124.085938 75.003906 L 125.523438 72.742188 C 125.882812 72.179688 125.714844 71.433594 125.152344 71.078125 C 124.59375 70.722656 123.847656 70.886719 123.492188 71.449219" fill="inherit"/><path d="M 97.167969 119.6875 L 96.15625 119.035156 C 95.925781 119.394531 95.539062 119.589844 95.144531 119.589844 C 94.925781 119.589844 94.710938 119.53125 94.511719 119.40625 C 94.152344 119.179688 93.960938 118.800781 93.960938 118.402344 C 93.960938 118.183594 94.019531 117.972656 94.144531 117.773438 L 94.144531 117.769531 C 94.371094 117.414062 94.75 117.222656 95.148438 117.222656 C 95.367188 117.222656 95.578125 117.277344 95.78125 117.40625 C 96.140625 117.632812 96.332031 118.015625 96.335938 118.410156 C 96.332031 118.628906 96.277344 118.839844 96.148438 119.042969 L 96.15625 119.035156 L 97.167969 119.6875 L 98.191406 120.328125 C 98.5625 119.734375 98.746094 119.066406 98.742188 118.410156 C 98.746094 117.222656 98.152344 116.050781 97.070312 115.367188 C 96.472656 114.992188 95.804688 114.8125 95.148438 114.8125 C 93.964844 114.808594 92.792969 115.402344 92.109375 116.480469 L 92.113281 116.476562 C 91.730469 117.070312 91.550781 117.746094 91.550781 118.402344 C 91.546875 119.589844 92.144531 120.757812 93.222656 121.441406 L 93.222656 121.445312 C 93.816406 121.816406 94.484375 122 95.144531 122 C 96.328125 122.003906 97.496094 121.410156 98.183594 120.335938 L 98.191406 120.328125 L 97.167969 119.6875" fill="inherit"/><path d="M 93.371094 118.707031 L 95.636719 120.140625 C 96.199219 120.496094 96.945312 120.332031 97.300781 119.769531 C 97.65625 119.207031 97.488281 118.460938 96.925781 118.105469 L 94.660156 116.671875 C 94.097656 116.3125 93.351562 116.480469 92.996094 117.042969 C 92.640625 117.605469 92.808594 118.351562 93.371094 118.707031" fill="inherit"/><path d="M 94.851562 116.628906 L 93.414062 118.890625 C 93.054688 119.453125 93.222656 120.199219 93.78125 120.554688 C 94.34375 120.910156 95.089844 120.746094 95.445312 120.183594 L 96.886719 117.921875 C 97.242188 117.359375 97.078125 116.613281 96.515625 116.257812 C 95.953125 115.898438 95.210938 116.066406 94.851562 116.628906" fill="inherit"/><path d="M 121.386719 139.574219 L 120.179688 139.574219 C 120.179688 140.039062 120.238281 147.660156 124.261719 157.953125 C 128.285156 168.246094 136.296875 181.214844 152.132812 192.261719 C 155.613281 194.695312 158.734375 196.601562 161.28125 197.914062 C 162.554688 198.570312 163.683594 199.078125 164.660156 199.433594 C 165.644531 199.785156 166.449219 200 167.222656 200.007812 C 167.65625 200 168.128906 199.941406 168.597656 199.609375 C 168.828125 199.445312 169.03125 199.203125 169.152344 198.933594 C 169.277344 198.667969 169.324219 198.386719 169.324219 198.136719 C 169.320312 197.660156 169.183594 197.257812 169 196.847656 C 168.8125 196.433594 168.554688 196.011719 168.226562 195.546875 C 166.371094 192.917969 163.800781 188.003906 161.734375 182 C 159.664062 175.996094 158.078125 168.882812 158.078125 161.796875 C 158.078125 157.632812 158.625 153.480469 159.921875 149.558594 C 160.035156 149.21875 159.992188 148.851562 159.804688 148.546875 C 159.617188 148.242188 159.308594 148.039062 158.953125 147.984375 C 158.953125 147.984375 158.886719 147.976562 158.742188 147.953125 C 156.613281 147.625 138.726562 144.738281 121.804688 138.445312 C 121.433594 138.304688 121.019531 138.359375 120.695312 138.582031 C 120.371094 138.808594 120.179688 139.179688 120.179688 139.574219 L 121.386719 139.574219 L 120.964844 140.703125 C 139.316406 147.523438 158.558594 150.363281 158.601562 150.371094 L 158.777344 149.179688 L 157.636719 148.800781 C 156.238281 153.015625 155.667969 157.425781 155.667969 161.796875 C 155.671875 169.242188 157.320312 176.585938 159.457031 182.785156 C 161.597656 188.992188 164.214844 194.035156 166.257812 196.9375 C 166.527344 197.316406 166.707031 197.628906 166.808594 197.851562 C 166.859375 197.960938 166.886719 198.042969 166.902344 198.097656 L 166.914062 198.144531 L 166.914062 198.148438 L 167.070312 198.136719 L 166.914062 198.136719 L 166.914062 198.148438 L 167.070312 198.136719 L 166.914062 198.136719 L 167.429688 198.136719 L 166.964844 197.925781 C 166.917969 198.027344 166.914062 198.109375 166.914062 198.136719 L 167.429688 198.136719 L 166.964844 197.925781 L 167.53125 198.1875 L 167.277344 197.605469 C 167.203125 197.628906 167.03125 197.765625 166.964844 197.925781 L 167.53125 198.1875 L 167.277344 197.605469 L 167.402344 197.890625 L 167.316406 197.589844 L 167.277344 197.605469 L 167.402344 197.890625 L 167.316406 197.589844 L 167.335938 197.660156 L 167.320312 197.589844 L 167.316406 197.589844 L 167.335938 197.660156 L 167.320312 197.589844 L 167.222656 197.597656 C 166.964844 197.601562 166.316406 197.476562 165.480469 197.167969 C 162.945312 196.253906 158.621094 193.859375 153.511719 190.285156 C 138.097656 179.523438 130.394531 167.003906 126.507812 157.078125 C 122.625 147.152344 122.589844 139.828125 122.589844 139.574219 L 121.386719 139.574219 L 120.964844 140.703125 L 121.386719 139.574219" fill="inherit"/><path d="M 154.128906 87.925781 L 154.648438 89.011719 L 154.664062 89.003906 C 155.082031 88.808594 163.535156 84.933594 176.605469 84.9375 C 186.707031 84.9375 199.5625 87.234375 213.695312 95.335938 C 217.707031 97.636719 220.941406 99.808594 223.132812 101.5625 C 224.226562 102.4375 225.0625 103.214844 225.582031 103.8125 C 225.84375 104.109375 226.019531 104.363281 226.113281 104.53125 L 226.195312 104.703125 L 226.195312 104.714844 L 226.425781 104.65625 L 226.191406 104.65625 L 226.195312 104.714844 L 226.425781 104.65625 L 226.191406 104.65625 L 226.820312 104.65625 L 226.28125 104.34375 C 226.214844 104.460938 226.191406 104.59375 226.191406 104.65625 L 226.820312 104.65625 L 226.28125 104.34375 L 226.832031 104.664062 L 226.453125 104.152344 L 226.28125 104.34375 L 226.832031 104.664062 L 226.453125 104.152344 L 226.671875 104.449219 L 226.527344 104.105469 L 226.453125 104.152344 L 226.671875 104.449219 L 226.527344 104.105469 L 226.554688 104.167969 L 226.53125 104.105469 L 226.527344 104.105469 L 226.554688 104.167969 L 226.53125 104.105469 C 226.527344 104.109375 226.398438 104.140625 226.183594 104.136719 C 225.9375 104.136719 225.585938 104.105469 225.148438 104.03125 C 223.1875 103.6875 220.546875 103.472656 217.445312 103.472656 C 211.847656 103.472656 204.761719 104.175781 197.675781 106.179688 C 190.589844 108.1875 183.492188 111.496094 177.9375 116.773438 L 178.769531 117.644531 L 179.769531 116.976562 C 179.742188 116.941406 168.96875 100.75 154.972656 87.0625 L 154.128906 87.925781 L 154.648438 89.011719 L 154.128906 87.925781 L 153.285156 88.785156 C 160.171875 95.515625 166.300781 102.90625 170.703125 108.609375 C 172.902344 111.460938 174.671875 113.894531 175.886719 115.605469 C 176.496094 116.464844 176.96875 117.144531 177.285156 117.605469 C 177.441406 117.839844 177.5625 118.015625 177.644531 118.136719 C 177.726562 118.253906 177.765625 118.3125 177.765625 118.3125 C 177.960938 118.609375 178.277344 118.804688 178.632812 118.84375 C 178.988281 118.882812 179.339844 118.765625 179.597656 118.519531 C 184.761719 113.605469 191.503906 110.429688 198.332031 108.5 C 205.152344 106.566406 212.046875 105.882812 217.445312 105.882812 C 220.429688 105.882812 222.960938 106.09375 224.734375 106.402344 C 225.273438 106.496094 225.746094 106.546875 226.183594 106.546875 C 226.710938 106.539062 227.195312 106.488281 227.703125 106.207031 C 227.949219 106.066406 228.199219 105.84375 228.363281 105.558594 C 228.53125 105.269531 228.605469 104.941406 228.601562 104.65625 C 228.597656 104.136719 228.425781 103.738281 228.21875 103.359375 C 227.847656 102.703125 227.289062 102.0625 226.539062 101.335938 C 224.296875 99.179688 220.273438 96.335938 214.894531 93.246094 C 200.382812 84.925781 187.070312 82.523438 176.605469 82.527344 C 162.617188 82.527344 153.71875 86.785156 153.605469 86.839844 C 153.25 87.007812 153.003906 87.339844 152.941406 87.730469 C 152.875 88.117188 153.003906 88.511719 153.285156 88.785156 L 154.128906 87.925781" fill="inherit"/><path d="M 219.664062 189.964844 C 226.304688 195.910156 233.164062 203.003906 239.097656 211.078125 C 256.964844 235.398438 262.515625 257.851562 262.523438 276.53125 C 262.523438 292.226562 258.582031 305.265625 254.644531 314.433594 C 252.671875 319.015625 250.703125 322.628906 249.230469 325.121094 C 248.492188 326.367188 247.878906 327.332031 247.445312 328.003906 C 247.230469 328.34375 247.058594 328.605469 246.933594 328.804688 C 246.871094 328.902344 246.816406 328.984375 246.769531 329.074219 L 246.6875 329.230469 L 246.632812 329.378906 C 246.609375 329.449219 246.574219 329.535156 246.566406 329.765625 C 246.570312 329.855469 246.578125 329.984375 246.628906 330.148438 C 246.671875 330.273438 246.742188 330.414062 246.847656 330.539062 C 247.003906 330.734375 247.222656 330.859375 247.394531 330.914062 C 247.566406 330.972656 247.691406 330.976562 247.78125 330.980469 C 248.449219 330.980469 248.988281 330.4375 248.988281 329.773438 C 248.988281 329.109375 248.449219 328.570312 247.78125 328.570312 L 247.78125 329.757812 L 248.109375 328.613281 C 247.964844 328.574219 247.859375 328.570312 247.78125 328.570312 L 247.78125 329.757812 L 248.109375 328.613281 L 247.78125 329.765625 L 248.796875 329.132812 C 248.632812 328.855469 248.316406 328.664062 248.109375 328.613281 L 247.78125 329.765625 L 248.796875 329.132812 L 247.78125 329.765625 L 248.976562 329.765625 C 248.976562 329.636719 248.960938 329.402344 248.796875 329.132812 L 247.78125 329.765625 L 248.976562 329.765625 L 247.820312 329.765625 L 248.921875 330.125 C 248.9375 330.0625 248.972656 329.988281 248.976562 329.765625 L 247.820312 329.765625 L 248.921875 330.125 L 248.09375 329.855469 L 248.867188 330.261719 C 248.871094 330.25 248.882812 330.234375 248.921875 330.125 L 248.09375 329.855469 L 248.867188 330.261719 L 248.765625 330.207031 L 248.867188 330.261719 L 248.765625 330.207031 L 248.867188 330.261719 C 248.875 330.242188 248.984375 330.066406 249.136719 329.832031 C 249.714844 328.929688 251.007812 326.960938 252.597656 324.085938 C 257.378906 315.453125 264.929688 298.5625 264.933594 276.53125 C 264.9375 257.371094 259.195312 234.34375 241.039062 209.652344 C 234.980469 201.40625 228.007812 194.199219 221.269531 188.167969 C 220.773438 187.726562 220.011719 187.769531 219.570312 188.265625 C 219.125 188.757812 219.167969 189.519531 219.664062 189.964844" fill="inherit"/><path d="M 250.855469 219.074219 C 254.3125 224.683594 257.433594 230.644531 259.945312 236.867188 L 259.976562 236.9375 C 268.992188 255.722656 272.296875 277.230469 272.292969 293.878906 C 272.292969 299.566406 271.90625 304.6875 271.242188 308.921875 C 270.585938 313.152344 269.628906 316.511719 268.570312 318.601562 C 268.269531 319.195312 268.507812 319.921875 269.105469 320.222656 C 269.699219 320.519531 270.421875 320.28125 270.722656 319.6875 C 271.964844 317.214844 272.933594 313.683594 273.625 309.292969 C 274.3125 304.90625 274.699219 299.675781 274.699219 293.878906 C 274.699219 276.921875 271.371094 255.121094 262.148438 235.894531 L 261.0625 236.414062 L 262.179688 235.964844 C 259.605469 229.59375 256.425781 223.515625 252.90625 217.8125 C 252.558594 217.242188 251.816406 217.066406 251.25 217.417969 C 250.683594 217.765625 250.507812 218.511719 250.855469 219.074219" fill="inherit"/><path d="M 237.121094 200.300781 C 240.9375 204.785156 244.734375 209.722656 248.261719 215.027344 C 248.628906 215.582031 249.378906 215.730469 249.933594 215.363281 C 250.488281 214.996094 250.636719 214.246094 250.269531 213.691406 C 246.679688 208.300781 242.828125 203.289062 238.957031 198.738281 C 238.527344 198.234375 237.765625 198.171875 237.261719 198.605469 C 236.753906 199.035156 236.691406 199.796875 237.125 200.304688" fill="inherit"/><path d="M 277.167969 261.753906 C 280.898438 275.917969 282.746094 290.058594 282.742188 302.1875 C 282.746094 311.140625 281.730469 319.003906 279.773438 324.929688 C 279.566406 325.5625 279.910156 326.246094 280.542969 326.453125 C 281.175781 326.660156 281.855469 326.316406 282.0625 325.6875 C 284.136719 319.398438 285.152344 311.324219 285.152344 302.1875 C 285.152344 289.816406 283.277344 275.496094 279.496094 261.140625 C 279.328125 260.496094 278.667969 260.113281 278.023438 260.28125 C 277.382812 260.453125 276.996094 261.113281 277.167969 261.753906" fill="inherit"/><path d="M 257.199219 216.144531 C 257.472656 216.617188 257.746094 217.082031 258.003906 217.539062 L 258.050781 217.617188 C 261.785156 223.238281 265.101562 229.339844 267.984375 235.714844 C 270.941406 242.230469 273.449219 249.039062 275.519531 255.898438 C 275.710938 256.539062 276.382812 256.898438 277.019531 256.707031 C 277.65625 256.515625 278.019531 255.84375 277.824219 255.203125 C 275.730469 248.25 273.183594 241.34375 270.179688 234.71875 C 267.246094 228.242188 263.875 222.027344 260.058594 216.285156 L 259.054688 216.949219 L 260.105469 216.359375 C 259.832031 215.871094 259.554688 215.398438 259.285156 214.9375 C 258.949219 214.359375 258.210938 214.164062 257.636719 214.5 C 257.0625 214.835938 256.867188 215.570312 257.199219 216.148438" fill="inherit"/><path d="M 254.78125 201.550781 C 277.542969 231.734375 290.253906 268.847656 290.253906 307.378906 C 290.253906 314.167969 289.855469 321.003906 289.054688 327.851562 C 288.976562 328.511719 289.449219 329.109375 290.109375 329.1875 C 290.773438 329.265625 291.371094 328.792969 291.449219 328.132812 C 292.261719 321.1875 292.660156 314.261719 292.660156 307.378906 C 292.660156 268.316406 279.78125 230.699219 256.703125 200.101562 C 256.304688 199.570312 255.546875 199.464844 255.015625 199.863281 C 254.484375 200.265625 254.378906 201.019531 254.78125 201.554688" fill="inherit"/><path d="M 247.976562 165.730469 C 255.40625 172.109375 262.910156 179.550781 269.503906 187.964844 C 293.882812 219.03125 310.59375 262.265625 320.390625 294.816406 C 325.050781 310.28125 329.9375 320.738281 333.730469 327.351562 C 335.621094 330.660156 337.242188 333.003906 338.421875 334.539062 C 339.015625 335.308594 339.496094 335.871094 339.855469 336.257812 C 340.035156 336.453125 340.1875 336.605469 340.320312 336.726562 L 340.539062 336.90625 L 340.722656 337.019531 L 340.902344 337.097656 C 340.988281 337.125 341.101562 337.160156 341.304688 337.164062 C 341.96875 337.164062 342.507812 336.625 342.507812 335.960938 C 342.507812 335.292969 341.96875 334.753906 341.304688 334.753906 L 341.304688 335.925781 L 341.6875 334.816406 C 341.605469 334.792969 341.5 334.757812 341.304688 334.753906 L 341.304688 335.925781 L 341.6875 334.816406 L 341.339844 335.820312 L 341.914062 334.925781 C 341.878906 334.90625 341.832031 334.871094 341.6875 334.816406 L 341.339844 335.820312 L 341.914062 334.925781 L 341.574219 335.460938 L 341.964844 334.960938 L 341.914062 334.925781 L 341.574219 335.460938 L 341.964844 334.960938 L 341.945312 334.984375 L 341.964844 334.960938 L 341.945312 334.984375 L 341.964844 334.960938 C 341.949219 334.949219 341.863281 334.871094 341.746094 334.75 C 341.300781 334.289062 340.378906 333.210938 339.148438 331.449219 C 335.449219 326.15625 328.882812 314.652344 322.699219 294.121094 C 312.839844 261.410156 296.101562 217.976562 271.402344 186.476562 C 264.683594 177.90625 257.070312 170.363281 249.542969 163.898438 C 249.039062 163.464844 248.277344 163.523438 247.84375 164.03125 C 247.410156 164.535156 247.46875 165.296875 247.976562 165.730469" fill="inherit"/><path d="M 308.621094 305.660156 C 309.546875 312.710938 310.097656 318.503906 310.46875 322.433594 C 310.53125 323.09375 311.121094 323.582031 311.78125 323.519531 C 312.445312 323.457031 312.933594 322.867188 312.871094 322.207031 C 312.496094 318.273438 311.941406 312.441406 311.011719 305.347656 C 310.925781 304.6875 310.316406 304.222656 309.660156 304.3125 C 309 304.398438 308.535156 305.003906 308.621094 305.660156" fill="inherit"/><path d="M 274.492188 207.792969 C 278.324219 213.671875 281.929688 219.761719 284.496094 225.066406 L 284.527344 225.128906 C 298.339844 249.785156 304.726562 279.054688 307.839844 300.046875 C 307.9375 300.707031 308.550781 301.160156 309.207031 301.0625 C 309.867188 300.964844 310.320312 300.351562 310.222656 299.695312 C 307.082031 278.546875 300.671875 249.039062 286.632812 223.953125 L 285.578125 224.539062 L 286.664062 224.015625 C 284.027344 218.570312 280.378906 212.414062 276.515625 206.476562 C 276.148438 205.917969 275.402344 205.761719 274.847656 206.125 C 274.289062 206.488281 274.132812 207.234375 274.492188 207.792969" fill="inherit"/><path d="M 262.777344 191.292969 C 265.734375 195.089844 269.148438 199.789062 272.5 204.773438 C 272.871094 205.328125 273.621094 205.476562 274.175781 205.105469 C 274.726562 204.734375 274.871094 203.984375 274.503906 203.433594 C 271.117188 198.398438 267.675781 193.660156 264.675781 189.8125 C 264.269531 189.285156 263.511719 189.191406 262.984375 189.601562 C 262.460938 190.011719 262.367188 190.769531 262.777344 191.292969" fill="inherit"/><path d="M 289.476562 258.625 C 290.917969 263.347656 292.171875 268.078125 293.230469 272.765625 L 293.230469 272.777344 C 297.085938 289.289062 298.460938 305.378906 298.460938 317.820312 C 298.460938 321.25 298.355469 324.402344 298.171875 327.214844 C 298.125 327.878906 298.628906 328.449219 299.292969 328.496094 C 299.957031 328.539062 300.53125 328.035156 300.574219 327.371094 C 300.761719 324.503906 300.867188 321.300781 300.867188 317.820312 C 300.867188 305.203125 299.480469 288.957031 295.578125 272.230469 L 295.578125 272.238281 C 294.511719 267.488281 293.238281 262.699219 291.78125 257.921875 C 291.585938 257.285156 290.914062 256.925781 290.277344 257.121094 C 289.640625 257.316406 289.28125 257.988281 289.476562 258.625" fill="inherit"/><path d="M 260.605469 199.980469 C 263.199219 203.570312 265.714844 207.324219 268.117188 211.230469 L 268.121094 211.238281 C 273.578125 219.96875 278.433594 229.488281 282.535156 239.335938 C 282.789062 239.949219 283.496094 240.242188 284.109375 239.988281 C 284.722656 239.730469 285.015625 239.023438 284.757812 238.410156 C 280.609375 228.445312 275.699219 218.816406 270.164062 209.960938 L 270.167969 209.96875 C 267.738281 206.007812 265.1875 202.203125 262.558594 198.570312 C 262.167969 198.03125 261.414062 197.910156 260.875 198.300781 C 260.335938 198.691406 260.214844 199.441406 260.605469 199.984375" fill="inherit"/><path d="M 387.609375 386.507812 L 387.574219 386.449219 L 386.535156 387.0625 L 386.644531 388.261719 C 394.40625 387.558594 400.480469 381.042969 400.480469 373.097656 C 400.480469 365.136719 394.375 358.605469 386.578125 357.929688 L 386.476562 359.128906 L 387.671875 359.273438 C 387.742188 358.679688 387.777344 358.078125 387.777344 357.472656 C 387.777344 348.902344 380.835938 341.957031 372.269531 341.957031 C 370.464844 341.957031 368.734375 342.269531 367.125 342.832031 L 367.523438 343.972656 L 368.691406 343.679688 C 367.605469 339.316406 363.671875 336.09375 358.980469 336.089844 C 354.378906 336.09375 350.503906 339.195312 349.332031 343.425781 L 350.492188 343.746094 L 350.796875 342.582031 C 349.222656 342.171875 347.578125 341.957031 345.878906 341.957031 C 345.574219 341.957031 345.277344 341.96875 344.996094 341.980469 L 345.054688 343.1875 L 346.257812 343.1875 L 346.257812 343.164062 C 346.257812 337.632812 341.773438 333.148438 336.242188 333.148438 C 334.554688 333.148438 332.964844 333.574219 331.570312 334.3125 L 332.132812 335.378906 L 333.136719 334.714844 C 329.625 329.402344 323.589844 325.902344 316.75 325.902344 C 308.132812 325.902344 300.8125 331.445312 298.164062 339.171875 L 299.304688 339.5625 L 299.71875 338.429688 C 298.375 337.9375 296.921875 337.671875 295.414062 337.671875 C 291.136719 337.667969 287.351562 339.8125 285.085938 343.074219 L 286.074219 343.765625 L 287.0625 343.074219 C 284.800781 339.8125 281.015625 337.671875 276.738281 337.671875 C 275.230469 337.667969 273.773438 337.9375 272.429688 338.429688 L 272.84375 339.5625 L 273.980469 339.171875 C 271.339844 331.445312 264.015625 325.902344 255.402344 325.902344 C 248.554688 325.902344 242.523438 329.402344 239.011719 334.710938 L 240.015625 335.378906 L 240.578125 334.3125 C 239.1875 333.574219 237.589844 333.148438 235.898438 333.148438 C 230.371094 333.148438 225.890625 337.632812 225.890625 343.164062 L 225.90625 343.367188 L 225.910156 343.390625 L 227.097656 343.1875 L 227.152344 341.980469 C 226.867188 341.96875 226.574219 341.957031 226.269531 341.957031 C 224.574219 341.957031 222.929688 342.171875 221.355469 342.582031 L 221.65625 343.746094 L 222.816406 343.425781 C 221.644531 339.195312 217.769531 336.09375 213.171875 336.089844 C 208.476562 336.09375 204.539062 339.316406 203.457031 343.679688 L 204.625 343.972656 L 205.023438 342.832031 C 203.417969 342.269531 201.683594 341.957031 199.882812 341.957031 C 191.316406 341.957031 184.371094 348.902344 184.367188 357.472656 C 184.367188 358.078125 184.402344 358.679688 184.472656 359.273438 L 185.671875 359.128906 L 185.566406 357.929688 C 177.773438 358.605469 171.664062 365.136719 171.664062 373.097656 C 171.664062 381.507812 178.480469 388.324219 186.890625 388.324219 C 187.554688 388.324219 188.09375 387.785156 188.09375 387.121094 C 188.09375 386.457031 187.554688 385.914062 186.890625 385.914062 C 183.347656 385.914062 180.148438 384.480469 177.828125 382.160156 C 175.507812 379.839844 174.074219 376.640625 174.074219 373.097656 C 174.070312 366.398438 179.21875 360.898438 185.773438 360.332031 C 186.097656 360.300781 186.398438 360.144531 186.605469 359.890625 C 186.8125 359.636719 186.90625 359.3125 186.867188 358.988281 C 186.808594 358.496094 186.777344 357.988281 186.777344 357.472656 C 186.78125 353.847656 188.246094 350.582031 190.617188 348.207031 C 192.992188 345.832031 196.261719 344.367188 199.882812 344.367188 C 201.40625 344.367188 202.867188 344.632812 204.226562 345.105469 C 204.546875 345.21875 204.898438 345.191406 205.195312 345.03125 C 205.496094 344.871094 205.710938 344.589844 205.792969 344.261719 C 206.617188 340.957031 209.605469 338.5 213.171875 338.5 C 216.660156 338.496094 219.605469 340.859375 220.496094 344.070312 C 220.671875 344.703125 221.320312 345.078125 221.957031 344.914062 C 223.335938 344.558594 224.78125 344.367188 226.269531 344.367188 C 226.519531 344.367188 226.773438 344.375 227.042969 344.390625 C 227.40625 344.40625 227.761719 344.257812 228 343.980469 C 228.242188 343.707031 228.347656 343.339844 228.285156 342.980469 L 228.28125 342.957031 L 227.09375 343.164062 L 228.296875 343.164062 C 228.300781 341.058594 229.148438 339.167969 230.523438 337.785156 C 231.90625 336.40625 233.796875 335.558594 235.898438 335.558594 C 237.1875 335.558594 238.390625 335.882812 239.453125 336.441406 C 240 336.734375 240.675781 336.5625 241.019531 336.042969 C 244.109375 331.382812 249.390625 328.3125 255.402344 328.3125 C 262.960938 328.308594 269.386719 333.179688 271.699219 339.953125 C 271.804688 340.257812 272.03125 340.511719 272.320312 340.648438 C 272.613281 340.789062 272.953125 340.804688 273.253906 340.695312 C 274.34375 340.296875 275.511719 340.082031 276.738281 340.082031 C 280.195312 340.082031 283.246094 341.808594 285.085938 344.449219 C 285.308594 344.773438 285.679688 344.96875 286.074219 344.96875 C 286.46875 344.96875 286.835938 344.773438 287.0625 344.453125 C 288.90625 341.808594 291.949219 340.082031 295.414062 340.082031 C 296.632812 340.082031 297.804688 340.296875 298.890625 340.695312 C 299.191406 340.804688 299.53125 340.789062 299.824219 340.648438 C 300.113281 340.511719 300.339844 340.257812 300.445312 339.953125 C 302.765625 333.179688 309.1875 328.308594 316.75 328.3125 C 322.757812 328.3125 328.039062 331.382812 331.125 336.042969 C 331.464844 336.558594 332.144531 336.730469 332.691406 336.445312 C 333.761719 335.878906 334.964844 335.558594 336.242188 335.558594 C 338.347656 335.558594 340.242188 336.410156 341.621094 337.785156 C 343 339.167969 343.847656 341.058594 343.851562 343.164062 L 343.851562 343.1875 C 343.851562 343.515625 343.984375 343.828125 344.222656 344.058594 C 344.460938 344.285156 344.78125 344.402344 345.109375 344.390625 C 345.371094 344.375 345.628906 344.367188 345.878906 344.367188 C 347.371094 344.367188 348.816406 344.558594 350.191406 344.914062 C 350.828125 345.078125 351.480469 344.703125 351.65625 344.070312 C 352.546875 340.859375 355.488281 338.496094 358.980469 338.5 C 362.539062 338.496094 365.527344 340.957031 366.355469 344.261719 C 366.4375 344.59375 366.652344 344.871094 366.949219 345.03125 C 367.25 345.191406 367.601562 345.21875 367.921875 345.109375 C 369.285156 344.628906 370.742188 344.367188 372.269531 344.367188 C 375.890625 344.367188 379.15625 345.832031 381.53125 348.207031 C 383.902344 350.582031 385.367188 353.847656 385.367188 357.472656 C 385.367188 357.988281 385.339844 358.496094 385.28125 358.988281 C 385.242188 359.3125 385.335938 359.636719 385.542969 359.890625 C 385.746094 360.144531 386.046875 360.300781 386.371094 360.332031 C 392.925781 360.898438 398.074219 366.398438 398.070312 373.097656 C 398.074219 379.785156 392.953125 385.269531 386.429688 385.859375 C 386.015625 385.898438 385.652344 386.140625 385.464844 386.511719 C 385.273438 386.878906 385.289062 387.316406 385.5 387.671875 L 385.535156 387.730469 C 385.871094 388.304688 386.609375 388.496094 387.183594 388.15625 C 387.757812 387.820312 387.949219 387.082031 387.609375 386.507812" fill="inherit"/><path d="M 202.152344 366.804688 C 202.105469 366.695312 201.210938 364.507812 198.808594 362.296875 C 196.417969 360.085938 192.472656 357.898438 186.605469 357.90625 C 186.285156 357.90625 185.957031 357.910156 185.617188 357.925781 L 185.542969 357.929688 C 185.441406 357.945312 182.230469 358.28125 178.851562 360.332031 C 177.167969 361.359375 175.4375 362.832031 174.09375 364.917969 C 172.75 367 171.8125 369.683594 171.664062 373.042969 C 171.636719 373.707031 172.148438 374.269531 172.816406 374.300781 C 173.480469 374.332031 174.042969 373.816406 174.074219 373.148438 C 174.207031 370.175781 175.011719 367.945312 176.117188 366.222656 C 177.78125 363.640625 180.191406 362.160156 182.226562 361.324219 C 183.238281 360.90625 184.152344 360.652344 184.800781 360.507812 C 185.125 360.4375 185.382812 360.390625 185.554688 360.363281 L 185.75 360.335938 L 185.792969 360.328125 L 185.800781 360.328125 L 185.757812 359.96875 L 185.796875 360.328125 L 185.800781 360.328125 L 185.757812 359.96875 L 185.796875 360.328125 L 185.671875 359.128906 L 185.722656 360.332031 C 186.019531 360.320312 186.3125 360.316406 186.605469 360.316406 C 191.871094 360.324219 195.140625 362.210938 197.179688 364.070312 C 198.195312 365.003906 198.890625 365.9375 199.328125 366.628906 C 199.546875 366.972656 199.699219 367.257812 199.796875 367.445312 C 199.84375 367.542969 199.875 367.613281 199.894531 367.660156 L 199.917969 367.707031 L 199.921875 367.710938 L 200.394531 367.515625 L 199.917969 367.707031 L 199.921875 367.710938 L 200.394531 367.515625 L 199.917969 367.707031 C 200.167969 368.324219 200.871094 368.621094 201.488281 368.371094 C 202.105469 368.121094 202.402344 367.417969 202.152344 366.804688" fill="inherit"/><path d="M 239.757812 350.574219 C 239.863281 350.527344 241.113281 350.011719 242.386719 348.632812 C 243.65625 347.265625 244.90625 344.980469 244.898438 341.683594 C 244.898438 341.503906 244.894531 341.320312 244.886719 341.136719 L 244.882812 341.050781 C 244.867188 340.953125 244.683594 339.152344 243.507812 337.214844 C 242.921875 336.25 242.070312 335.25 240.863281 334.472656 C 239.660156 333.695312 238.109375 333.160156 236.210938 333.078125 C 235.542969 333.046875 234.980469 333.5625 234.953125 334.230469 C 234.921875 334.894531 235.4375 335.457031 236.105469 335.484375 C 237.617188 335.554688 238.714844 335.957031 239.558594 336.5 C 240.824219 337.3125 241.566406 338.503906 241.988281 339.535156 C 242.199219 340.042969 242.324219 340.507812 242.398438 340.832031 C 242.433594 340.996094 242.457031 341.121094 242.46875 341.207031 L 242.484375 341.292969 L 242.484375 341.3125 L 242.765625 341.277344 L 242.484375 341.308594 L 242.484375 341.3125 L 242.765625 341.277344 L 242.484375 341.308594 L 243.683594 341.179688 L 242.480469 341.222656 C 242.484375 341.382812 242.488281 341.535156 242.488281 341.683594 C 242.480469 344.382812 241.535156 345.984375 240.613281 347.003906 C 240.148438 347.507812 239.683594 347.851562 239.347656 348.066406 C 239.175781 348.171875 239.039062 348.246094 238.953125 348.289062 L 238.84375 348.34375 L 239.03125 348.777344 L 238.851562 348.339844 L 238.84375 348.34375 L 239.03125 348.777344 L 238.851562 348.339844 C 238.234375 348.589844 237.9375 349.289062 238.1875 349.90625 C 238.4375 350.523438 239.140625 350.824219 239.757812 350.574219" fill="inherit"/><path d="M 212.160156 370.703125 C 212.113281 370.59375 211.597656 369.34375 210.21875 368.070312 C 208.847656 366.796875 206.5625 365.546875 203.265625 365.558594 C 203.089844 365.558594 202.902344 365.5625 202.710938 365.570312 L 202.636719 365.574219 C 202.535156 365.589844 200.738281 365.773438 198.800781 366.949219 C 197.835938 367.535156 196.835938 368.386719 196.058594 369.59375 C 195.277344 370.796875 194.742188 372.351562 194.660156 374.25 C 194.632812 374.914062 195.148438 375.476562 195.8125 375.507812 C 196.476562 375.535156 197.039062 375.019531 197.070312 374.355469 C 197.136719 372.839844 197.539062 371.746094 198.082031 370.898438 C 198.894531 369.632812 200.089844 368.894531 201.121094 368.46875 C 201.632812 368.261719 202.09375 368.132812 202.417969 368.058594 C 202.582031 368.023438 202.710938 368 202.792969 367.984375 L 202.882812 367.972656 L 202.898438 367.972656 L 202.863281 367.679688 L 202.894531 367.972656 L 202.898438 367.972656 L 202.863281 367.679688 L 202.894531 367.972656 L 202.765625 366.773438 L 202.820312 367.976562 C 202.964844 367.96875 203.113281 367.96875 203.265625 367.96875 C 205.964844 367.976562 207.566406 368.921875 208.585938 369.847656 C 209.09375 370.308594 209.4375 370.773438 209.652344 371.113281 C 209.761719 371.28125 209.832031 371.417969 209.878906 371.507812 L 209.921875 371.601562 L 209.929688 371.617188 L 210.363281 371.429688 L 209.925781 371.609375 L 209.929688 371.617188 L 210.363281 371.429688 L 209.925781 371.609375 C 210.175781 372.226562 210.878906 372.519531 211.496094 372.273438 C 212.113281 372.023438 212.410156 371.320312 212.160156 370.703125" fill="inherit"/><path d="M 293.628906 337.835938 C 293.511719 337.84375 291.566406 337.957031 289.242188 339.265625 C 286.917969 340.566406 284.246094 343.128906 282.863281 347.765625 L 282.84375 347.839844 C 282.832031 347.90625 282.601562 348.914062 282.601562 350.417969 C 282.601562 352.027344 282.859375 354.214844 283.992188 356.378906 C 285.121094 358.542969 287.160156 360.640625 290.480469 361.941406 C 291.097656 362.183594 291.796875 361.878906 292.042969 361.261719 C 292.285156 360.640625 291.980469 359.941406 291.363281 359.699219 C 288.542969 358.578125 287.023438 356.953125 286.128906 355.261719 C 285.238281 353.570312 285.007812 351.769531 285.011719 350.417969 C 285.011719 349.792969 285.058594 349.265625 285.105469 348.90625 C 285.132812 348.726562 285.152344 348.585938 285.171875 348.496094 L 285.191406 348.398438 L 285.195312 348.382812 L 285.042969 348.347656 L 285.191406 348.382812 L 285.195312 348.382812 L 285.042969 348.347656 L 285.191406 348.382812 L 284.019531 348.113281 L 285.171875 348.457031 C 286.402344 344.398438 288.566406 342.425781 290.425781 341.363281 C 291.359375 340.835938 292.21875 340.554688 292.832031 340.402344 C 293.140625 340.328125 293.386719 340.285156 293.550781 340.265625 L 293.726562 340.242188 L 293.765625 340.242188 L 293.722656 339.597656 L 293.757812 340.242188 L 293.765625 340.242188 L 293.722656 339.597656 L 293.757812 340.242188 C 294.421875 340.207031 294.933594 339.636719 294.894531 338.972656 C 294.859375 338.308594 294.292969 337.796875 293.628906 337.835938" fill="inherit"/><path d="M 358.335938 349.199219 C 358.292969 349.09375 357.640625 347.328125 355.8125 345.535156 C 354 343.738281 350.949219 341.960938 346.433594 341.972656 C 346.140625 341.972656 345.835938 341.980469 345.527344 341.996094 L 345.519531 341.996094 C 345.414062 342.007812 342.890625 342.148438 340.195312 343.671875 C 338.851562 344.4375 337.460938 345.5625 336.382812 347.195312 C 335.300781 348.824219 334.550781 350.953125 334.421875 353.621094 C 334.386719 354.285156 334.898438 354.851562 335.566406 354.882812 C 336.230469 354.917969 336.796875 354.40625 336.828125 353.738281 C 336.941406 351.449219 337.558594 349.789062 338.394531 348.523438 C 339.640625 346.632812 341.445312 345.597656 342.980469 345.03125 C 343.746094 344.75 344.4375 344.589844 344.925781 344.5 C 345.167969 344.457031 345.363281 344.433594 345.492188 344.417969 L 345.632812 344.402344 L 345.660156 344.402344 L 345.660156 344.371094 L 345.660156 344.402344 L 345.660156 344.371094 L 345.660156 344.402344 L 345.652344 344.402344 C 345.917969 344.386719 346.175781 344.382812 346.433594 344.382812 C 350.324219 344.390625 352.65625 345.832031 354.128906 347.257812 C 354.855469 347.96875 355.351562 348.6875 355.660156 349.214844 C 355.816406 349.480469 355.925781 349.695312 355.988281 349.839844 L 356.058594 350 L 356.070312 350.03125 L 356.074219 350.035156 L 356.636719 349.820312 L 356.070312 350.027344 L 356.074219 350.035156 L 356.636719 349.820312 L 356.070312 350.027344 C 356.300781 350.652344 356.992188 350.976562 357.617188 350.746094 C 358.242188 350.515625 358.5625 349.824219 358.335938 349.199219" fill="inherit"/><path d="M 399.25 367.054688 C 399.210938 366.945312 398.425781 364.664062 396.132812 362.347656 C 394.984375 361.191406 393.453125 360.035156 391.472656 359.171875 C 389.488281 358.308594 387.054688 357.742188 384.132812 357.746094 C 383.929688 357.746094 383.71875 357.746094 383.503906 357.753906 L 383.496094 357.753906 C 383.394531 357.761719 380.222656 357.871094 376.828125 359.691406 C 375.132812 360.605469 373.382812 361.964844 371.996094 363.957031 C 370.613281 365.949219 369.617188 368.566406 369.378906 371.902344 C 369.332031 372.566406 369.832031 373.144531 370.496094 373.191406 C 371.160156 373.238281 371.734375 372.738281 371.785156 372.074219 C 371.996094 369.117188 372.847656 366.960938 373.976562 365.332031 C 375.667969 362.890625 378.058594 361.59375 380.070312 360.902344 C 381.070312 360.558594 381.96875 360.371094 382.609375 360.273438 C 382.925781 360.222656 383.183594 360.195312 383.351562 360.179688 L 383.539062 360.164062 L 383.582031 360.160156 L 383.589844 360.160156 L 383.570312 359.800781 L 383.585938 360.160156 L 383.589844 360.160156 L 383.570312 359.800781 L 383.585938 360.160156 L 383.578125 360.160156 C 383.761719 360.15625 383.945312 360.152344 384.132812 360.152344 C 386.746094 360.15625 388.832031 360.652344 390.507812 361.382812 C 393.019531 362.476562 394.636719 364.105469 395.636719 365.46875 C 396.136719 366.148438 396.476562 366.761719 396.6875 367.191406 C 396.796875 367.40625 396.867188 367.578125 396.914062 367.691406 L 396.960938 367.8125 L 396.972656 367.835938 L 397.085938 367.792969 L 396.972656 367.832031 L 396.972656 367.835938 L 397.085938 367.792969 L 396.972656 367.832031 C 397.1875 368.464844 397.871094 368.800781 398.5 368.585938 C 399.128906 368.371094 399.46875 367.683594 399.253906 367.054688" fill="inherit"/><path d="M 367.054688 353.449219 C 367.015625 353.339844 366.546875 352.085938 365.242188 350.796875 C 363.945312 349.511719 361.746094 348.242188 358.558594 348.25 C 358.351562 348.25 358.136719 348.253906 357.914062 348.265625 L 357.910156 348.269531 C 357.808594 348.277344 356.03125 348.378906 354.101562 349.464844 C 353.140625 350.011719 352.140625 350.820312 351.363281 351.996094 C 350.585938 353.171875 350.050781 354.699219 349.960938 356.585938 C 349.929688 357.25 350.441406 357.816406 351.109375 357.847656 C 351.773438 357.878906 352.335938 357.367188 352.371094 356.703125 C 352.445312 355.195312 352.84375 354.132812 353.375 353.324219 C 354.167969 352.121094 355.324219 351.453125 356.328125 351.082031 C 356.824219 350.898438 357.277344 350.792969 357.59375 350.738281 C 357.753906 350.707031 357.878906 350.691406 357.957031 350.683594 L 358.042969 350.671875 L 358.058594 350.671875 L 358.03125 350.304688 L 358.054688 350.671875 L 358.058594 350.671875 L 358.03125 350.304688 L 358.054688 350.671875 L 358.046875 350.671875 C 358.214844 350.664062 358.386719 350.660156 358.558594 350.660156 C 361.117188 350.671875 362.605469 351.601562 363.554688 352.519531 C 364.023438 352.980469 364.34375 353.441406 364.539062 353.78125 C 364.640625 353.949219 364.707031 354.085938 364.746094 354.175781 L 364.789062 354.269531 L 364.796875 354.285156 L 365.234375 354.113281 L 364.792969 354.277344 L 364.796875 354.285156 L 365.234375 354.113281 L 364.792969 354.277344 C 365.019531 354.902344 365.710938 355.222656 366.339844 354.992188 C 366.964844 354.765625 367.285156 354.074219 367.054688 353.449219" fill="inherit"/><path d="M 247.742188 353.449219 C 247.699219 353.34375 247.234375 352.085938 245.929688 350.796875 C 244.632812 349.511719 242.433594 348.238281 239.242188 348.25 C 239.039062 348.25 238.824219 348.253906 238.601562 348.265625 L 238.597656 348.269531 C 238.492188 348.277344 236.71875 348.378906 234.789062 349.464844 C 233.828125 350.011719 232.828125 350.820312 232.050781 351.996094 C 231.269531 353.167969 230.734375 354.699219 230.644531 356.585938 C 230.613281 357.25 231.125 357.816406 231.789062 357.847656 C 232.453125 357.882812 233.019531 357.367188 233.054688 356.703125 C 233.128906 355.195312 233.53125 354.132812 234.0625 353.324219 C 234.855469 352.121094 236.011719 351.453125 237.015625 351.082031 C 237.511719 350.898438 237.964844 350.792969 238.28125 350.738281 C 238.4375 350.707031 238.5625 350.691406 238.644531 350.683594 L 238.730469 350.671875 L 238.742188 350.671875 L 238.714844 350.292969 L 238.738281 350.671875 L 238.742188 350.671875 L 238.714844 350.292969 L 238.738281 350.671875 L 238.734375 350.671875 C 238.902344 350.664062 239.070312 350.660156 239.242188 350.660156 C 241.804688 350.671875 243.289062 351.601562 244.238281 352.519531 C 244.710938 352.980469 245.027344 353.441406 245.226562 353.78125 C 245.324219 353.949219 245.394531 354.085938 245.433594 354.175781 L 245.476562 354.269531 L 245.480469 354.285156 L 245.9375 354.105469 L 245.476562 354.277344 L 245.480469 354.285156 L 245.9375 354.105469 L 245.476562 354.277344 C 245.707031 354.902344 246.398438 355.222656 247.023438 354.992188 C 247.648438 354.765625 247.96875 354.074219 247.742188 353.449219" fill="inherit"/><path d="M 379.789062 375.980469 C 379.746094 375.875 379.28125 374.617188 377.976562 373.332031 C 376.679688 372.042969 374.480469 370.773438 371.292969 370.78125 C 371.085938 370.78125 370.871094 370.785156 370.644531 370.800781 L 370.640625 370.800781 C 370.535156 370.8125 368.761719 370.910156 366.832031 371.996094 C 365.871094 372.542969 364.871094 373.351562 364.09375 374.527344 C 363.316406 375.703125 362.78125 377.230469 362.691406 379.117188 C 362.660156 379.78125 363.171875 380.347656 363.839844 380.378906 C 364.503906 380.414062 365.066406 379.898438 365.101562 379.234375 C 365.175781 377.730469 365.574219 376.664062 366.105469 375.859375 C 366.898438 374.652344 368.054688 373.984375 369.058594 373.613281 C 369.558594 373.429688 370.007812 373.324219 370.324219 373.269531 C 370.484375 373.242188 370.609375 373.222656 370.6875 373.214844 L 370.773438 373.207031 L 370.789062 373.207031 L 370.761719 372.824219 L 370.785156 373.207031 L 370.789062 373.207031 L 370.761719 372.824219 L 370.785156 373.207031 L 370.78125 373.207031 C 370.949219 373.195312 371.121094 373.191406 371.292969 373.191406 C 373.855469 373.203125 375.335938 374.132812 376.285156 375.050781 C 376.753906 375.511719 377.074219 375.976562 377.273438 376.3125 C 377.371094 376.480469 377.441406 376.621094 377.480469 376.707031 L 377.519531 376.800781 L 377.527344 376.816406 L 377.96875 376.644531 L 377.523438 376.808594 L 377.527344 376.816406 L 377.96875 376.644531 L 377.523438 376.808594 C 377.753906 377.433594 378.445312 377.753906 379.070312 377.527344 C 379.695312 377.296875 380.015625 376.605469 379.789062 375.980469" fill="inherit"/></g></svg>