<?xml version="1.0" encoding="UTF-8" standalone="no"?><svg xmlns="http://www.w3.org/2000/svg" xmlns:xlink="http://www.w3.org/1999/xlink" fill="#000000" height="220" preserveAspectRatio="xMidYMid meet" version="1.1" viewBox="102.6 102.6 220.0 220.0" width="220" zoomAndPan="magnify">
 <g id="surface1">
  <g id="change1_1"><path d="m212.6 320.1c-59.28 0-107.5-48.22-107.5-107.5s48.22-107.5 107.5-107.5 107.5 48.22 107.5 107.5-48.22 107.5-107.5 107.5" fill="#737373"/></g>
  <g id="change2_1"><path d="m212.6 102.6c-29.38 0-57.01 11.44-77.78 32.22-20.78 20.77-32.22 48.4-32.22 77.78s11.44 57.01 32.22 77.78c20.77 20.78 48.4 32.22 77.78 32.22s57.01-11.44 77.78-32.22c20.78-20.77 32.22-48.4 32.22-77.78s-11.44-57.01-32.22-77.78c-20.77-20.78-48.4-32.22-77.78-32.22m0 5c57.99 0 105 47.01 105 105s-47.01 105-105 105-105-47.01-105-105 47.01-105 105-105" fill="#ffffff"/></g>
  <g id="change3_1"><path d="m212.6 317.6c-57.99 0-105-47.01-105-105v-0.07-0.04-0.01c0-2.26 0.08-4.52 0.23-6.75 18.72 28.81 51.19 47.87 88.1 47.87 55.69 0 101.24-43.34 104.77-98.13 10.44 16.05 16.61 35.14 16.89 55.65v0.18 0.06 0.02 0.05c0 0.03 0 0.07 0.01 0.1v0.03 0.04 0.04 0.04 0.06 0.03 0.05 0.03 0.05 0.04 0.05 0.03 0.05 0.03 0.07 0.02 0.06 0.02 0.06 0.02 0.07 0.03 0.05 0.02 0.08c0 57.99-47.01 105-105 105" fill="#666666"/></g>
  <g id="change4_1"><path d="m212.6 317.6c-57.99 0-105-47.01-105-105 0 57.99 47.01 105 105 105s105-47.01 105-105c0 57.99-47.01 105-105 105m105-105v-0.08 0.08m-210 0v-0.07 0.07m210-0.1v-0.05 0.05m-210-0.01v-0.01 0.01m210-0.07v-0.07 0.07m0-0.09v-0.06 0.06m0-0.08v-0.06 0.06m0-0.08v-0.07 0.07m0-0.1v-0.05 0.05m0-0.08v-0.05 0.05m0-0.09v-0.05 0.05m0-0.08v-0.05 0.05m0-0.08v-0.06 0.06m0-0.1v-0.04 0.04m0-0.08v-0.03 0.03m-0.01-0.13m0-0.05v-0.02 0.02m0-0.08m0-0.18" fill="#273339"/></g>
  <g id="change2_2"><path d="m265.89 212.6h-2.5c0.01 28.65-5.91 54.57-15.34 73.11-4.7 9.28-10.27 16.7-16.31 21.72-3.01 2.51-6.14 4.43-9.33 5.72-3.2 1.29-6.46 1.95-9.81 1.95s-6.61-0.66-9.8-1.95c-5.59-2.25-10.98-6.45-15.91-12.35-7.4-8.85-13.71-21.5-18.12-36.64-4.42-15.13-6.96-32.76-6.96-51.56-0.01-28.65 5.92-54.57 15.34-73.12 4.7-9.27 10.28-16.69 16.31-21.71 6.04-5.03 12.47-7.67 19.14-7.67 6.68 0 13.1 2.64 19.14 7.67 4.53 3.77 8.8 8.88 12.63 15.12 5.75 9.35 10.52 21.22 13.84 34.78s5.18 28.81 5.18 44.93h5c0-29.34-6.01-55.92-15.88-75.38-4.94-9.73-10.85-17.69-17.56-23.29s-14.31-8.84-22.35-8.83c-8.04-0.01-15.64 3.23-22.34 8.83-5.04 4.2-9.62 9.73-13.69 16.34-6.09 9.9-11.02 22.23-14.43 36.21-3.42 13.98-5.33 29.62-5.33 46.12 0.01 29.34 6.01 55.92 15.88 75.38 4.94 9.73 10.85 17.69 17.57 23.29 6.7 5.6 14.3 8.84 22.34 8.83 8.04 0.01 15.64-3.23 22.35-8.83 5.03-4.2 9.62-9.73 13.68-16.34 6.09-9.9 11.01-22.23 14.44-36.22 3.41-13.98 5.32-29.61 5.32-46.11h-2.5" fill="#ffffff"/></g>
  <g id="change2_3"><path d="m212.6 265.89v-2.5c-28.65 0.01-54.57-5.91-73.12-15.34-9.27-4.7-16.69-10.27-21.71-16.31-2.51-3.01-4.43-6.14-5.72-9.33-1.29-3.2-1.95-6.46-1.95-9.81 0-6.67 2.64-13.1 7.67-19.14 3.77-4.53 8.88-8.8 15.12-12.63 9.35-5.75 21.22-10.52 34.78-13.84 13.56-3.31 28.81-5.18 44.93-5.18 28.65-0.01 54.57 5.92 73.11 15.33 9.28 4.71 16.7 10.28 21.72 16.32 2.51 3.01 4.43 6.14 5.72 9.33 1.29 3.2 1.95 6.46 1.95 9.81s-0.66 6.61-1.95 9.81c-2.25 5.58-6.45 10.98-12.35 15.91-8.85 7.39-21.5 13.7-36.64 18.11-15.13 4.42-32.76 6.96-51.56 6.96v5c29.34 0 55.92-6.01 75.38-15.88 9.73-4.94 17.68-10.85 23.29-17.56 5.6-6.71 8.84-14.31 8.83-22.35 0.01-8.04-3.23-15.64-8.83-22.35-4.2-5.04-9.73-9.62-16.34-13.68-9.9-6.09-22.23-11.02-36.21-14.43-13.99-3.42-29.62-5.33-46.12-5.33-29.34 0.01-55.92 6.01-75.38 15.88-9.72 4.94-17.68 10.85-23.29 17.56-5.6 6.71-8.84 14.31-8.83 22.35-0.01 8.04 3.23 15.64 8.83 22.35 4.2 5.03 9.73 9.62 16.34 13.68 9.91 6.09 22.23 11.01 36.21 14.44 13.98 3.41 29.62 5.32 46.12 5.32v-2.5" fill="#ffffff"/></g>
  <g id="change2_4"><path d="m210.1 317.6h5v-210h-5z" fill="#ffffff"/></g>
  <g id="change2_5"><path d="m107.6 215.1h210v-5h-210z" fill="#ffffff"/></g>
 </g>
</svg>