<?xml version="1.0" encoding="UTF-8" standalone="no"?><svg xmlns="http://www.w3.org/2000/svg" xmlns:xlink="http://www.w3.org/1999/xlink" fill="#000000" height="325.4" preserveAspectRatio="xMidYMid" version="1.1" viewBox="0.0 0.0 255.2 325.4" width="255.2" zoomAndPan="magnify">
 <g fill="#545454">
  <path d="m114.78 0h53.28v244.19c-27.29 5.16-47.38 7.19-69.115 7.19-65.072-0.06-98.945-29.13-98.945-84.97 0-53.79 35.93-88.706 91.608-88.706 8.642 0 15.222 0.68 23.172 2.717v-80.421zm1.87 124.43c-6.24-2.04-11.38-2.72-17.964-2.72-26.947 0-42.512 16.44-42.512 45.24 0 28.05 14.879 43.54 42.17 43.54 5.896 0 10.696-0.34 18.306-1.36v-84.7z"/>
  <path d="m255.19 84.261v122.26c0 42.11-3.16 62.36-12.41 79.81-8.64 16.79-20.03 27.37-43.55 39.06l-49.43-23.3c23.52-10.93 34.9-20.59 42.17-35.33 7.61-15.07 10.01-32.52 10.01-78.44v-104.06l53.21 0.001z"/>
  <path d="m196.61 0h53.28v54.135h-53.28v-54.135z"/>
 </g>
</svg>