<?xml version="1.0" encoding="UTF-8" standalone="no"?><svg xmlns="http://www.w3.org/2000/svg" xmlns:xlink="http://www.w3.org/1999/xlink" fill="#000000" height="152.4" preserveAspectRatio="xMidYMid" version="1.1" viewBox="-0.9 0.1 258.5 152.4" width="258.5" zoomAndPan="magnify">
 <g>
  <path d="m72.392 55.438c0 3.137 0.339 5.68 0.933 7.545 0.678 1.865 1.525 3.899 2.712 6.103 0.424 0.678 0.593 1.356 0.593 1.95 0 0.847-0.508 1.695-1.61 2.543l-5.341 3.56c-0.762 0.509-1.525 0.763-2.204 0.763-0.847 0-1.695-0.424-2.543-1.187-1.186-1.271-2.204-2.628-3.051-3.984-0.848-1.441-1.696-3.052-2.628-5.001-6.612 7.798-14.919 11.698-24.922 11.698-7.12 0-12.8-2.035-16.954-6.103-4.153-4.069-6.272-9.495-6.272-16.276 0-7.205 2.543-13.054 7.714-17.462 5.17-4.408 12.037-6.612 20.768-6.612 2.882 0 5.849 0.254 8.985 0.678 3.137 0.424 6.358 1.102 9.749 1.865v-6.188c0-6.443-1.357-10.935-3.985-13.563-2.712-2.628-7.29-3.899-13.817-3.899-2.967 0-6.018 0.339-9.155 1.102-3.136 0.762-6.188 1.695-9.155 2.882-1.356 0.593-2.373 0.932-2.967 1.102-0.593 0.169-1.017 0.254-1.356 0.254-1.187 0-1.78-0.848-1.78-2.628v-4.154c0-1.3558 0.169-2.373 0.593-2.9664s1.187-1.1868 2.374-1.7801c2.967-1.5259 6.527-2.7974 10.681-3.8146 4.153-1.102 8.561-1.6106 13.223-1.6106 10.088 0 17.463 2.2887 22.21 6.8662 4.662 4.5775 7.036 11.528 7.036 20.854v27.464h0.169zm-34.416 12.885c2.798 0 5.68-0.508 8.731-1.526 3.052-1.017 5.765-2.882 8.053-5.425 1.357-1.61 2.374-3.391 2.882-5.425 0.509-2.034 0.848-4.493 0.848-7.375v-3.56c-2.458-0.593-5.086-1.102-7.799-1.441-2.712-0.339-5.34-0.509-7.968-0.509-5.679 0-9.833 1.102-12.63 3.391-2.798 2.289-4.154 5.51-4.154 9.748 0 3.984 1.017 6.951 3.136 8.986 2.035 2.119 5.002 3.136 8.901 3.136zm68.074 9.155c-1.53 0-2.55-0.254-3.23-0.848-0.67-0.508-1.27-1.695-1.78-3.305l-19.917-65.526c-0.508-1.6957-0.763-2.7977-0.763-3.3911 0-1.3562 0.678-2.1192 2.035-2.1192h8.307c1.611 0 2.713 0.2543 3.306 0.8477 0.678 0.5086 1.187 1.6954 1.695 3.306l14.237 56.117 13.23-56.117c0.42-1.695 0.93-2.797 1.61-3.3056s1.86-0.8477 3.39-0.8477h6.78c1.61 0 2.71 0.2543 3.39 0.8477 0.68 0.5086 1.27 1.6954 1.61 3.306l13.4 56.795 14.66-56.795c0.51-1.695 1.1-2.797 1.7-3.3056 0.67-0.5086 1.78-0.8477 3.3-0.8477h7.89c1.35 0 2.11 0.6782 2.11 2.1192 0 0.4239-0.08 0.8477-0.16 1.3563-0.09 0.5086-0.26 1.1868-0.6 2.1192l-20.43 65.526c-0.51 1.696-1.1 2.798-1.78 3.306-0.68 0.509-1.78 0.848-3.22 0.848h-7.29c-1.61 0-2.71-0.254-3.39-0.848-0.68-0.593-1.27-1.695-1.61-3.39l-13.14-54.676-13.05 54.591c-0.43 1.695-0.94 2.797-1.61 3.39-0.68 0.594-1.87 0.848-3.39 0.848h-7.29zm108.92 2.289c-4.41 0-8.81-0.509-13.05-1.526s-7.55-2.119-9.75-3.391c-1.36-0.763-2.29-1.61-2.63-2.373s-0.51-1.611-0.51-2.374v-4.323c0-1.78 0.68-2.628 1.95-2.628 0.51 0 1.02 0.085 1.53 0.255 0.51 0.169 1.27 0.508 2.12 0.847 2.88 1.272 6.02 2.289 9.32 2.967 3.39 0.678 6.7 1.017 10.09 1.017 5.34 0 9.49-0.932 12.38-2.797 2.88-1.865 4.4-4.577 4.4-8.053 0-2.373-0.76-4.323-2.28-5.934-1.53-1.61-4.41-3.051-8.57-4.408l-12.29-3.814c-6.19-1.95-10.76-4.832-13.56-8.647-2.8-3.729-4.24-7.883-4.24-12.291 0-3.56 0.76-6.697 2.29-9.409 1.53-2.713 3.56-5.0863 6.1-6.9512 2.55-1.9497 5.43-3.3908 8.82-4.408s6.95-1.441 10.68-1.441c1.86-0.000032 3.81 0.08474 5.68 0.33904 1.95 0.25431 3.73 0.59336 5.51 0.93246 1.69 0.4238 3.3 0.8477 4.83 1.3563s2.71 1.0172 3.56 1.5258c1.19 0.6782 2.04 1.3563 2.54 2.1192 0.51 0.6782 0.77 1.6106 0.77 2.7974v3.984c0 1.78-0.68 2.713-1.95 2.713-0.68 0-1.78-0.339-3.22-1.018-4.84-2.204-10.26-3.306-16.28-3.306-4.83 0-8.65 0.763-11.27 2.374-2.63 1.611-3.99 4.069-3.99 7.544 0 2.374 0.85 4.408 2.55 6.019 1.69 1.61 4.83 3.221 9.32 4.662l12.04 3.815c6.1 1.949 10.51 4.662 13.14 8.137 2.62 3.476 3.9 7.46 3.9 11.868 0 3.645-0.77 6.951-2.21 9.833-1.52 2.882-3.56 5.425-6.19 7.46-2.62 2.119-5.76 3.645-9.41 4.747-3.81 1.187-7.79 1.78-12.12 1.78z" fill="#273339"/>
  <path d="m230.99 120.96c-27.89 20.6-68.4 31.54-103.24 31.54-48.831 0-92.825-18.06-126.05-48.07-2.6324-2.37-0.2589-5.59 2.8775-3.73 35.942 20.86 80.276 33.49 126.13 33.49 30.94 0 64.94-6.44 96.21-19.67 4.67-2.12 8.65 3.05 4.07 6.44zm11.62-13.22c-3.56-4.58-23.57-2.2-32.64-1.1-2.71 0.34-3.14-2.04-0.68-3.82 15.94-11.186 42.13-7.964 45.18-4.235 3.06 3.815-0.84 30.005-15.76 42.555-2.29 1.95-4.5 0.93-3.48-1.61 3.39-8.39 10.94-27.3 7.38-31.79z" fill="#273339"/>
 </g>
</svg>