<?xml version="1.0" encoding="UTF-8" standalone="no"?><svg xmlns="http://www.w3.org/2000/svg" xmlns:xlink="http://www.w3.org/1999/xlink" fill="#000000" height="299.6" preserveAspectRatio="xMidYMid" version="1.1" viewBox="0.1 -0.1 255.3 299.6" width="255.3" zoomAndPan="magnify">
 <g>
  <path d="m10.584 156.41v-0.21-32.54h7.136v35.25c0.332 2.84 0.088 5.72-0.718 8.47-0.805 2.74-2.155 5.3-3.968 7.51-3.3715 2.91-7.691 4.48-12.143 4.42l-0.74519-5.33c2.8714 0.01 5.6415-1.06 7.7753-2.98 1.9172-2.24 2.6629-5.27 2.6629-14.59zm53.22-4.2c0 3.99 0 7.56 0.319 10.65h-6.337l-0.426-6.34c-1.326 2.25-3.221 4.1-5.494 5.37s-4.843 1.92-7.447 1.88c-6.178 0-13.527-3.36-13.527-17.05v-22.74h7.136v21.31c0 7.4 2.29 12.35 8.734 12.35 1.326 0.02 2.641-0.24 3.869-0.74 1.227-0.5 2.343-1.24 3.28-2.18 0.938-0.93 1.678-2.05 2.179-3.28 0.501-1.22 0.752-2.54 0.737-3.86v-23.86h7.136v28.28l-0.159 0.21zm13.527-15.56c0-4.95 0-9-0.32-12.67h6.391l0.319 6.66c1.424-2.41 3.474-4.38 5.931-5.71 2.457-1.34 5.23-1.98 8.022-1.86 9.476 0 16.616 7.94 16.616 19.76 0 13.95-8.57 20.88-17.841 20.88-2.371 0.1-4.73-0.4-6.848-1.48-2.118-1.07-3.923-2.67-5.241-4.65v21.31h-7.029v-42.08-0.16zm7.029 10.39c0.02 0.96 0.127 1.93 0.32 2.87 0.604 2.37 1.98 4.46 3.909 5.96 1.929 1.49 4.301 2.3 6.742 2.3 7.509 0 11.929-6.13 11.929-15.02 0-7.77-4.15-14.43-11.663-14.43-2.971 0.24-5.752 1.56-7.821 3.71-2.068 2.15-3.283 4.97-3.416 7.95v6.66zm42.64-23.1l8.58 22.96c0.9 2.55 1.86 5.64 2.5 7.93 0.75-2.34 1.55-5.32 2.5-8.09l7.78-22.8h7.51l-10.65 27.7c-5.33 13.31-8.58 20.18-13.48 24.33-2.46 2.26-5.47 3.84-8.73 4.58l-1.76-5.96c2.28-0.75 4.4-1.92 6.23-3.46 2.6-2.12 4.66-4.82 6.02-7.88 0.29-0.53 0.49-1.11 0.59-1.71-0.06-0.64-0.22-1.27-0.48-1.86l-14.49-35.84h7.78l0.1 0.1zm47.81-11.17v11.18h10.23v5.33h-10.23v20.98c0 4.8 1.39 7.56 5.33 7.56 1.4 0.03 2.8-0.13 4.15-0.47l0.32 5.32c-2.03 0.71-4.18 1.03-6.33 0.96-1.43 0.09-2.86-0.13-4.19-0.65-1.34-0.51-2.54-1.31-3.54-2.33-2.17-2.9-3.16-6.52-2.77-10.12v-21.3h-6.07v-5.33h6.18v-9.48l6.92-1.65zm23.37 31.88c-0.14 1.8 0.11 3.62 0.74 5.32 0.62 1.7 1.61 3.24 2.89 4.53 1.28 1.28 2.83 2.26 4.53 2.89s3.51 0.88 5.32 0.73c3.65 0.08 7.28-0.61 10.65-2.02l1.22 5.32c-4.13 1.71-8.57 2.52-13.04 2.4-2.61 0.18-5.22-0.21-7.66-1.14-2.44-0.92-4.66-2.37-6.49-4.23s-3.24-4.09-4.12-6.55c-0.89-2.46-1.23-5.08-1.01-7.68 0-11.71 6.97-20.98 18.37-20.98 12.78 0 15.98 11.18 15.98 18.32 0.07 1.1 0.07 2.2 0 3.3h-27.54l0.16-0.21zm20.88-5.33c0.21-1.42 0.1-2.87-0.3-4.25-0.4-1.39-1.1-2.66-2.03-3.75-0.94-1.09-2.1-1.97-3.41-2.57-1.31-0.61-2.73-0.92-4.16-0.93-2.93 0.21-5.67 1.51-7.69 3.64-2.02 2.12-3.17 4.93-3.23 7.86h20.82zm17.33-3.27c0-4.58 0-8.52-0.32-12.14h6.39v7.62h0.32c0.67-2.35 2.05-4.44 3.96-5.96 1.91-1.53 4.25-2.43 6.69-2.56 0.67-0.09 1.35-0.09 2.02 0v6.65c-0.81-0.09-1.64-0.09-2.45 0-2.42 0.1-4.72 1.07-6.47 2.73-1.76 1.67-2.84 3.92-3.06 6.33-0.2 1.09-0.31 2.19-0.32 3.3v20.71h-7.03v-26.62l0.27-0.06z" fill="#273339"/>
  <path d="m233.26 16.962c0.22 3.578-0.63 7.14-2.45 10.232-1.81 3.092-4.5 5.575-7.73 7.132-3.23 1.556-6.85 2.117-10.4 1.61-3.55-0.508-6.86-2.06-9.53-4.459-2.66-2.399-4.55-5.537-5.42-9.013s-0.69-7.134 0.52-10.507 3.4-6.3089 6.29-8.4335c2.88-2.1247 6.34-3.3418 9.92-3.4966 2.35-0.12915 4.7 0.20707 6.91 0.9894 2.22 0.7823 4.26 1.9952 6.01 3.5691 1.75 1.5738 3.17 3.4775 4.17 5.6016 1.01 2.124 1.59 4.427 1.71 6.775z" fill="#273339"/>
  <path d="m127.95 225.54c-47.926 0-90.052-17.2-111.83-42.6 8.448 22.85 23.698 42.56 43.692 56.49 19.995 13.92 43.778 21.39 68.138 21.39 24.37 0 48.15-7.47 68.14-21.39 20-13.93 35.25-33.64 43.7-56.49-21.73 25.4-63.69 42.6-111.84 42.6z" fill="#273339"/>
  <path d="m127.95 60.354c47.93 0 90.06 17.202 111.84 42.606-8.45-22.854-23.7-42.569-43.7-56.493-19.99-13.924-43.77-21.389-68.14-21.389-24.36 0-48.143 7.465-68.138 21.389-19.994 13.924-35.244 33.639-43.695 56.493 21.781-25.457 63.694-42.606 111.83-42.606z" fill="#273339"/>
  <path d="m61.972 274.98c0.281 4.5-0.786 8.99-3.065 12.89s-5.666 7.03-9.731 8.99c-4.065 1.97-8.623 2.68-13.093 2.05-4.47-0.64-8.651-2.59-12.009-5.61s-5.741-6.97-6.847-11.34c-1.105-4.38-0.882-8.99 0.641-13.24s4.277-7.95 7.911-10.63 7.983-4.22 12.494-4.42c2.955-0.15 5.912 0.27 8.703 1.26 2.79 0.98 5.359 2.51 7.56 4.48 2.2 1.98 3.99 4.38 5.266 7.05 1.276 2.66 2.013 5.56 2.17 8.52z" fill="#273339"/>
  <path d="m21.564 54.565c-2.583 0.071-5.129-0.623-7.318-1.994-2.189-1.372-3.924-3.361-4.9862-5.716-1.0621-2.355-1.4042-4.972-0.9831-7.521 0.421-2.549 1.5864-4.917 3.3493-6.805 1.763-1.889 4.045-3.214 6.56-3.809 2.514-0.594 5.148-0.433 7.57 0.465 2.423 0.898 4.526 2.493 6.044 4.583 1.519 2.09 2.386 4.582 2.492 7.164 0.101 3.49-1.179 6.88-3.562 9.432-2.383 2.553-5.677 4.062-9.166 4.201z" fill="#273339"/>
 </g>
</svg>