<?xml version="1.0" encoding="UTF-8" standalone="no"?><svg xmlns="http://www.w3.org/2000/svg" xmlns:xlink="http://www.w3.org/1999/xlink" fill="#000000" height="25.9" preserveAspectRatio="xMidYMid meet" version="1" viewBox="-0.4 -0.3 26.0 25.9" width="26" zoomAndPan="magnify">
 <g id="change1_1"><path d="m179.08 94.886c-3.568-0.1-6.336 0.268-8.656 1.25-0.668 0.27-1.74 0.27-1.828 1.116 0.357 0.355 0.4 0.936 0.713 1.428 0.535 0.893 1.473 2.096 2.32 2.72l2.855 2.053c1.74 1.07 3.703 1.695 5.398 2.766 0.982 0.625 1.963 1.428 2.945 2.098 0.5 0.357 0.803 0.938 1.428 1.16v-0.135c-0.312-0.4-0.402-0.98-0.713-1.428l-1.34-1.293c-1.293-1.74-2.9-3.258-4.64-4.506-1.428-0.982-4.55-2.32-5.13-3.97l-0.088-0.1c0.98-0.1 2.14-0.447 3.078-0.715 1.518-0.4 2.9-0.312 4.46-0.713l2.143-0.625v-0.4c-0.803-0.803-1.383-1.874-2.23-2.632-2.275-1.963-4.775-3.882-7.363-5.488-1.383-0.892-3.168-1.473-4.64-2.23-0.537-0.268-1.428-0.402-1.74-0.848-0.805-0.98-1.25-2.275-1.83-3.436l-3.658-7.763c-0.803-1.74-1.295-3.48-2.275-5.086-4.596-7.585-9.594-12.18-17.268-16.687-1.65-0.937-3.613-1.34-5.7-1.83l-3.346-0.18c-0.715-0.312-1.428-1.16-2.053-1.562-2.543-1.606-9.102-5.086-10.977-0.5-1.205 2.9 1.785 5.755 2.8 7.228 0.76 1.026 1.74 2.186 2.277 3.346 0.3 0.758 0.4 1.562 0.713 2.365 0.713 1.963 1.383 4.15 2.32 5.98 0.5 0.937 1.025 1.92 1.65 2.767 0.357 0.5 0.982 0.714 1.115 1.517-0.625 0.893-0.668 2.23-1.025 3.347-1.607 5.042-0.982 11.288 1.293 15 0.715 1.115 2.4 3.57 4.686 2.632 2.008-0.803 1.56-3.346 2.14-5.577 0.135-0.535 0.045-0.892 0.312-1.25v0.1l1.83 3.703c1.383 2.186 3.793 4.462 5.8 5.98 1.07 0.803 1.918 2.187 3.256 2.677v-0.135h-0.088c-0.268-0.4-0.67-0.58-1.027-0.892-0.803-0.803-1.695-1.785-2.32-2.677-1.873-2.498-3.523-5.265-4.996-8.12-0.715-1.383-1.34-2.9-1.918-4.283-0.27-0.536-0.27-1.34-0.715-1.606-0.67 0.98-1.65 1.83-2.143 3.034-0.848 1.918-0.936 4.283-1.248 6.737-0.18 0.045-0.1 0-0.18 0.1-1.426-0.356-1.918-1.83-2.453-3.078-1.338-3.168-1.562-8.254-0.402-11.913 0.312-0.937 1.652-3.882 1.117-4.774-0.27-0.848-1.16-1.338-1.652-2.008-0.58-0.848-1.203-1.918-1.605-2.855-1.07-2.5-1.605-5.265-2.766-7.764-0.537-1.16-1.473-2.365-2.232-3.435-0.848-1.205-1.783-2.053-2.453-3.48-0.223-0.5-0.535-1.294-0.178-1.83 0.088-0.357 0.268-0.5 0.623-0.58 0.58-0.5 2.232 0.134 2.812 0.4 1.65 0.67 3.033 1.294 4.416 2.23 0.625 0.446 1.295 1.294 2.098 1.518h0.938c1.428 0.312 3.033 0.1 4.37 0.5 2.365 0.76 4.506 1.874 6.426 3.08 5.844 3.703 10.664 8.968 13.92 15.26 0.535 1.026 0.758 1.963 1.25 3.034 0.938 2.187 2.098 4.417 3.033 6.56 0.938 2.097 1.83 4.24 3.168 5.98 0.67 0.937 3.346 1.427 4.55 1.918 0.893 0.4 2.275 0.76 3.08 1.25 1.516 0.937 3.033 2.008 4.46 3.034 0.713 0.534 2.945 1.65 3.078 2.54zm-45.5-38.772a7.09 7.09 0 0 0 -1.828 0.223v0.1h0.088c0.357 0.714 0.982 1.205 1.428 1.83l1.027 2.142 0.088-0.1c0.625-0.446 0.938-1.16 0.938-2.23-0.268-0.312-0.312-0.625-0.535-0.937-0.268-0.446-0.848-0.67-1.206-1.026z" fill="#273339" fill-rule="evenodd" transform="matrix(.39023 0 0 .38781 -46.3 -16.857)"/></g>
</svg>