<?xml version="1.0" encoding="UTF-8" standalone="no"?><svg xmlns="http://www.w3.org/2000/svg" xmlns:xlink="http://www.w3.org/1999/xlink" fill="#545454" height="62" preserveAspectRatio="xMidYMid meet" version="1" viewBox="0.0 0.0 62.0 62.0" width="62" zoomAndPan="magnify"><g id="change1_1"><path d="M12,43H4.414C3.888,43,3.372,43.213,3,43.586L0.586,46C0.208,46.378,0,46.88,0,47.414V60c0,1.103,0.897,2,2,2h10 c1.103,0,2-0.897,2-2V45C14,43.897,13.103,43,12,43z M4,45.414V47H2.414L4,45.414z M12,60H2V49h2c1.103,0,2-0.897,2-2v-2h6V60z" fill="inherit"/><path d="M4 51H10V53H4z" fill="inherit"/><path d="M4 55H10V57H4z" fill="inherit"/><path d="M8 47H10V49H8z" fill="inherit"/><path d="M60,46H48c-1.103,0-2,0.897-2,2v12c0,1.103,0.897,2,2,2h12c1.103,0,2-0.897,2-2V48C62,46.897,61.103,46,60,46z M55,60v-6 h-2v6h-5V48h5v4h2v-4h5l0.001,12H55z" fill="inherit"/><path d="M40.293,52.707L41.586,54h-6.793C43.725,50.183,50,41.311,50,31c0-3.192-0.655-6.234-1.836-9H54c1.103,0,2-0.897,2-2V8 c0-1.103-0.897-2-2-2h-2c-1.103,0-2,0.897-2,2v12h-2v-8.035c0-1.103-0.897-2-2-2h-2c-1.103,0-2,0.897-2,2v1.621 c-1.608-1.387-3.407-2.555-5.356-3.459C38.286,5.304,42.838,2,48,2c6.617,0,12,5.383,12,12c0,4.521-2.558,8.622-6.499,10.66 l0.447-1.343l-1.896-0.633l-1.242,3.725l3.636,2.424l1.109-1.664l-1.115-0.743C59.025,24.044,62,19.266,62,14c0-7.72-6.28-14-14-14 c-5.979,0-11.26,3.798-13.21,9.361C32.356,8.482,29.733,8,27,8C14.317,8,4,18.318,4,31v5.586l-1.293-1.293l-1.414,1.414L5,40.414 l3.707-3.707l-1.414-1.414L6,36.586V31c0-11.58,9.421-21,21-21s21,9.42,21,21c0,12.682-10.317,23-23,23h-7h-2v2h2h7h16.586 l-1.293,1.293l1.414,1.414L45.414,55l-3.707-3.707L40.293,52.707z M52,8h2v12h-2V8z M46,11.965v6.091 c-0.608-0.89-1.276-1.737-2-2.531v-3.56H46z" fill="inherit"/><path d="M27,40c4.963,0,9-4.038,9-9s-4.037-9-9-9s-9,4.038-9,9S22.037,40,27,40z M27,24c3.859,0,7,3.14,7,7s-3.141,7-7,7 s-7-3.14-7-7S23.141,24,27,24z" fill="inherit"/><path d="M27,36c2.757,0,5-2.243,5-5s-2.243-5-5-5s-5,2.243-5,5S24.243,36,27,36z M27,28c1.654,0,3,1.346,3,3s-1.346,3-3,3 s-3-1.346-3-3S25.346,28,27,28z" fill="inherit"/><path d="M14.929,27H12v8h2.929c0.62,0,0.864,0.473,0.925,0.618c0.06,0.145,0.221,0.651-0.218,1.089l-2.07,2.071l5.656,5.657 l2.071-2.071c0.438-0.438,0.945-0.276,1.09-0.217C22.527,42.207,23,42.451,23,43.071V46h8v-2.929c0-0.62,0.473-0.864,0.617-0.924 c0.145-0.061,0.652-0.222,1.09,0.217l2.071,2.071l5.656-5.657l-2.07-2.072c-0.438-0.438-0.277-0.944-0.218-1.089 C38.207,35.473,38.451,35,39.071,35H42v-8h-2.929c-0.62,0-0.864-0.473-0.925-0.618c-0.06-0.145-0.221-0.651,0.218-1.089l2.07-2.071 l-5.656-5.657l-2.071,2.071c-0.437,0.438-0.944,0.277-1.09,0.217C31.473,19.793,31,19.549,31,18.929V16h-8v2.929 c0,0.62-0.473,0.864-0.617,0.924c-0.146,0.06-0.653,0.221-1.09-0.217l-2.071-2.071l-5.656,5.657l2.07,2.072 c0.438,0.438,0.277,0.944,0.218,1.089C15.793,26.527,15.549,27,14.929,27z M17.05,23.879l-0.656-0.657l2.828-2.829l0.657,0.657 c0.874,0.875,2.127,1.125,3.27,0.65C24.29,21.228,25,20.166,25,18.929V18h4v0.929c0,1.236,0.71,2.298,1.852,2.771 c1.146,0.475,2.396,0.224,3.27-0.65l0.657-0.657l2.828,2.829l-0.656,0.657c-0.874,0.874-1.124,2.127-0.651,3.269 C36.772,28.29,37.834,29,39.071,29H40v4h-0.929c-1.237,0-2.299,0.71-2.772,1.853c-0.473,1.142-0.223,2.395,0.651,3.269l0.656,0.657 l-2.828,2.829l-0.657-0.657c-0.873-0.874-2.124-1.124-3.27-0.65C29.71,40.772,29,41.834,29,43.071V44h-4v-0.929 c0-1.236-0.71-2.298-1.852-2.771c-1.143-0.474-2.396-0.223-3.27,0.65l-0.657,0.657l-2.828-2.829l0.656-0.657 c0.874-0.874,1.124-2.127,0.651-3.269C17.228,33.71,16.166,33,14.929,33H14v-4h0.929c1.237,0,2.299-0.71,2.772-1.853 C18.174,26.005,17.924,24.752,17.05,23.879z" fill="inherit"/><path d="M4,6h2c1.103,0,2-0.897,2-2V2c0-1.103-0.897-2-2-2H4C2.897,0,2,0.897,2,2v2C2,5.103,2.897,6,4,6z M4,2h2l0.001,2H4V2z" fill="inherit"/><path d="M12,6h2c1.103,0,2-0.897,2-2V2c0-1.103-0.897-2-2-2h-2c-1.103,0-2,0.897-2,2v2C10,5.103,10.897,6,12,6z M12,2h2l0.001,2H12 V2z" fill="inherit"/><path d="M20,6h2c1.103,0,2-0.897,2-2V2c0-1.103-0.897-2-2-2h-2c-1.103,0-2,0.897-2,2v2C18,5.103,18.897,6,20,6z M20,2h2l0.001,2H20 V2z" fill="inherit"/></g></svg>