<?xml version="1.0" encoding="UTF-8" standalone="no"?><svg xmlns="http://www.w3.org/2000/svg" xmlns:xlink="http://www.w3.org/1999/xlink" fill="#273339" height="73.3" preserveAspectRatio="xMidYMid meet" version="1" viewBox="10.0 13.3 80.0 73.3" width="80" zoomAndPan="magnify"><g id="change1_1"><path d="M83.333,13.333H16.667c-3.666,0-6.667,3-6.667,6.667v60c0,3.666,3.001,6.666,6.667,6.666h66.666 c3.666,0,6.667-3,6.667-6.666V20C90,16.333,86.999,13.333,83.333,13.333z M83.333,80H16.667V20h66.666V80z" fill="inherit"/></g><g id="change1_2"><path d="M23.333 26.667H36.667V33.334H23.333z" fill="inherit"/></g><g id="change1_3"><path d="M43.333 26.667H56.667V33.334H43.333z" fill="inherit"/></g><g id="change1_4"><path d="M63.333 26.667H76.667V33.334H63.333z" fill="inherit"/></g><g id="change1_5"><path d="M23.333 40H36.667V46.667H23.333z" fill="inherit"/></g><g id="change1_6"><path d="M43.333 40H56.667V46.667H43.333z" fill="inherit"/></g><g id="change1_7"><path d="M63.333 40H76.667V46.667H63.333z" fill="inherit"/></g><g id="change1_8"><path d="M23.333 53.334H36.667V60H23.333z" fill="inherit"/></g><g id="change1_9"><path d="M63.333 53.334H76.667V60H63.333z" fill="inherit"/></g><g id="change1_10"><path d="M23.333 66.666H36.667V73.334H23.333z" fill="inherit"/></g></svg>