<?xml version="1.0" encoding="UTF-8" standalone="no"?><svg xmlns="http://www.w3.org/2000/svg" xmlns:xlink="http://www.w3.org/1999/xlink" fill="#000000" height="31.1" preserveAspectRatio="xMidYMid meet" version="1" viewBox="-0.1 0.5 32.2 31.1" width="32.2" zoomAndPan="magnify">
 <g id="change1_1"><path d="m15.9 0.476a2.14 2.14 0 0 0 -0.823 0.218l-11.145 5.316c-0.582 0.277-1.005 0.804-1.15 1.432l-2.728 11.931c-0.13 0.56-0.025 1.147 0.3 1.627q0.057 0.087 0.12 0.168l7.7 9.574c0.407 0.5 1.018 0.787 1.662 0.784h12.35c0.646 0.001 1.258-0.3 1.664-0.793l7.696-9.576c0.404-0.5 0.555-1.16 0.4-1.786l-2.746-11.941c-0.145-0.628-0.57-1.155-1.15-1.432l-11.127-5.303a2.14 2.14 0 0 0 -1.033 -0.219z" fill="#737373"/></g>
 <g id="change2_1"><path d="m16.002 4.542c-0.384 0.027-0.675 0.356-0.655 0.74v0.188c0.018 0.213 0.05 0.424 0.092 0.633a6.22 6.22 0 0 1 0.066 1.21c-0.038 0.133-0.114 0.253-0.218 0.345l-0.015 0.282c-0.405 0.034-0.807 0.096-1.203 0.186-1.666 0.376-3.183 1.24-4.354 2.485l-0.24-0.17c-0.132 0.04-0.274 0.025-0.395-0.04a6.22 6.22 0 0 1 -0.897 -0.81 5.55 5.55 0 0 0 -0.437 -0.465l-0.148-0.118c-0.132-0.106-0.294-0.167-0.463-0.175a0.64 0.64 0 0 0 -0.531 0.236c-0.226 0.317-0.152 0.756 0.164 0.983l0.138 0.11a5.55 5.55 0 0 0 0.552 0.323c0.354 0.197 0.688 0.428 0.998 0.7a0.74 0.74 0 0 1 0.133 0.384l0.218 0.2c-1.177 1.766-1.66 3.905-1.358 6.006l-0.28 0.08c-0.073 0.116-0.17 0.215-0.286 0.288a6.22 6.22 0 0 1 -1.194 0.197 5.57 5.57 0 0 0 -0.64 0.05l-0.177 0.04h-0.02a0.67 0.67 0 0 0 -0.387 1.132 0.67 0.67 0 0 0 0.684 0.165h0.013l0.18-0.02c0.203-0.06 0.403-0.134 0.598-0.218 0.375-0.15 0.764-0.265 1.162-0.34 0.138 0.008 0.27 0.055 0.382 0.135l0.3-0.05c0.65 2.017 2.016 3.726 3.84 4.803l-0.122 0.255c0.056 0.117 0.077 0.247 0.06 0.376-0.165 0.382-0.367 0.748-0.603 1.092a5.58 5.58 0 0 0 -0.358 0.533l-0.085 0.18a0.67 0.67 0 0 0 0.65 1.001 0.67 0.67 0 0 0 0.553 -0.432l0.083-0.17c0.076-0.2 0.14-0.404 0.192-0.61 0.177-0.437 0.273-0.906 0.515-1.196a0.54 0.54 0 0 1 0.286 -0.14l0.15-0.273a8.62 8.62 0 0 0 6.146 0.015l0.133 0.255c0.136 0.02 0.258 0.095 0.34 0.205 0.188 0.358 0.34 0.733 0.456 1.12a5.57 5.57 0 0 0 0.194 0.611l0.083 0.17a0.67 0.67 0 0 0 1.187 0.131 0.67 0.67 0 0 0 0.016 -0.701l-0.087-0.18a5.55 5.55 0 0 0 -0.358 -0.531c-0.23-0.332-0.428-0.686-0.6-1.057a0.52 0.52 0 0 1 0.068 -0.4 2.29 2.29 0 0 1 -0.111 -0.269c1.82-1.085 3.18-2.8 3.823-4.82l0.284 0.05c0.102-0.093 0.236-0.142 0.373-0.138 0.397 0.076 0.786 0.2 1.162 0.34 0.195 0.09 0.395 0.166 0.598 0.23 0.048 0.013 0.118 0.024 0.172 0.037h0.013a0.67 0.67 0 0 0 0.841 -0.851 0.67 0.67 0 0 0 -0.544 -0.446l-0.194-0.046a5.57 5.57 0 0 0 -0.64 -0.05c-0.404-0.026-0.804-0.092-1.194-0.197-0.12-0.067-0.22-0.167-0.288-0.288l-0.27-0.08a8.65 8.65 0 0 0 -1.386 -5.993l0.236-0.218c-0.01-0.137 0.035-0.273 0.124-0.378 0.307-0.264 0.64-0.497 0.99-0.696a5.57 5.57 0 0 0 0.552 -0.323l0.146-0.118a0.67 0.67 0 0 0 -0.133 -1.202 0.67 0.67 0 0 0 -0.696 0.161l-0.148 0.118a5.57 5.57 0 0 0 -0.437 0.465c-0.264 0.302-0.556 0.577-0.873 0.823a0.74 0.74 0 0 1 -0.404 0.044l-0.253 0.18c-1.46-1.53-3.427-2.48-5.535-2.67 0-0.1-0.013-0.25-0.015-0.297-0.113-0.078-0.192-0.197-0.218-0.332a6.23 6.23 0 0 1 0.076 -1.207c0.043-0.21 0.073-0.42 0.092-0.633v-0.2c0.02-0.384-0.27-0.713-0.655-0.74zm-0.834 5.166l-0.2 3.493h-0.015c-0.01 0.216-0.137 0.4-0.332 0.504s-0.426 0.073-0.6-0.054l-2.865-2.03a6.86 6.86 0 0 1 3.303 -1.799c0.234-0.05 0.47-0.088 0.707-0.114zm1.668 0c1.505 0.187 2.906 0.863 3.99 1.924l-2.838 2.017c-0.175 0.14-0.415 0.168-0.618 0.072s-0.333-0.3-0.336-0.524zm-6.72 3.227l2.62 2.338v0.015c0.163 0.142 0.234 0.363 0.186 0.574s-0.21 0.378-0.417 0.435v0.01l-3.362 0.967a6.86 6.86 0 0 1 0.974 -4.34zm11.753 0c0.796 1.295 1.148 2.814 1.002 4.327l-3.367-0.97v-0.013c-0.21-0.057-0.37-0.224-0.417-0.435s0.023-0.43 0.186-0.574l2.6-2.327zm-6.404 2.52h1.072l0.655 0.832-0.238 1.04-0.963 0.463-0.965-0.463-0.227-1.04zm3.434 2.838c0.045-0.005 0.1-0.005 0.135 0l3.467 0.585c-0.5 1.44-1.487 2.67-2.775 3.493l-1.34-3.244a0.59 0.59 0 0 1 0.509 -0.819zm-5.823 0.015c0.196 0.003 0.377 0.104 0.484 0.268s0.124 0.37 0.047 0.55v0.013l-1.332 3.218c-1.275-0.817-2.243-2.032-2.758-3.457l3.437-0.583c0.038-0.004 0.077-0.004 0.116 0zm2.904 1.4a0.59 0.59 0 0 1 0.537 0.308h0.013l1.694 3.057-0.677 0.2c-1.246 0.285-2.547 0.218-3.758-0.194l1.7-3.057c0.103-0.18 0.293-0.29 0.5-0.295z" fill="#ffffff" stroke="#ffffff" stroke-width="0.055"/></g>
</svg>