<?xml version="1.0" encoding="UTF-8" standalone="no"?><svg xmlns="http://www.w3.org/2000/svg" xmlns:xlink="http://www.w3.org/1999/xlink" fill="#999999" height="83.5" preserveAspectRatio="xMidYMid meet" version="1" viewBox="4.4 4.9 84.6 83.5" width="84.6" zoomAndPan="magnify"><g id="change1_1"><path d="M80.5,67.9c-4.3-1.4-9.8-3.2-15.2-4.5c-1.1-0.3-3.6-0.3-4.7,1.5l-3.4,5.2c-0.3,0.4-0.7,0.6-1.1,0.7c-1,0.1-2.1-0.1-2.9-0.8 C51,68.6,42.5,60.8,37.5,56c-5-5.2-12.6-13.6-14.2-15.8c-0.6-0.8-0.9-1.9-0.8-2.9c0.1-0.5,0.3-0.9,0.7-1.1l5.2-3.4 c1.2-0.8,1.8-3.6,1.5-4.7c-1-4.2-2.3-8.9-4.4-15.1c-0.5-1.3-2.5-2.9-5.7-1.8C15.5,13,11.5,15.6,8.1,19c-1,1-1.9,2-2.7,3.1 c-0.2,0.2-0.3,0.5-0.3,0.7c-0.7,12.5,7.7,29.3,21.4,42.9c13.2,13.8,30.1,22.7,42.8,22.7c0.5,0,0.9,0,1.4,0c0.3,0,0.5-0.1,0.7-0.3 c1.1-0.9,2.1-1.8,3.1-2.7c2.7-2.7,4.9-5.8,6.7-9.1l0,0l0,0c0.4-0.9,0.8-1.7,1.2-2.6C82.8,72.3,83.6,68.9,80.5,67.9z M20.8,13.4 c0.9-0.3,2.1-0.1,2.4,0.5c2,6.1,3.4,10.7,4.3,14.8c0.2,0.7,0,1.7-0.5,2.1l-1.2,0.8c-3.8-5.1-6.1-11.1-6.7-17.4 C19.1,14.2,20.2,13.7,20.8,13.4z M80.1,72.7c-0.2,0.6-0.5,1.1-0.7,1.6l0,0c-11.7-1.9-16.2-5.2-17.5-6.4l0,0l0.9-1.4 c0.5-0.7,1.4-0.7,2.1-0.5c5.1,1.2,10.6,3,14.8,4.3C80.4,70.5,80.4,71.8,80.1,72.7z" fill="inherit"/><path d="M42.6,4.9c-0.7,0-1.2,0.6-1.2,1.2s0.6,1.2,1.2,1.2l0,0c24.3,0,43.9,19.7,43.9,43.9c0,0.7,0.6,1.2,1.2,1.2s1.2-0.6,1.2-1.2 C89,25.7,68.2,5,42.6,4.9z" fill="inherit"/><path d="M64.3,29.7c5.8,5.7,9,13.5,9,21.7c0,0.7,0.6,1.2,1.2,1.2s1.2-0.6,1.2-1.2c0-18.3-14.9-33.2-33.2-33.2l0,0 c-0.7,0-1.2,0.6-1.2,1.2c0,0.7,0.5,1.2,1.1,1.3c0,0,0.1,0,0.1,0C50.7,20.7,58.5,23.9,64.3,29.7z" fill="inherit"/><path d="M42.6,34.7c9.2,0,16.7,7.5,16.7,16.7c0,0.7,0.6,1.2,1.2,1.2s1.2-0.6,1.2-1.2c0-10.6-8.6-19.2-19.2-19.2 c-0.7,0-1.2,0.6-1.2,1.2S41.9,34.7,42.6,34.7z" fill="inherit"/></g></svg>