<?xml version="1.0" encoding="UTF-8" standalone="no"?><svg xmlns="http://www.w3.org/2000/svg" xmlns:xlink="http://www.w3.org/1999/xlink" fill="#737373" height="32.7" preserveAspectRatio="xMidYMid meet" version="1" viewBox="6.0 9.3 36.0 32.7" width="36" zoomAndPan="magnify"><g><path d="M0,0H48V48H0Z" fill="none"/><g id="change1_1"><path d="M36,42H12a6.006,6.006,0,0,1-6-6V34a2,2,0,0,1,4,0v2a2,2,0,0,0,2,2H36a2,2,0,0,0,2-2V34a2,2,0,0,1,4,0v2A6.006,6.006,0,0,1,36,42Z"/></g><g id="change1_2"><path d="M32,34H16a2,2,0,0,1,0-4H32a2,2,0,0,1,0,4Z"/></g><g id="change1_3"><path d="M32.559,28.836c-.07,0-.141,0-.212-.011L16.435,27.153a2,2,0,1,1,.418-3.978l15.912,1.672a2,2,0,0,1-.206,3.989Z"/></g><g id="change1_4"><path d="M33.228,23.664a1.993,1.993,0,0,1-.418-.044L17.158,20.292a2,2,0,0,1,.832-3.912l15.652,3.328a2,2,0,0,1-.414,3.956Z"/></g><g id="change1_5"><path d="M35.409,18.473a2.027,2.027,0,0,1-.619-.1L19.574,13.431a2,2,0,0,1,1.236-3.8l15.216,4.943a2,2,0,0,1-.617,3.9Z"/></g></g></svg>