<?xml version="1.0" encoding="UTF-8" standalone="no"?><svg xmlns="http://www.w3.org/2000/svg" xmlns:xlink="http://www.w3.org/1999/xlink" fill="#000000" height="237.4" preserveAspectRatio="xMidYMid" version="1.1" viewBox="-0.0 -4.8 256.0 237.4" width="256" zoomAndPan="magnify">
 <g>
  <path d="m210.48 73.824c-2.65-0.914-5.4-1.779-8.24-2.597 0.47-1.901 0.9-3.777 1.28-5.621 6.23-30.281 2.16-54.676-11.77-62.708-13.36-7.7009-35.2 0.329-57.26 19.526-2.12 1.846-4.25 3.8-6.37 5.848-1.42-1.355-2.83-2.664-4.24-3.917-23.12-20.526-46.293-29.177-60.207-21.122-13.343 7.724-17.294 30.657-11.678 59.355 0.542 2.772 1.176 5.603 1.892 8.481-3.279 0.931-6.445 1.923-9.474 2.979-27.104 9.449-44.413 24.259-44.413 39.622 0 15.86 18.582 31.78 46.812 41.43 2.227 0.76 4.539 1.48 6.921 2.16-0.773 3.11-1.445 6.16-2.01 9.14-5.354 28.2-1.173 50.59 12.134 58.26 13.744 7.93 36.813-0.22 59.273-19.85 1.78-1.55 3.56-3.2 5.34-4.92 2.32 2.22 4.63 4.33 6.92 6.31 21.76 18.72 43.25 26.28 56.54 18.59 13.73-7.95 18.2-32.01 12.4-61.27-0.44-2.24-0.96-4.52-1.53-6.84 1.62-0.48 3.21-0.98 4.76-1.49 29.35-9.73 48.44-25.44 48.44-41.52 0-15.419-17.87-30.328-45.52-39.846zm-6.36 70.986c-1.4 0.46-2.84 0.91-4.3 1.34-3.24-10.25-7.61-21.16-12.97-32.43 5.11-11 9.31-21.766 12.46-31.956 2.62 0.758 5.16 1.557 7.61 2.4 23.69 8.156 38.14 20.216 38.14 29.506 0 9.89-15.6 22.74-40.94 31.14zm-10.52 20.83c2.57 12.94 2.93 24.64 1.23 33.79-1.52 8.22-4.59 13.7-8.38 15.89-8.07 4.67-25.32-1.4-43.92-17.41-2.14-1.84-4.29-3.8-6.44-5.87 7.21-7.89 14.42-17.06 21.46-27.25 12.37-1.09 24.06-2.89 34.67-5.34 0.52 2.11 0.98 4.17 1.38 6.19zm-106.32 48.87c-7.882 2.79-14.16 2.87-17.955 0.68-8.075-4.66-11.432-22.64-6.853-46.75 0.525-2.76 1.149-5.6 1.869-8.5 10.486 2.32 22.093 3.99 34.498 4.99 7.085 9.97 14.505 19.13 21.975 27.15-1.63 1.58-3.26 3.08-4.88 4.49-9.93 8.69-19.882 14.85-28.654 17.94zm-36.927-69.76c-12.483-4.27-22.792-9.81-29.858-15.87-6.35-5.43-9.555-10.83-9.555-15.21 0-9.32 13.897-21.214 37.076-29.295 2.813-0.981 5.757-1.905 8.812-2.773 3.204 10.42 7.406 21.318 12.477 32.328-5.137 11.18-9.399 22.25-12.634 32.8-2.178-0.63-4.288-1.29-6.318-1.98zm12.378-84.262c-4.811-24.588-1.616-43.135 6.425-47.79 8.564-4.9579 27.502 2.111 47.458 19.835 1.28 1.133 2.56 2.318 3.85 3.545-7.44 7.987-14.79 17.079-21.812 26.988-12.04 1.116-23.565 2.908-34.161 5.309-0.666-2.68-1.256-5.313-1.76-7.887zm110.42 27.267c-2.53-4.375-5.13-8.647-7.78-12.803 8.17 1.033 15.99 2.404 23.34 4.081-2.2 7.071-4.95 14.464-8.19 22.047-2.32-4.412-4.78-8.857-7.37-13.325zm-45.03-43.861c5.05 5.465 10.1 11.566 15.07 18.186-5.01-0.236-10.08-0.359-15.19-0.359-5.06 0-10.09 0.12-15.07 0.353 4.97-6.559 10.07-12.652 15.19-18.18zm-45.318 43.937c-2.53 4.387-4.941 8.808-7.227 13.239-3.184-7.554-5.909-14.981-8.134-22.153 7.304-1.634 15.093-2.971 23.209-3.984-2.689 4.194-5.311 8.497-7.848 12.897v0.001zm8.081 65.349c-8.385-0.93-16.291-2.2-23.593-3.79 2.261-7.3 5.045-14.88 8.298-22.6 2.291 4.43 4.711 8.85 7.257 13.25h0.001c2.593 4.48 5.28 8.86 8.037 13.14zm37.537 31.03c-5.18-5.59-10.35-11.78-15.4-18.43 4.9 0.19 9.9 0.29 14.98 0.29 5.22 0 10.38-0.12 15.45-0.34-4.98 6.77-10.02 12.97-15.03 18.48zm52.2-57.81c3.42 7.8 6.31 15.34 8.6 22.52-7.42 1.69-15.44 3.05-23.88 4.07 2.66-4.21 5.28-8.56 7.86-13.03 2.61-4.52 5.08-9.05 7.42-13.56zm-16.9 8.1c-4 6.94-8.11 13.56-12.28 19.81-7.59 0.54-15.44 0.82-23.44 0.82-7.97 0-15.72-0.24-23.18-0.73-4.34-6.33-8.535-12.97-12.511-19.84h0.001c-3.966-6.85-7.616-13.76-10.923-20.63 3.306-6.88 6.947-13.8 10.89-20.637l-0.001 0.001c3.953-6.855 8.114-13.466 12.414-19.761 7.61-0.576 15.42-0.876 23.31-0.876 7.93 0 15.74 0.303 23.35 0.883 4.24 6.249 8.37 12.838 12.34 19.695 4.01 6.935 7.7 13.805 11.03 20.545-3.32 6.85-7 13.79-11 20.72zm22.56-122.13c8.58 4.944 11.91 24.881 6.52 51.026-0.34 1.668-0.73 3.367-1.15 5.089-10.62-2.451-22.15-4.274-34.22-5.407-7.04-10.017-14.33-19.124-21.65-27.008 1.97-1.892 3.94-3.697 5.89-5.4 18.9-16.447 36.57-22.941 44.61-18.3zm-58.28 78.435c12.62 0 22.86 10.232 22.86 22.862 0 12.62-10.24 22.86-22.86 22.86s-22.86-10.24-22.86-22.86c0-12.63 10.24-22.862 22.86-22.862z" fill="#273339"/>
 </g>
</svg>