<?xml version="1.0" encoding="UTF-8" standalone="no"?><svg xmlns="http://www.w3.org/2000/svg" xmlns:xlink="http://www.w3.org/1999/xlink" fill="#000000" height="255.3" preserveAspectRatio="xMidYMid" version="1.1" viewBox="0.0 -0.0 255.3 255.3" width="255.3" zoomAndPan="magnify">
 <defs>
  <linearGradient id="linearGradient-1" x1="98.031%" x2="58.888%" xlink:actuate="onLoad" xlink:show="other" xlink:type="simple" y1=".16060%" y2="40.766%">
   <stop offset="0.18" stop-color="#545454"/>
   <stop offset="1" stop-color="#545454"/>
  </linearGradient>
  <linearGradient id="linearGradient-2" x1="100.67%" x2="55.402%" xlink:actuate="onLoad" xlink:show="other" xlink:type="simple" y1=".45503%" y2="44.727%">
   <stop offset="0.18" stop-color="#545454"/>
   <stop offset="1" stop-color="#545454"/>
  </linearGradient>
 </defs>
 <g>
  <path d="m244.66 0h-122.95c0 14.72 5.84 28.837 16.25 39.246s24.53 16.256 39.25 16.256h22.65v21.867c0.02 30.621 24.84 55.451 55.46 55.471v-122.17c0-5.8944-4.77-10.67-10.66-10.67z" fill="#545454"/>
  <path d="m183.82 61.262h-122.95c0.021 30.625 24.843 55.448 55.47 55.468h22.65v21.94c0.04 30.62 24.87 55.43 55.5 55.43v-122.17c0-5.892-4.78-10.668-10.67-10.668z" fill="url(#linearGradient-1)"/>
  <path d="m122.95 122.49h-122.95c3.7539e-15 30.65 24.849 55.5 55.502 55.5h22.72v21.87c0.02 30.6 24.798 55.41 55.398 55.46v-122.16c0-5.9-4.78-10.67-10.67-10.67z" fill="url(#linearGradient-2)"/>
 </g>
</svg>