<?xml version="1.0" encoding="UTF-8" standalone="no"?><!-- Generator: Adobe Illustrator 21.0.2, SVG Export Plug-In . SVG Version: 6.00 Build 0)  --><svg xmlns="http://www.w3.org/2000/svg" enable-background="new 0 0 151.8 176.5" fill="#000000" id="Layer_1" version="1.1" viewBox="0 0 151.8 176.5" x="0px" xml:space="preserve" y="0px">
<g id="change1_1"><path d="m71.8 79.7l-60.4 55.9v40.9h140.4v-52.5h-47l13.7-12.4c18.3-16.6 29.6-31.6 29.6-55.7 0-16.7-7.1-30.9-20.4-41-12.8-9.8-30.2-14.9-50.4-14.9-34.5 0-61.1 14.3-74.9 40.3l-2.4 4.5 50.4 25.2 2.2-4.5c3.9-7.7 11.1-12.3 19.5-12.3 10.9 0 10.9 5.7 10.9 7.8 0 4-0.9 9-11.2 18.7z" fill="#273339"/></g>
</svg>