<?xml version="1.0" encoding="UTF-8" standalone="no"?><svg xmlns="http://www.w3.org/2000/svg" xmlns:xlink="http://www.w3.org/1999/xlink" data-name="Layer 1" fill="#000000" height="501.6" preserveAspectRatio="xMidYMid meet" version="1" viewBox="0.0 -1.5 422.3 501.6" width="422.3" zoomAndPan="magnify"><g><g><g><g fill="#273339" id="change1_27"><path d="M365.2842,471.6512l-6.3114,7.1709L49.7845,300.312c-1.9256-1.1116-5.2895-.9723-7.5132.3112L38.3801,302.87l-12.1066-3.3088s-6.5785,5.6689-.856,15.5652c.0321.0577.0571.1158.0922.173l.011.0215c.0371.0627.0898.0902.1283.1494a4.81587,4.81587,0,0,0,.7453.867c.0737.0611.1509.1128.228.1659a6.68087,6.68087,0,0,0,.9242.6746L338.3476,496.6191c3.8516,2.2237,10.58,1.9446,15.027-.623l27.3049-15.8629Z"/><path d="M344.8901,500a15.2021,15.2021,0,0,1-7.4822-1.7546L26.6078,318.8051a8.41159,8.41159,0,0,1-1.1847-.858l-.2878-.2155a6.573,6.573,0,0,1-1.0354-1.1993l-.2767-.399c-.0195-.0371-.0366-.0737-.0561-.1087-5.1181-8.8519-1.4023-15.5738,1.278-17.8857l.7589-.6531,12.3155,3.3655,3.213-1.8549a10.11978,10.11978,0,0,1,9.3922-.3102L358.5819,476.4264l6.2888-7.1473,19.6108,10.8055-30.1682,17.5373A19.28057,19.28057,0,0,1,344.8901,500ZM27.082,314.2514l.1297.1779a2.87671,2.87671,0,0,0,.4401.5147,8.99879,8.99879,0,0,0,.8354.6095L339.2869,494.9922c3.2757,1.8935,9.2964,1.6083,13.1475-.6234l24.4411-14.1885-11.1753-6.156-6.334,7.1929L48.8458,301.9388a6.48139,6.48139,0,0,0-5.6343.3108l-4.5733,2.6377-11.7678-3.2161c-1.2605,1.5953-3.6506,5.8994.1719,12.515Z"/></g><g><g id="change2_17"><path d="M338.3476,485.8046,27.5465,306.3638c-3.8511-2.2238-3.3689-6.1084,1.0786-8.676l13.6462-7.8786c2.2237-1.284,5.5876-1.4233,7.5132-.3112L367.5601,472.9653c1.926,1.1121,1.684,3.0542-.5398,4.3382l-13.6457,7.8781C348.9276,487.7496,342.1992,488.0283,338.3476,485.8046Z" fill="#d9d9d9"/></g><g id="change1_28"><path d="M344.8901,489.186a15.20879,15.20879,0,0,1-7.4822-1.7546L26.6078,307.9906a6.2816,6.2816,0,0,1-3.5403-5.3942c0-2.4573,1.684-4.8399,4.6183-6.5354l13.6467-7.8786a10.11978,10.11978,0,0,1,9.3922-.3102L368.4988,471.3384a4.09484,4.09484,0,0,1,2.2403,3.5113,4.891,4.891,0,0,1-2.7791,4.0796l-13.6467,7.8786A19.27223,19.27223,0,0,1,344.8901,489.186Zm-5.6032-5.0078c3.2757,1.893,9.2964,1.6053,13.1475-.6235l13.6467-7.8785a1.95174,1.95174,0,0,0,.8971-.824,2.40772,2.40772,0,0,0-.3584-.2606L48.8458,291.1248a6.48123,6.48123,0,0,0-5.6343.3103l-13.6467,7.8785c-1.7156.9919-2.7395,2.2193-2.7395,3.2828,0,1.0284,1.041,1.7832,1.6619,2.1415Z" fill="#273339"/></g></g><g id="change3_13"><path d="M343.888 487.295H346.777V498.113H343.888z" fill="#8ec47b"/></g></g><g><g id="change2_9"><path d="M419.9075,466.0033l-.0396.0181c.0121-.3413.0396-.6676.0396-1.0199V248.8351c0-12.8388-7.8059-27.754-17.435-33.3131L37.3426,4.7137a17.54882,17.54882,0,0,0-2.5189-1.1843l-.0015-.027C30.8744,1.4666,22.1869.6226,14.2096,5.3552,6.2322,10.0874,3.2076,20.0263,3.2076,20.0263L19.907,22.5358V234.0612c0,12.8393,7.8059,27.754,17.4356,33.3136l361.2822,208.586-7.038,3.2933-2.9606,10.9408s11.7583,3.2036,20.7189-1.927C420.522,481.8678,419.9075,466.0033,419.9075,466.0033Z" fill="#d9d9d9"/></g><g id="change1_16"><path d="M397.0025,493.0682a36.69342,36.69342,0,0,1-8.8699-1.062l-1.8088-.4927L390,477.922l4.5653-2.1356L36.4034,269.0016c-10.1314-5.8503-18.3748-21.5237-18.3748-34.9409V24.1516L.7789,21.56l.632-2.0804c.1323-.4331,3.3348-10.6943,11.8379-15.7392,8.9185-5.2869,18.2992-4.037,22.4324-1.907l.1243.0637a18.88043,18.88043,0,0,1,2.4773,1.1903L403.4126,213.8957c10.1314,5.8498,18.3739,21.5237,18.3739,34.9389V465.9312c.0286.6941.5178,17.0803-11.5092,23.966A26.77892,26.77892,0,0,1,397.0025,493.0682Zm-6.0458-4.3027c3.4983.611,11.2907,1.4008,17.4527-2.127,7.3524-4.2094,9.1015-13.1445,9.5079-17.7248l.0311.0211V248.8346c0-12.2204-7.3188-26.4344-16.4147-31.6863L36.4034,6.3406a15.71282,15.71282,0,0,0-2.2533-1.0595l-1.084-.5062C29.3954,3.361,22.0937,2.8604,15.1673,6.9711c-5.1486,3.0527-8.0886,8.5596-9.3751,11.5447l15.9942,2.4027V234.0607c0,12.2209,7.4005,26.4359,16.4964,31.6878L402.6849,476.1362l-9.5129,4.449Z" fill="#273339"/></g></g><g id="change1_17"><path d="M37.3426,4.7137a17.54882,17.54882,0,0,0-2.5189-1.1843l-.0015-.027C30.8744,1.4666,22.1869.6226,14.2096,5.3552,6.2322,10.0874,3.2076,20.0263,3.2076,20.0263l8.7321,1.3121c4.5527-3.0071,11.3879-4.0315,11.3879-4.0315A36.38007,36.38007,0,0,1,43.4475,8.2385Z" fill="#273339"/></g><g id="change1_18"><path d="M388.6262,490.1949s11.7583,3.2036,20.7189-1.927c11.1769-6.4001,10.5624-22.2646,10.5624-22.2646l-.0396.0181c.0121-.3413.0396-.6676.0396-1.0199V248.8351c0-8.0811-3.0983-16.9756-7.7908-23.8508-.0211.0316-5.3136,8.1127-17.8221,10.5669-10.2592,2.0128-30.4398,162.3706-37.4258,216.3023l41.756,24.1073-7.038,3.2933Z" fill="#273339"/></g><g><g id="change3_3"><path d="M384.4439,488.4588,19.3141,277.651C9.6849,272.0914,1.879,257.1763,1.879,244.3375V28.1706c0-12.8388,7.8059-18.7402,17.4351-13.1806L384.4439,225.7977c9.6292,5.5596,17.4356,20.4743,17.4356,33.3136V475.2782C401.8795,488.117,394.0731,494.0184,384.4439,488.4588Z" fill="#8ec47b"/></g><g id="change1_1"><path d="M391.3767,492.4292a15.89258,15.89258,0,0,1-7.871-2.3445L18.3754,279.2769C8.244,273.4266,0,257.7531,0,244.3375V28.1706C0,20.732,2.5391,14.999,6.969,12.443c3.7689-2.1722,8.489-1.8479,13.2853.9196L385.3846,224.1709c10.1315,5.8513,18.3753,21.5253,18.3753,34.9404V475.2782c0,7.4386-2.5389,13.1701-6.9658,15.7261A10.71319,10.71319,0,0,1,391.3767,492.4292ZM12.3888,14.785a6.98989,6.98989,0,0,0-3.5434.9111c-3.2336,1.8674-5.087,6.4142-5.087,12.4745V244.3375c0,12.2208,7.4,26.4343,16.4959,31.6862L385.3846,486.8315c3.583,2.0699,6.9714,2.3981,9.5305.9201,3.2336-1.8664,5.0865-6.4131,5.0865-12.4734V259.1113c0-12.2193-7.4-26.4343-16.4959-31.6877L18.3754,16.6158A12.1656,12.1656,0,0,0,12.3888,14.785Z" fill="#273339"/></g></g><g><g id="change3_16"><path d="M379.2126,468.2221,24.5457,263.4551c-3.8516-2.2238-6.9742-8.1899-6.9742-13.3255V40.4991c0-5.1356,3.1226-7.4961,6.9742-5.2724l354.6669,204.767c3.8515,2.2238,6.9739,8.1898,6.9739,13.3255V462.9496C386.1865,468.0853,383.0641,470.4458,379.2126,468.2221Z" fill="#8ec47b"/></g><g id="change1_24"><path d="M381.9876,470.9405a7.4852,7.4852,0,0,1-3.7158-1.0916L23.6062,265.0814c-4.4379-2.562-7.9141-9.13-7.9141-14.9518V40.4989c0-3.3885,1.2223-6.037,3.3524-7.2654,1.8699-1.0805,4.1553-.9497,6.4407.3669l354.6661,204.767c4.4354,2.5605,7.9136,9.127,7.9136,14.9518V462.9491c0,3.3885-1.2219,6.0378-3.3489,7.2662A5.39466,5.39466,0,0,1,381.9876,470.9405Zm-1.8363-4.3448a2.87636,2.87636,0,0,0,2.6853.3684c.9202-.5317,1.47-2.0328,1.47-4.015V253.3192c0-4.4551-2.7621-9.8112-6.0348-11.6986L23.6062,36.853a2.87855,2.87855,0,0,0-2.6858-.3678c-.9201.5332-1.47,2.0335-1.47,4.0137V250.1296c0,4.4535,2.762,9.8097,6.0348,11.6986Z" fill="#273339"/></g></g><g fill="#273339" id="change1_26"><path d="M34.2273,258.2603c-3.8521-2.2237-6.9735-8.1898-6.9735-13.3254V36.7899l-2.7081-1.5632c-3.8521-2.2237-6.9742.1368-6.9742,5.2724V250.1296c0,5.1356,3.1221,11.1017,6.9742,13.3255l354.6669,204.767c3.8515,2.2237,6.9739-.1368,6.9739-5.2725v-1.4855Z"/><path d="M381.9876,470.9405a7.4852,7.4852,0,0,1-3.7158-1.0916L23.6062,265.0814c-4.4379-2.562-7.9141-9.13-7.9141-14.9518V40.4989c0-3.3885,1.2223-6.037,3.3524-7.2654,1.8699-1.0805,4.1553-.9497,6.4407.3669l3.6481,2.1044V244.9344c0,4.4535,2.762,9.8111,6.0347,11.7001L388.0649,460.3791v2.57c0,3.3885-1.2219,6.0378-3.3489,7.2662A5.39466,5.39466,0,0,1,381.9876,470.9405ZM21.7779,36.2707a1.69635,1.69635,0,0,0-.8575.2145c-.9201.5332-1.47,2.032-1.47,4.0137V250.1296c0,4.4535,2.762,9.8097,6.0348,11.6986L380.1513,466.5957a2.87636,2.87636,0,0,0,2.6853.3684c.9202-.5317,1.47-2.0328,1.47-4.015v-.4004L33.2891,259.8871c-4.438-2.5615-7.9142-9.1295-7.9142-14.9527V37.8744L23.6062,36.853A3.92419,3.92419,0,0,0,21.7779,36.2707Z"/></g><g><g><g id="change3_5"><ellipse cx="152.619" cy="209.289" fill="#8ec47b" rx="43.109" ry="74.666" transform="rotate(-30 152.62 209.29)"/></g><g id="change2_6"><path d="M176.2653,279.329c-14.6826,0-31.7964-9.336-46.7152-25.7051-27.0257-29.6565-39.025-73.6212-26.7495-98.0087,4.6329-9.1972,12.1529-14.7546,21.7425-16.0707,15.5461-2.1445,34.6956,7.3601,51.1464,25.4092,27.0232,29.658,39.022,73.6242,26.7491,98.0087-4.6325,9.1977-12.1487,14.7543-21.7378,16.0704A32.57009,32.57009,0,0,1,176.2653,279.329ZM129.0279,142.9999a29.20233,29.20233,0,0,0-3.9741.2659c-8.3116,1.1397-14.8473,5.9944-18.8959,14.0394-11.6349,23.1125.1043,65.1867,26.1678,93.7882,15.6188,17.1394,33.5487,26.1858,47.8639,24.2181,8.3116-1.1397,14.843-5.9941,18.8915-14.0391,11.6355-23.111-.1042-65.1837-26.1677-93.7877C158.7109,151.8994,142.6235,142.9999,129.0279,142.9999Z" fill="#d9d9d9"/></g></g><g><g id="change3_17"><path d="M104.5136,156.4983l48.0719,52.7539c.019.0201.0406.0231.0491.0065l21.65-43.0084a.073.073,0,0,0-.019-.0697c-26.5677-29.1292-57.7903-33.493-69.771-9.752A.07208.07208,0,0,0,104.5136,156.4983Z" fill="#8ec47b"/></g><g id="change2_14"><path d="M151.7931,211.2449l-49.5424-54.4194.5639-1.2354c4.6354-9.1876,12.1474-14.734,21.7285-16.0456,15.5512-2.14,34.6756,7.3516,51.1098,25.3711l.869.9523-22.6725,45.15ZM106.7534,156.17l45.4151,49.8355,19.8704-39.4686c-15.4099-16.5189-32.9095-25.2011-46.9851-23.2711C117.1371,144.3494,110.836,148.8016,106.7534,156.17Z" fill="#d9d9d9"/></g></g><g><g id="change3_1"><path d="M197.7991,203.7648c.0176-.002.0236-.0261.0125-.0527a126.25946,126.25946,0,0,0-23.3841-37.3531L152.795,209.3314c-.0151.0296.0215.0882.0526.0842Z" fill="#8ec47b"/></g><g id="change2_1"><path d="M151.9735,211.4183l-1.3512-1.8549,23.3576-46.4856,1.8369,2.0157a128.06884,128.06884,0,0,1,23.7355,37.9145l.3357.8279-.869,1.6224Zm22.8895-41.7455-18.855,37.4529,39.1429-4.9206A124.60766,124.60766,0,0,0,174.863,169.6728Z" fill="#d9d9d9"/></g></g><g><g id="change3_4"><path d="M203.7767,224.5167a110.50552,110.50552,0,0,0-6.1239-20.8371c-.0106-.0271-.0341-.0472-.0522-.0451l-44.7801,5.6292c-.0356.0045-.013.0812.0276.0938l50.9006,15.1963C203.7692,224.5598,203.7817,224.5433,203.7767,224.5167Z" fill="#8ec47b"/></g><g id="change2_5"><path d="M204.2363,226.6633l-53.4085-15.9491.2541-3.1214,47.6975-5.9997.6035,1.3572a112.2925,112.2925,0,0,1,6.2352,21.2005l.2175,1.0315Zm-42.5378-16.6232L201.3244,221.87a109.5103,109.5103,0,0,0-4.9035-16.1972Z" fill="#d9d9d9"/></g></g></g><g><g id="change3_20"><path d="M344.8545,259.2963,234.3148,195.4762c-4.1388-2.3896-7.4942-.4526-7.4942,4.3267v42.7839a16.56579,16.56579,0,0,0,7.4942,12.9807l110.5397,63.82c4.1393,2.3896,7.4942.4526,7.4942-4.3267V272.2764A16.564,16.564,0,0,0,344.8545,259.2963Z" fill="#8ec47b"/></g><g id="change2_16"><path d="M348.2049,322.2964a8.68,8.68,0,0,1-4.2911-1.2826L233.375,257.1943a18.38877,18.38877,0,0,1-8.4334-14.6075V199.8029c0-3.0101,1.1142-5.311,3.1345-6.4778,2.0262-1.1667,4.5702-.9778,7.1774.5248l110.5392,63.82a18.39473,18.39473,0,0,1,8.436,14.607v42.7844c0,3.0101-1.1147,5.311-3.1345,6.4773A5.70907,5.70907,0,0,1,348.2049,322.2964ZM230.9704,196.3312a2.001,2.001,0,0,0-1.0154.2471c-.7984.4596-1.2555,1.6364-1.2555,3.2246v42.7839a14.73294,14.73294,0,0,0,6.554,11.3543l110.5392,63.8201c1.3768.7953,2.6297.9858,3.4226.5247.7984-.4616,1.2559-1.6364,1.2559-3.2246V272.2769a14.73383,14.73383,0,0,0-6.5574-11.3543L233.375,197.103A5.003,5.003,0,0,0,230.9704,196.3312Z" fill="#d9d9d9"/></g></g><g><g id="change3_2"><path d="M253.9872,279.3075l-19.6724-11.3578c-4.1388-2.3897-7.4942-.4526-7.4942,4.3267v32.1794a16.56455,16.56455,0,0,0,7.4942,12.9801l19.6724,11.3578c4.1392,2.3896,7.4941.4526,7.4941-4.3267V292.2876A16.56338,16.56338,0,0,0,253.9872,279.3075Z" fill="#8ec47b"/></g><g id="change2_2"><path d="M257.3386,331.7025a8.67916,8.67916,0,0,1-4.2912-1.282L233.375,319.0632a18.39009,18.39009,0,0,1-8.4334-14.6074V272.2759c0-3.0106,1.1142-5.3116,3.1345-6.4778,2.0262-1.1698,4.5702-.9778,7.1774.5247l19.6729,11.3583a18.38866,18.38866,0,0,1,8.4329,14.6065v32.1799c0,3.0101-1.1142,5.311-3.1344,6.4778A5.70261,5.70261,0,0,1,257.3386,331.7025Zm-26.3682-62.8983a2.00587,2.00587,0,0,0-1.0154.2466c-.7984.46-1.2555,1.6363-1.2555,3.2251v32.1799a14.72614,14.72614,0,0,0,6.554,11.3543l19.6729,11.3573c1.3797.7968,2.6267.9873,3.4195.5247.7985-.4601,1.256-1.6364,1.256-3.2246V292.2876a14.734,14.734,0,0,0-6.5545-11.3533L233.375,269.5755A5.0017,5.0017,0,0,0,230.9704,268.8042Z" fill="#d9d9d9"/></g></g><g><g id="change3_18"><path d="M72.2525,101.9095l-3.36-1.9401c-4.1387-2.3896-7.4941-.452-7.4941,4.3267V208.949a16.56562,16.56562,0,0,0,7.4941,12.9806l3.36,1.9396c4.1392,2.3896,7.4941.4526,7.4941-4.3267V114.8896A16.56471,16.56471,0,0,0,72.2525,101.9095Z" fill="#8ec47b"/></g><g id="change2_15"><path d="M75.6029,226.7775a8.67852,8.67852,0,0,1-4.2911-1.282l-3.357-1.9401a18.39428,18.39428,0,0,1-8.4359-14.6059V104.2971c0-3.0106,1.1142-5.31,3.1344-6.4777,2.0198-1.1643,4.5678-.9834,7.18.5232l3.3574,1.9426a18.38434,18.38434,0,0,1,8.4364,14.6044V219.5425c0,3.0101-1.1151,5.311-3.1349,6.4778A5.71358,5.71358,0,0,1,75.6029,226.7775ZM65.5507,100.8254a2.01,2.01,0,0,0-1.0184.2466c-.7984.4616-1.2555,1.6364-1.2555,3.2251V208.9495a14.73258,14.73258,0,0,0,6.5565,11.3533l3.3574,1.9395c1.3767.7969,2.6267.9889,3.4226.5248.7988-.4611,1.2554-1.6364,1.2554-3.2246V114.8896a14.73329,14.73329,0,0,0-6.5569-11.3533l-3.357-1.942A5.02267,5.02267,0,0,0,65.5507,100.8254Z" fill="#d9d9d9"/></g></g><g><g id="change3_14"><path d="M299.4208,305.5383l-19.6724-11.3578c-4.1387-2.3896-7.4942-.4525-7.4942,4.3267v32.1795a16.566,16.566,0,0,0,7.4942,12.9806l19.6724,11.3578c4.1398,2.3896,7.4942.4525,7.4942-4.3267v-32.18A16.563,16.563,0,0,0,299.4208,305.5383Z" fill="#8ec47b"/></g><g id="change2_13"><path d="M302.7737,357.9339a8.68,8.68,0,0,1-4.2915-1.2825l-19.6735-11.3583a18.39083,18.39083,0,0,1-8.4328-14.6059V298.5067c0-3.0101,1.1145-5.311,3.1348-6.4777,2.0253-1.1693,4.5703-.9773,7.1774.5247L300.361,303.911a18.39076,18.39076,0,0,1,8.4329,14.6074v32.1805c0,3.0101-1.1146,5.311-3.1344,6.4772A5.69709,5.69709,0,0,1,302.7737,357.9339Zm-26.3686-62.8988a2.008,2.008,0,0,0-1.0155.247c-.7983.4601-1.2554,1.6364-1.2554,3.2246v32.1805a14.72577,14.72577,0,0,0,6.5539,11.3527l19.6729,11.3588c1.3768.7969,2.6237.9874,3.4201.5248.7979-.4601,1.255-1.6364,1.255-3.2246V318.5184a14.73528,14.73528,0,0,0-6.5539-11.3542l-19.6735-11.3573A5,5,0,0,0,276.4051,295.0351Z" fill="#d9d9d9"/></g></g><g><g id="change3_7"><path d="M344.8545,331.7697l-19.6724-11.3578c-4.1388-2.3896-7.4942-.4526-7.4942,4.3267V356.918a16.56455,16.56455,0,0,0,7.4942,12.9801l19.6724,11.3578c4.1393,2.3897,7.4942.4526,7.4942-4.3267V344.7498A16.56337,16.56337,0,0,0,344.8545,331.7697Z" fill="#8ec47b"/></g><g id="change2_7"><path d="M348.2049,384.1653a8.67977,8.67977,0,0,1-4.2911-1.2825L324.2434,371.524a18.39513,18.39513,0,0,1-8.4354-14.606V324.7381c0-3.0101,1.1141-5.311,3.1344-6.4778,2.0228-1.1692,4.5703-.9773,7.18.5248l19.6703,11.3573a18.39455,18.39455,0,0,1,8.436,14.6074v32.1799c0,3.0106-1.1147,5.3111-3.1345,6.4778A5.70907,5.70907,0,0,1,348.2049,384.1653Zm-26.3682-62.8989a2.00656,2.00656,0,0,0-1.0154.2471c-.7983.4611-1.2555,1.6364-1.2555,3.2246V356.918a14.73225,14.73225,0,0,0,6.5566,11.3533l19.6703,11.3588c1.3768.7954,2.6297.9898,3.4226.5247.7984-.4615,1.2559-1.6363,1.2559-3.2251V344.7498a14.73319,14.73319,0,0,0-6.5574-11.3543l-19.6704-11.3572A4.99988,4.99988,0,0,0,321.8367,321.2664Z" fill="#d9d9d9"/></g></g><g id="change2_10"><path d="M204.995 156.497H208.752V492.459H204.995z" fill="#d9d9d9" transform="rotate(-60 206.873 324.479)"/></g><g id="change3_9"><path d="M404.4511,253.0921l-.852-2.762a45.65925,45.65925,0,0,0,13.3164-7.3188l1.8057,2.2574A47.84266,47.84266,0,0,1,404.4511,253.0921Z" fill="#8ec47b"/></g><g id="change3_10"><path d="M20.181 252.367H28.685000000000002V255.254H20.181z" fill="#8ec47b" transform="rotate(-31.977 24.433 253.81)"/></g><g><g><g id="change3_19"><path d="M266.7638,432.2843l13.5951,8.0189a5.791,5.791,0,0,0,6.6927-.5758l4.9222-3.588a3.16426,3.16426,0,0,0-.3915-5.1055l-13.3099-8.1884a5.79023,5.79023,0,0,0-6.7835.5198l-5.1661,3.7829A3.16373,3.16373,0,0,0,266.7638,432.2843Z" fill="#8ec47b"/></g><g id="change1_25"><path d="M283.3289,442.9896a7.74881,7.74881,0,0,1-3.9248-1.0676l-13.5926-8.0199a5.04111,5.04111,0,0,1-.7056-8.1843l5.2764-3.8681a7.60227,7.60227,0,0,1,8.876-.6039l13.3074,8.1888a5.04211,5.04211,0,0,1,.6234,8.1352l-5.0333,3.6751A7.43246,7.43246,0,0,1,283.3289,442.9896Zm-8.0916-19.1272a3.90829,3.90829,0,0,0-2.5309.9342l-5.276,3.8667a1.30678,1.30678,0,0,0,.2881,2.0027l13.5932,8.0199a3.91146,3.91146,0,0,0,4.5226-.3894l5.0328-3.6747a1.30254,1.30254,0,0,0-.2706-1.9877l-13.3079-8.1888A3.895,3.895,0,0,0,275.2373,423.8624Z" fill="#273339"/></g></g><g><g id="change3_6"><path d="M266.7638,428.6142l13.5951,8.0189a5.791,5.791,0,0,0,6.6927-.5759l4.9222-3.588a3.16425,3.16425,0,0,0-.3915-5.1055l-13.3099-8.1883a5.79111,5.79111,0,0,0-6.7835.5192l-5.1661,3.7834A3.16383,3.16383,0,0,0,266.7638,428.6142Z" fill="#8ec47b"/></g><g id="change1_4"><path d="M283.3289,439.3204a7.73549,7.73549,0,0,1-3.9248-1.069l-13.5926-8.0194a5.04164,5.04164,0,0,1-.7056-8.1848l5.2764-3.8667a7.59627,7.59627,0,0,1,8.876-.6054l13.3074,8.1888a5.04367,5.04367,0,0,1,.6234,8.1367l-5.0333,3.6752A7.4329,7.4329,0,0,1,283.3289,439.3204Zm-8.0891-19.1271a3.90778,3.90778,0,0,0-2.5334.9327l-5.276,3.8666a1.30724,1.30724,0,0,0,.2881,2.0032l13.5932,8.0194a3.92248,3.92248,0,0,0,4.5226-.3879l5.0328-3.6761a1.30253,1.30253,0,0,0-.2706-1.9877l-13.3079-8.1888A3.904,3.904,0,0,0,275.2398,420.1933Z" fill="#273339"/></g></g></g><g><g><g id="change3_11"><path d="M56.1099,312.403l50.5673,29.1804a5.79029,5.79029,0,0,0,6.6923-.5759l4.9226-3.5885a3.16354,3.16354,0,0,0-.392-5.105L67.618,302.9643a5.79028,5.79028,0,0,0-6.783.5192l-5.1666,3.7834A3.16377,3.16377,0,0,0,56.1099,312.403Z" fill="#8ec47b"/></g><g id="change1_21"><path d="M109.6482,344.2702a7.71,7.71,0,0,1-3.9243-1.0705L55.1571,314.0198a5.04039,5.04039,0,0,1-.7056-8.1833l5.2759-3.8676a7.59771,7.59771,0,0,1,8.876-.6039l50.245,29.3262a5.04287,5.04287,0,0,1,.66,8.1577l-5.0333,3.6762A7.43338,7.43338,0,0,1,109.6482,344.2702ZM57.0611,310.7827l50.5558,29.1738a3.91727,3.91727,0,0,0,4.5372-.3794l5.0324-3.6761a1.30334,1.30334,0,0,0-.2707-1.9877l-50.245-29.3262a3.90791,3.90791,0,0,0-4.6184.3273l-5.2759,3.8676a1.30619,1.30619,0,0,0,.2846,2.0007Z" fill="#273339"/></g></g><g><g id="change3_12"><path d="M56.1099,308.7329l50.5673,29.1803a5.79019,5.79019,0,0,0,6.6923-.5764l4.9226-3.5879a3.16413,3.16413,0,0,0-.392-5.1056L67.618,299.2941a5.78949,5.78949,0,0,0-6.783.5192l-5.1666,3.7835A3.16377,3.16377,0,0,0,56.1099,308.7329Z" fill="#8ec47b"/></g><g id="change1_22"><path d="M109.6482,340.5995a7.72135,7.72135,0,0,1-3.9243-1.0675L55.1571,310.3507a5.04111,5.04111,0,0,1-.7056-8.1843l5.2759-3.8681a7.60493,7.60493,0,0,1,8.876-.604l50.245,29.3262a5.04552,5.04552,0,0,1,.663,8.1582l-5.0363,3.6762A7.4329,7.4329,0,0,1,109.6482,340.5995ZM57.0591,307.112l50.5578,29.1754a3.91436,3.91436,0,0,0,4.5372-.3809l5.0324-3.6747a1.30482,1.30482,0,0,0-.2707-1.9892l-50.245-29.3262a3.91378,3.91378,0,0,0-4.6184.3288l-5.2759,3.8666a1.30675,1.30675,0,0,0,.2826,2.0002Z" fill="#273339"/></g></g></g><g><g><g id="change3_15"><path d="M303.8182,418.9057a1.16615,1.16615,0,0,0-1.1607,1.2821l3.4441,34.6713c0,2.0784,2.0298,4.1558,6.0893,5.1581a14.355,14.355,0,0,0,6.8502,0c4.0606-1.0018,6.0894-3.0797,6.0894-5.1581l3.4446-34.6713a1.16672,1.16672,0,0,0-1.1607-1.2821Z" fill="#8ec47b"/></g><g id="change1_23"><path d="M315.616,462.3101a16.22079,16.22079,0,0,1-3.8736-.4681c-4.7086-1.1637-7.5187-3.7739-7.5187-6.9829l-3.4336-34.4849a3.04177,3.04177,0,0,1,3.0271-3.3464h23.5977a3.04154,3.04154,0,0,1,3.0271,3.3449l-3.4446,34.6728c.011,3.0226-2.7991,5.6328-7.5042,6.795A16.19965,16.19965,0,0,1,315.616,462.3101Zm-11.0119-41.5269,3.3659,33.8894c.0115,1.274,1.4504,2.727,4.672,3.5228a12.48217,12.48217,0,0,0,5.9505,0c3.2191-.7958,4.6581-2.2488,4.6581-3.3363l3.3769-34.0759Z" fill="#273339"/></g></g><g><g id="change3_8"><path d="M324.8694,413.5631c5.1105,2.9505,5.1105,7.7343,0,10.6848-5.1106,2.9509-13.3961,2.9509-18.5067,0-5.1106-2.9505-5.1106-7.7343,0-10.6848S319.7593,410.6127,324.8694,413.5631Z" fill="#8ec47b"/></g><g id="change1_15"><path d="M315.616,428.3485a20.77229,20.77229,0,0,1-10.1935-2.4743c-3.0748-1.7762-4.7708-4.2515-4.7708-6.9685,0-2.7174,1.696-5.1927,4.7708-6.9689,5.719-3.3038,14.6736-3.3008,20.3871,0,3.0757,1.7762,4.7707,4.2515,4.7707,6.9689,0,2.717-1.695,5.1923-4.7707,6.9685A20.77268,20.77268,0,0,1,315.616,428.3485Zm0-15.1111a17.07192,17.07192,0,0,0-8.3146,1.9526c-1.8393,1.0605-2.8948,2.4147-2.8948,3.7157,0,1.3006,1.0555,2.6548,2.8948,3.7153,4.5036,2.6017,12.1206,2.6017,16.6287,0,1.8399-1.0605,2.8954-2.4147,2.8954-3.7153,0-1.301-1.0555-2.6552-2.8954-3.7157A17.06148,17.06148,0,0,0,315.616,413.2374Z" fill="#273339"/></g></g></g></g><g><g><g><g id="change2_18"><path d="M370.2108,370.4798,245.3583,298.4847a3.96386,3.96386,0,0,1-1.6559-3.163V181.9272c0-1.2188.7412-1.7791,1.6559-1.2514l124.852,71.9953a3.96365,3.96365,0,0,1,1.6554,3.1635v113.394C371.8657,370.4479,371.1255,371.008,370.2108,370.4798Z" fill="#d9d9d9"/></g><g id="change1_34"><path d="M370.8714,372.5589a3.2003,3.2003,0,0,1-1.5993-.454L244.4226,300.1115a5.77653,5.77653,0,0,1-2.5986-4.7903V181.9278a3.27506,3.27506,0,0,1,1.5095-2.965,2.89727,2.89727,0,0,1,2.9625.0847l124.852,71.9973a5.77737,5.77737,0,0,1,2.5956,4.7888v113.395a3.27779,3.27779,0,0,1-1.512,2.9665A2.718,2.718,0,0,1,370.8714,372.5589Zm.2794-3.705-.94,1.6259ZM245.5866,182.9757V295.3212a2.21826,2.21826,0,0,0,.7094,1.5362l123.6855,71.3202V255.8336a2.22341,2.22341,0,0,0-.7094-1.5361Z" fill="#273339"/></g></g><g><g id="change2_4"><path d="M357.5712,345.5983l-99.4528-56.9172a3.96408,3.96408,0,0,1-1.6559-3.1635v-8.6935c0-1.2189.7412-1.7797,1.6559-1.2515l99.4521,56.9173a3.96477,3.96477,0,0,1,1.6564,3.1635v8.6935C359.2269,345.5658,358.4859,346.1261,357.5712,345.5983Z" fill="#d9d9d9"/></g><g id="change1_3"><path d="M358.2321,347.6762a3.20184,3.20184,0,0,1-1.5943-.4485l-99.4541-56.9173a5.77949,5.77949,0,0,1-2.6016-4.7918v-8.694a3.27716,3.27716,0,0,1,1.5151-2.967,2.8932,2.8932,0,0,1,2.9594.0907l99.4491,56.9118a5.79169,5.79169,0,0,1,2.5986,4.7933v8.694a3.27726,3.27726,0,0,1-1.5125,2.965A2.69992,2.69992,0,0,1,358.2321,347.6762Zm.2791-3.7042-.94,1.6263ZM258.3447,277.8686v7.65a2.224,2.224,0,0,0,.7119,1.5361l98.2851,56.2472v-7.6485a2.24356,2.24356,0,0,0-.7094-1.5392Z" fill="#273339"/></g></g><g><g id="change2_11"><path d="M309.6459,292.6913l-51.9335-29.5455a3.96321,3.96321,0,0,1-1.6564-3.1634V205.9619c0-1.2193.7413-1.7797,1.6564-1.2514l51.9335,29.5447a3.96519,3.96519,0,0,1,1.656,3.1634v54.021C311.3019,292.6584,310.5607,293.219,309.6459,292.6913Z" fill="#d9d9d9"/></g><g id="change1_19"><path d="M310.3065,294.7694a3.20512,3.20512,0,0,1-1.5918-.447l-51.932-29.5452a5.779,5.779,0,0,1-2.6066-4.7948v-54.021a3.28076,3.28076,0,0,1,1.5121-2.9655,2.90476,2.90476,0,0,1,2.9625.0878l51.9234,29.5391a5.788,5.788,0,0,1,2.6072,4.7963v54.02a3.28137,3.28137,0,0,1-1.5126,2.9665A2.71712,2.71712,0,0,1,310.3065,294.7694Zm.2676-3.7097-.9282,1.6316.9398-1.6261Zm-52.6356-84.0573v52.98a2.22228,2.22228,0,0,0,.7122,1.5366l50.7682,28.8801v-52.98a2.23325,2.23325,0,0,0-.7122-1.5391Z" fill="#273339"/></g></g><g id="change1_5"><path d="M338.486 236.067H342.241V279.61400000000003H338.486z" fill="#273339" transform="rotate(-60.028 340.363 257.84)"/></g><g id="change1_6"><path d="M338.486 246.177H342.241V289.724H338.486z" fill="#273339" transform="rotate(-60.028 340.363 267.95)"/></g><g id="change1_7"><path d="M338.485 256.286H342.242V299.834H338.485z" fill="#273339" transform="rotate(-60.028 340.363 278.06)"/></g><g id="change1_8"><path d="M338.485 266.397H342.241V309.945H338.485z" fill="#273339" transform="rotate(-60.028 340.363 288.17)"/></g><g id="change1_9"><path d="M338.485 276.507H342.242V320.054H338.485z" fill="#273339" transform="rotate(-60.028 340.363 298.28)"/></g><g id="change1_10"><path d="M253.9826,196.027c0,1.4399-1.0108,2.0233-2.2578,1.3036a4.99,4.99,0,0,1-2.2568-3.9102c0-1.4399,1.0099-2.0233,2.2568-1.3036A4.98918,4.98918,0,0,1,253.9826,196.027Z" fill="#273339"/></g><g id="change1_11"><path d="M365.0196,260.1653c0,1.4399-1.0109,2.0233-2.2579,1.3036a4.98945,4.98945,0,0,1-2.2578-3.9102c0-1.4399,1.0109-2.0233,2.2578-1.3036A4.99006,4.99006,0,0,1,365.0196,260.1653Z" fill="#273339"/></g><g id="change1_12"><path d="M253.9826,294.1931c0,1.4399-1.0108,2.0232-2.2578,1.3035a4.99,4.99,0,0,1-2.2568-3.9102c0-1.4399,1.0099-2.0238,2.2568-1.3036A4.98937,4.98937,0,0,1,253.9826,294.1931Z" fill="#273339"/></g><g id="change1_13"><path d="M365.0196,358.2612c0,1.4399-1.0109,2.0233-2.2579,1.3036a4.99131,4.99131,0,0,1-2.2578-3.9108c0-1.4393,1.0109-2.0232,2.2578-1.303A4.98929,4.98929,0,0,1,365.0196,358.2612Z" fill="#273339"/></g></g><g><g id="change2_12"><path d="M255.2341,316.0331l-21.7714-12.8483a6.90658,6.90658,0,0,1-2.8838-5.51V259.8937c0-2.1235,1.2911-3.0999,2.8838-2.1802l21.7714,12.8483a6.90672,6.90672,0,0,1,2.8843,5.51v37.7811C258.1184,315.9765,256.8269,316.9523,255.2341,316.0331Z" fill="#d9d9d9"/></g><g id="change1_20"><path d="M256.3848,318.2558a4.1923,4.1923,0,0,1-2.0904-.5969L232.508,304.8006a8.71625,8.71625,0,0,1-3.8085-7.1253V259.8937a4.36018,4.36018,0,0,1,1.9381-3.9584,3.69344,3.69344,0,0,1,3.7639.1509l21.7859,12.8598a8.70717,8.70717,0,0,1,3.809,7.1253v37.7816a4.35756,4.35756,0,0,1-1.9356,3.9584A3.33287,3.33287,0,0,1,256.3848,318.2558Zm-.2055-3.8455a2.29924,2.29924,0,0,0,.0597-.5574V276.0713a5.07017,5.07017,0,0,0-1.9416-3.8821l-21.7808-12.8544a2.28735,2.28735,0,0,0-.0587.5589v37.7816a5.06442,5.06442,0,0,0,1.9436,3.8821Z" fill="#273339"/></g></g></g><g><g><g id="change2_8"><path d="M108.3456,225.909,86.5743,213.0607a6.9063,6.9063,0,0,1-2.8838-5.51V169.7696c0-2.1235,1.291-3.0993,2.8838-2.1802l21.7713,12.8488a6.90321,6.90321,0,0,1,2.8838,5.5095v37.7812C111.2294,225.8524,109.9389,226.8287,108.3456,225.909Z" fill="#d9d9d9"/></g><g id="change1_14"><path d="M109.4958,228.1317a4.197,4.197,0,0,1-2.0909-.5964L85.6215,214.677a8.71463,8.71463,0,0,1-3.8085-7.1268V169.7701a4.35773,4.35773,0,0,1,1.9351-3.9584,3.69224,3.69224,0,0,1,3.7639.1509l21.7864,12.8583a8.71373,8.71373,0,0,1,3.8115,7.1263v37.7822a4.35487,4.35487,0,0,1-1.9356,3.9568A3.32909,3.32909,0,0,1,109.4958,228.1317Zm-.206-3.8465a2.22209,2.22209,0,0,0,.0627-.5558V185.9472a5.07108,5.07108,0,0,0-1.9476-3.8831L85.6301,169.2113a2.28761,2.28761,0,0,0-.0587.5588v37.7801a5.06689,5.06689,0,0,0,1.9431,3.8837Z" fill="#273339"/></g></g><g><g><g id="change2_3"><path d="M97.7086,275.4955,43.437,244.1616a5.519,5.519,0,0,1-2.3049-4.4034V169.0905c0-1.697,1.0319-2.4769,2.3049-1.7421l54.2716,31.3334a5.52105,5.52105,0,0,1,2.3044,4.4039v70.6677C100.013,275.4504,98.981,276.2302,97.7086,275.4955Z" fill="#d9d9d9"/></g><g id="change1_2"><path d="M98.6277,277.6505a3.72794,3.72794,0,0,1-1.8589-.5292l-54.271-31.3334a7.38154,7.38154,0,0,1-3.2447-6.0292V169.09a3.847,3.847,0,0,1,1.7381-3.4898,3.322,3.322,0,0,1,3.3855.1213l54.271,31.3334a7.38123,7.38123,0,0,1,3.2447,6.0308v70.6672a3.84594,3.84594,0,0,1-1.7381,3.4897A3.028,3.028,0,0,1,98.6277,277.6505ZM43.011,169.2694v70.4893a3.75037,3.75037,0,0,0,1.3657,2.776L98.134,273.5734V203.0857a3.7497,3.7497,0,0,0-1.3652-2.7776Z" fill="#273339"/></g></g><g id="change1_29"><path d="M68.696 179.598H72.45V223.14700000000002H68.696z" fill="#273339" transform="rotate(-60.031 70.573 201.372)"/></g><g id="change1_30"><path d="M68.696 189.708H72.45V233.257H68.696z" fill="#273339" transform="rotate(-60.031 70.573 211.482)"/></g><g id="change1_31"><path d="M68.696 199.818H72.45V243.36700000000002H68.696z" fill="#273339" transform="rotate(-60.031 70.573 221.593)"/></g><g id="change1_32"><path d="M68.696 209.928H72.45V253.477H68.696z" fill="#273339" transform="rotate(-60.031 70.573 231.703)"/></g><g id="change1_33"><path d="M68.696 220.039H72.45V263.58799999999997H68.696z" fill="#273339" transform="rotate(-60.031 70.573 241.813)"/></g></g></g></g></svg>