<?xml version="1.0" encoding="UTF-8" standalone="no"?><svg xmlns="http://www.w3.org/2000/svg" xmlns:xlink="http://www.w3.org/1999/xlink" fill="#000000" height="279.3" preserveAspectRatio="xMidYMid" version="1.1" viewBox="-0.9 -15.7 260.4 279.3" width="260.4" zoomAndPan="magnify">
 <g>
  <path d="m255.01 158.09c-1.54-4.65-5.56-7.89-10.76-8.67-2.45-0.36-5.26-0.21-8.58 0.48-5.79 1.19-10.09 1.65-13.23 1.74 11.84-19.99 21.47-42.78 27.01-64.233 8.96-34.689 4.17-50.492-1.43-57.64-14.8-18.919-36.41-29.084-62.47-29.395-13.9-0.1698-26.11 2.5753-32.47 4.5488-5.93-1.0453-12.31-1.6295-18.99-1.7376-12.54-0.1999-23.62 2.5328-33.08 8.1498-5.243-1.7717-13.652-4.2696-23.364-5.8642-22.842-3.7501-41.252-0.8277-54.718 8.6852-16.306 11.518-23.865 31.53-22.467 59.48 0.44357 8.874 5.4081 35.876 13.224 61.476 4.492 14.72 9.282 26.94 14.237 36.33 7.027 13.32 14.546 21.16 22.987 23.98 4.731 1.57 13.327 2.68 22.368-4.85 1.146 1.38 2.675 2.76 4.704 4.04 2.577 1.63 5.728 2.96 8.875 3.74 11.341 2.84 21.964 2.13 31.024-1.84 0.06 1.61 0.1 3.15 0.14 4.48 0.06 2.16 0.12 4.27 0.2 6.25 0.53 13.37 1.44 23.77 4.14 31.05 0.15 0.4 0.35 1.01 0.56 1.65 1.34 4.12 3.59 11.02 9.31 16.42 5.93 5.59 13.1 7.3 19.66 7.3 3.29 0 6.43-0.43 9.19-1.02 9.82-2.1 20.97-5.31 29.04-16.8 7.63-10.86 11.33-27.21 12-52.99 0.09-0.73 0.17-1.42 0.25-2.09 0.05-0.44 0.1-0.9 0.16-1.36l1.8 0.16 0.46 0.03c10 0.46 22.23-1.66 29.74-5.15 5.94-2.76 24.96-12.8 20.48-26.35"/>
  <path d="m237.91 160.72c-29.74 6.14-31.79-3.93-31.79-3.93 31.4-46.6 44.53-105.74 33.2-120.21-30.9-39.488-84.4-20.814-85.29-20.33l-0.29 0.052c-5.87-1.22-12.45-1.946-19.84-2.067-13.46-0.221-23.66 3.528-31.41 9.402 0 0-95.43-39.314-90.991 49.444 0.944 18.882 27.064 142.87 58.218 105.42 11.387-13.69 22.389-25.27 22.389-25.27 5.465 3.63 12.004 5.48 18.864 4.82l0.53-0.46c-0.16 1.7-0.09 3.37 0.22 5.34-8.03 8.96-5.67 10.54-21.714 13.84-16.235 3.35-6.698 9.3-0.471 10.86 7.549 1.89 25.015 4.56 36.815-11.96l-0.47 1.89c3.14 2.52 5.35 16.38 4.98 28.95s-0.62 21.2 1.86 27.94 4.95 21.9 26.04 17.38c17.62-3.77 26.76-13.56 28.03-29.89 0.9-11.6 2.94-9.89 3.07-20.26l1.63-4.92c1.89-15.73 0.3-20.81 11.16-18.45l2.64 0.24c7.99 0.36 18.45-1.29 24.59-4.14 13.22-6.14 21.06-16.38 8.02-13.69h0.01" fill="#737373"/>
  <path d="m108.08 81.525c-2.68-0.373-5.11-0.028-6.34 0.902-0.69 0.523-0.9 1.129-0.96 1.546-0.15 1.105 0.62 2.327 1.09 2.957 1.35 1.784 3.32 3.01 5.26 3.28 0.29 0.039 0.57 0.058 0.84 0.058 3.25 0 6.2-2.527 6.46-4.392 0.33-2.336-3.07-3.893-6.35-4.351" fill="#ffffff"/>
  <path d="m196.86 81.599c-0.26-1.831-3.51-2.353-6.61-1.923-3.08 0.43-6.08 1.824-5.83 3.659 0.2 1.427 2.78 3.863 5.83 3.863 0.26 0 0.52-0.017 0.78-0.054 2.03-0.282 3.53-1.575 4.24-2.32 1.08-1.136 1.7-2.402 1.59-3.225" fill="#ffffff"/>
  <path d="m247.8 160.03c-1.13-3.43-4.78-4.54-10.85-3.28-18 3.71-24.45 1.14-26.57-0.42 14-21.32 25.51-47.09 31.72-71.139 2.95-11.39 4.57-21.968 4.7-30.589 0.15-9.464-1.46-16.418-4.79-20.666-13.4-17.125-33.07-26.311-56.88-26.563-16.37-0.1843-30.2 4.005-32.88 5.183-5.64-1.404-11.8-2.266-18.5-2.376-12.29-0.199-22.91 2.743-31.7 8.739-3.824-1.421-13.696-4.81-25.769-6.755-20.872-3.3607-37.458-0.814-49.294 7.571-14.123 10.006-20.643 27.892-19.38 53.159 0.4254 8.502 5.269 34.656 12.913 59.696 10.062 32.97 20.999 51.63 32.508 55.47 1.347 0.45 2.901 0.76 4.613 0.76 4.198 0 9.345-1.89 14.7-8.33 8.895-10.7 17.2-19.67 20.261-22.93 4.524 2.43 9.498 3.79 14.578 3.92 0.01 0.14 0.02 0.27 0.03 0.4-1.02 1.21-1.85 2.27-2.57 3.18-3.52 4.47-4.25 5.4-15.588 7.73-3.225 0.67-11.791 2.43-11.916 8.44-0.136 6.56 10.125 9.31 11.294 9.6 4.074 1.02 7.999 1.53 11.74 1.53 9.11 0 17.12-2.99 23.52-8.78-0.2 23.38 0.78 46.43 3.58 53.45 2.3 5.75 7.92 19.79 25.67 19.79 2.6 0 5.47-0.3 8.62-0.98 18.52-3.97 26.56-12.15 29.68-30.2 1.66-9.64 4.52-32.68 5.86-45.03 2.84 0.88 6.49 1.29 10.44 1.29 8.23 0 17.73-1.75 23.68-4.52 6.7-3.1 18.77-10.73 16.58-17.35zm-44.1-83.485c-0.07 3.647-0.57 6.958-1.1 10.414-0.57 3.717-1.16 7.56-1.31 12.225-0.15 4.536 0.42 9.256 0.97 13.826 1.1 9.22 2.24 18.71-2.16 28.08-0.69-1.22-1.35-2.54-1.95-4.01-0.55-1.33-1.74-3.46-3.38-6.41-6.4-11.47-21.38-38.346-13.71-49.312 2.28-3.264 8.08-6.62 22.64-4.813zm-17.65-61.787c21.34 0.471 38.21 8.452 50.16 23.72 9.16 11.711-0.93 65.002-30.14 110.97-0.29-0.37-0.58-0.74-0.89-1.12-0.12-0.15-0.24-0.31-0.37-0.46 7.55-12.47 6.08-24.8 4.76-35.74-0.54-4.49-1.05-8.73-0.92-12.709 0.14-4.221 0.7-7.84 1.23-11.34 0.67-4.313 1.34-8.776 1.16-14.037 0.14-0.552 0.19-1.204 0.12-1.978-0.48-5.045-6.24-20.144-17.98-33.811-6.42-7.474-15.78-15.839-28.57-21.481 5.5-1.14 13.02-2.203 21.44-2.016zm-119.38 161.02c-5.9 7.09-9.974 5.73-11.314 5.29-8.731-2.92-18.86-21.37-27.791-50.63-7.728-25.32-12.244-50.775-12.602-57.914-1.128-22.578 4.345-38.313 16.268-46.769 19.404-13.76 51.306-5.524 64.125-1.347-0.184 0.182-0.376 0.352-0.558 0.537-21.036 21.244-20.537 57.541-20.485 59.759-0.002 0.856 0.07 2.068 0.168 3.735 0.362 6.105 1.036 17.469-0.764 30.339-1.672 11.95 2.014 23.66 10.111 32.1 0.838 0.88 1.713 1.7 2.617 2.47-3.604 3.86-11.437 12.4-19.775 22.43zm22.479-30c-6.526-6.8-9.49-16.28-8.133-25.98 1.9-13.6 1.199-25.435 0.822-31.795-0.053-0.89-0.099-1.67-0.127-2.285 3.073-2.725 17.314-10.355 27.465-8.028 4.64 1.061 7.46 4.217 8.64 9.645 6.07 28.103 0.8 39.813-3.43 49.233-0.88 1.93-1.7 3.77-2.41 5.66l-0.54 1.47c-1.39 3.71-2.67 7.15-3.47 10.42-6.94-0.02-13.685-2.98-18.817-8.34zm1.065 37.91c-2.026-0.51-3.848-1.39-4.917-2.12 0.893-0.42 2.482-0.99 5.238-1.56 13.341-2.74 15.401-4.68 19.891-10.39 1.04-1.31 2.2-2.8 3.82-4.6v-0.01c2.42-2.7 3.52-2.24 5.52-1.41 1.62 0.67 3.2 2.7 3.84 4.94 0.3 1.05 0.64 3.06-0.47 4.62-9.4 13.15-23.09 12.99-32.922 10.53zm69.802 64.95c-16.32 3.49-22.1-4.83-25.9-14.35-2.46-6.14-3.67-33.85-2.81-64.45 0.01-0.4-0.05-0.8-0.16-1.17-0.1-0.71-0.25-1.43-0.46-2.16-1.27-4.45-4.37-8.17-8.1-9.72-1.48-0.61-4.2-1.74-7.46-0.9 0.7-2.87 1.9-6.11 3.21-9.61l0.55-1.48c0.62-1.66 1.39-3.39 2.22-5.21 4.43-9.85 10.5-23.34 3.91-53.81-2.47-11.414-10.71-16.988-23.2-15.693-7.495 0.775-14.347 3.797-17.765 5.53-0.735 0.372-1.407 0.732-2.035 1.082 0.954-11.5 4.558-32.992 18.04-46.589 8.49-8.561 19.79-12.789 33.57-12.561 27.14 0.444 44.54 14.372 54.36 25.979 8.47 10.001 13.05 20.076 14.88 25.509-13.75-1.398-23.11 1.317-27.85 8.097-10.32 14.748 5.64 43.376 13.31 57.126 1.41 2.52 2.62 4.7 3.01 5.63 2.49 6.05 5.73 10.09 8.09 13.05 0.72 0.9 1.43 1.78 1.96 2.54-4.17 1.2-11.65 3.98-10.97 17.85-0.55 6.96-4.46 39.54-6.45 51.06-2.62 15.21-8.22 20.87-23.95 24.25zm68.1-77.94c-4.26 1.98-11.39 3.46-18.16 3.78-7.48 0.35-11.29-0.84-12.18-1.57-0.42-8.64 2.79-9.55 6.2-10.5 0.53-0.15 1.06-0.3 1.56-0.47 0.31 0.25 0.66 0.5 1.03 0.75 6.01 3.97 16.74 4.4 31.87 1.27 0.06-0.01 0.12-0.02 0.17-0.03-2.04 1.91-5.53 4.47-10.49 6.77z" fill="#ffffff"/>
 </g>
</svg>