<?xml version="1.0" encoding="UTF-8" standalone="no"?><svg xmlns="http://www.w3.org/2000/svg" xmlns:xlink="http://www.w3.org/1999/xlink" fill="#000000" height="259.2" preserveAspectRatio="xMidYMid" version="1.1" viewBox="-1.6 -1.6 259.2 259.2" width="259.2" zoomAndPan="magnify">
 <g>
  <path d="m251.17 116.59l-111.77-111.76c-6.43-6.4395-16.87-6.4395-23.31-0.0015l-23.215 23.21 29.445 29.443c6.84-2.312 14.69-0.761 20.14 4.693 5.48 5.489 7.02 13.402 4.65 20.266l28.38 28.38c6.86-2.37 14.78-0.84 20.27 4.65 7.66 7.66 7.66 20.08 0 27.74-7.67 7.67-20.08 7.67-27.75 0-5.77-5.77-7.19-14.23-4.27-21.33l-26.46-26.465-0.01 69.635c1.87 0.93 3.63 2.16 5.19 3.71 7.66 7.66 7.66 20.08 0 27.75-7.66 7.66-20.09 7.66-27.74 0-7.66-7.67-7.66-20.09 0-27.75 1.89-1.89 4.08-3.32 6.42-4.28v-70.284c-2.34-0.955-4.52-2.377-6.42-4.281-5.81-5.798-7.2-14.317-4.23-21.446l-29.019-29.027-76.64 76.638c-6.4405 6.44-6.4405 16.88 0.0003 23.32l111.77 111.77c6.44 6.43 16.88 6.43 23.32 0l111.25-111.25c6.44-6.44 6.44-16.89 0-23.33" fill="#273339"/>
 </g>
</svg>